<?xml version="1.0" encoding="utf-8" standalone="no"?>
<!DOCTYPE svg PUBLIC "-//W3C//DTD SVG 1.1//EN"
  "http://www.w3.org/Graphics/SVG/1.1/DTD/svg11.dtd">
<!-- Created with matplotlib (https://matplotlib.org/) -->
<svg height="1353.857143pt" version="1.1" viewBox="0 0 936 1353.857143" width="936pt" xmlns="http://www.w3.org/2000/svg" xmlns:xlink="http://www.w3.org/1999/xlink">
 <metadata>
  <rdf:RDF xmlns:cc="http://creativecommons.org/ns#" xmlns:dc="http://purl.org/dc/elements/1.1/" xmlns:rdf="http://www.w3.org/1999/02/22-rdf-syntax-ns#">
   <cc:Work>
    <dc:type rdf:resource="http://purl.org/dc/dcmitype/StillImage"/>
    <dc:date>2021-04-04T21:11:53.222806</dc:date>
    <dc:format>image/svg+xml</dc:format>
    <dc:creator>
     <cc:Agent>
      <dc:title>Matplotlib v3.3.3, https://matplotlib.org/</dc:title>
     </cc:Agent>
    </dc:creator>
   </cc:Work>
  </rdf:RDF>
 </metadata>
 <defs>
  <style type="text/css">*{stroke-linecap:butt;stroke-linejoin:round;}</style>
 </defs>
 <g id="figure_1">
  <g id="patch_1">
   <path d="M 0 1353.857143 
L 936 1353.857143 
L 936 0 
L 0 0 
z
" style="fill:#ffffff;"/>
  </g>
  <g id="axes_1">
   <g id="line2d_1">
    <path clip-path="url(#pbc0ba5a178)" d="M 423.910355 471.342857 
L 423.910355 1095.854125 
" style="fill:none;stroke:#000000;stroke-linecap:square;stroke-width:0.5;"/>
   </g>
   <g id="line2d_2">
    <path clip-path="url(#pbc0ba5a178)" d="M 185.168589 471.342857 
L 185.168589 937.62178 
" style="fill:none;stroke:#000000;stroke-linecap:square;stroke-width:0.5;"/>
   </g>
   <g id="line2d_3">
    <path clip-path="url(#pbc0ba5a178)" d="M 688.496995 278.292857 
L 688.496995 1072.192428 
" style="fill:none;stroke:#000000;stroke-linecap:square;stroke-width:0.5;"/>
   </g>
   <g id="line2d_4">
    <path clip-path="url(#pbc0ba5a178)" d="M 404.444967 406.992857 
L 404.444967 1144.145109 
" style="fill:none;stroke:#000000;stroke-linecap:square;stroke-width:0.5;"/>
   </g>
   <g id="line2d_5">
    <path clip-path="url(#pbc0ba5a178)" d="M 788.523756 278.292857 
L 788.523756 838.678603 
" style="fill:none;stroke:#000000;stroke-linecap:square;stroke-width:0.5;"/>
   </g>
   <g id="line2d_6">
    <path clip-path="url(#pbc0ba5a178)" d="M 207.586153 278.292857 
L 207.586153 698.419141 
" style="fill:none;stroke:#000000;stroke-linecap:square;stroke-width:0.5;"/>
   </g>
   <g id="line2d_7">
    <path clip-path="url(#pbc0ba5a178)" d="M 318.908977 406.992857 
L 318.908977 580.843637 
" style="fill:none;stroke:#000000;stroke-linecap:square;stroke-width:0.5;"/>
   </g>
   <g id="line2d_8">
    <path clip-path="url(#pbc0ba5a178)" d="M 733.101239 342.642857 
L 733.101239 667.952739 
" style="fill:none;stroke:#000000;stroke-linecap:square;stroke-width:0.5;"/>
   </g>
   <g id="line2d_9">
    <path clip-path="url(#pbc0ba5a178)" d="M 767.91595 406.992857 
L 767.91595 733.494415 
" style="fill:none;stroke:#000000;stroke-linecap:square;stroke-width:0.5;"/>
   </g>
   <g id="line2d_10">
    <path clip-path="url(#pbc0ba5a178)" d="M 772.725171 471.342857 
L 772.725171 942.261667 
" style="fill:none;stroke:#000000;stroke-linecap:square;stroke-width:0.5;"/>
   </g>
   <g id="line2d_11">
    <path clip-path="url(#pbc0ba5a178)" d="M 273.008868 471.342857 
L 273.008868 1074.106363 
" style="fill:none;stroke:#000000;stroke-linecap:square;stroke-width:0.5;"/>
   </g>
   <g id="line2d_12">
    <path clip-path="url(#pbc0ba5a178)" d="M 552.982044 471.342857 
L 552.982044 1144.633845 
" style="fill:none;stroke:#000000;stroke-linecap:square;stroke-width:0.5;"/>
   </g>
   <g id="line2d_13">
    <path clip-path="url(#pbc0ba5a178)" d="M 258.646135 342.642857 
L 258.646135 628.836807 
" style="fill:none;stroke:#000000;stroke-linecap:square;stroke-width:0.5;"/>
   </g>
   <g id="line2d_14">
    <path clip-path="url(#pbc0ba5a178)" d="M 178.118488 406.992857 
L 178.118488 777.823728 
" style="fill:none;stroke:#000000;stroke-linecap:square;stroke-width:0.5;"/>
   </g>
   <g id="patch_2">
    <path clip-path="url(#pbc0ba5a178)" d="M 479.7 1101.972857 
C 547.963278 1101.972857 613.439859 1074.851569 661.709285 1026.582143 
C 709.978712 978.312716 737.1 912.836135 737.1 844.572857 
C 737.1 776.309579 709.978712 710.832998 661.709285 662.563572 
C 613.439859 614.294145 547.963278 587.172857 479.7 587.172857 
C 411.436722 587.172857 345.960141 614.294145 297.690715 662.563572 
C 249.421288 710.832998 222.3 776.309579 222.3 844.572857 
C 222.3 912.836135 249.421288 978.312716 297.690715 1026.582143 
C 345.960141 1074.851569 411.436722 1101.972857 479.7 1101.972857 
z
" style="fill:none;stroke:#000000;stroke-linejoin:miter;"/>
   </g>
   <g id="patch_3">
    <path clip-path="url(#pbc0ba5a178)" d="M 676.806363 652.208213 
C 697.047765 672.948558 713.889329 696.754356 726.708495 722.745609 
C 739.527661 748.736863 748.164503 776.589317 752.299755 805.273389 
C 756.435008 833.957461 756.01708 863.1153 751.061422 891.669069 
C 746.105764 920.222839 736.674201 947.816313 723.115374 973.429484 
C 709.556548 999.042655 692.039613 1022.355983 671.212094 1042.507676 
C 650.384575 1062.659369 626.506307 1079.398024 600.459965 1092.104886 
C 574.413623 1104.811749 546.52415 1113.328293 517.822496 1117.339699 
C 489.120843 1121.351105 459.965079 1120.80733 431.432965 1115.728473 
C 402.900852 1110.649616 375.348343 1101.09904 349.793934 1087.429788 
C 324.239525 1073.760535 301.002022 1056.143138 280.940413 1035.228833 
C 260.878804 1014.314529 244.243369 990.364235 231.649047 964.26329 
C 219.054726 938.162344 210.658639 910.236371 206.771153 881.517671 
C 202.883667 852.798971 203.553281 823.645826 208.755242 795.135899 
C 213.957203 766.625973 223.626613 739.114944 237.406037 713.619772 
C 251.185462 688.124601 268.902994 664.963355 289.903694 644.992204 
C 310.904394 625.021053 334.926267 608.489149 361.08133 596.007603 
L 361.08133 596.007603 
L 389.509906 603.490907 
L 376.60153 628.530159 
L 376.60153 628.530159 
C 353.868625 639.378606 332.989801 653.747458 314.736856 671.105561 
C 296.48391 688.463664 281.08456 708.594466 269.108051 730.753821 
C 257.131542 752.913175 248.727288 776.824631 244.205958 801.604286 
C 239.684627 826.383942 239.102627 851.722657 242.48147 876.68377 
C 245.860312 901.644883 253.157846 925.916991 264.104312 948.602859 
C 275.050779 971.288728 289.509614 992.105338 306.94634 1010.283191 
C 324.383066 1028.461045 344.580148 1043.773362 366.790989 1055.654115 
C 389.001831 1067.534867 412.949339 1075.835835 437.748278 1080.250168 
C 462.547218 1084.664502 487.888209 1085.137129 512.834506 1081.65058 
C 537.780803 1078.16403 562.021186 1070.7618 584.659596 1059.717518 
C 607.298005 1048.673236 628.052014 1034.124686 646.154437 1016.609662 
C 664.25686 999.094639 679.481859 978.831653 691.266634 956.569739 
C 703.051408 934.307824 711.248935 910.32471 715.556189 885.506948 
C 719.863444 860.689186 720.226689 835.346391 716.632498 810.415376 
C 713.038306 785.48436 705.531518 761.276152 694.389626 738.685623 
C 683.247734 716.095094 668.60974 695.404074 651.016745 677.377419 
L 651.016745 677.377419 
z
" style="fill:#f6870d;stroke:#000000;stroke-linejoin:miter;"/>
   </g>
   <g id="patch_4">
    <path clip-path="url(#pbc0ba5a178)" d="M 245.45103 1072.585406 
C 213.136441 1039.386974 188.245445 999.69511 172.432654 956.148305 
C 156.619863 912.601499 150.243599 866.186534 153.72772 819.988812 
L 153.72772 819.988812 
L 174.891292 794.587801 
L 189.661672 822.698864 
L 189.661672 822.698864 
C 186.561628 863.803924 192.234996 905.102279 206.304645 943.848649 
C 220.374293 982.595019 242.5214 1017.911402 271.273751 1047.450165 
L 271.273751 1047.450165 
z
" style="fill:#00008b;stroke:#000000;stroke-linejoin:miter;"/>
   </g>
   <g id="patch_5">
    <path clip-path="url(#pbc0ba5a178)" d="M 782.022161 968.925634 
C 765.55613 1008.957279 741.301781 1045.322634 710.670031 1075.906268 
C 680.038281 1106.489902 643.634841 1130.687053 603.577361 1147.090132 
L 603.577361 1147.090132 
L 571.391199 1139.529767 
L 589.921589 1113.741771 
L 589.921589 1113.741771 
C 625.563284 1099.146905 657.953746 1077.617157 685.208768 1050.404947 
C 712.46379 1023.192738 734.044431 990.836161 748.695309 955.217454 
L 748.695309 955.217454 
z
" style="fill:#00008b;stroke:#000000;stroke-linejoin:miter;"/>
   </g>
   <g id="patch_6">
    <path clip-path="url(#pbc0ba5a178)" d="M 536.630008 1166.475446 
C 495.858648 1173.686055 454.086114 1173.085456 413.538911 1164.705662 
C 372.991708 1156.325867 334.403264 1140.318453 299.83037 1117.536625 
L 299.83037 1117.536625 
L 287.912096 1086.697318 
L 319.658518 1087.446131 
L 319.658518 1087.446131 
C 350.420227 1107.716576 384.754826 1121.959394 420.832259 1129.415431 
C 456.909692 1136.871469 494.07738 1137.40586 530.354259 1130.990121 
L 530.354259 1130.990121 
z
" style="fill:#00008b;stroke:#000000;stroke-linejoin:miter;"/>
   </g>
   <g id="patch_7">
    <path clip-path="url(#pbc0ba5a178)" d="M 792.805381 750.619023 
C 800.020238 774.66286 804.4416 799.457937 805.981979 824.513625 
C 807.522358 849.569313 806.171526 874.719254 801.956214 899.465797 
L 801.956214 899.465797 
L 778.514832 922.781237 
L 766.431907 893.414607 
L 766.431907 893.414607 
C 770.182539 871.396029 771.38446 849.018523 770.013887 826.724879 
C 768.643313 804.431235 764.709346 782.369474 758.289827 760.976139 
L 758.289827 760.976139 
z
" style="fill:#00008b;stroke:#000000;stroke-linejoin:miter;"/>
   </g>
   <g id="patch_8">
    <path clip-path="url(#pbc0ba5a178)" d="M 165.149869 755.575569 
C 170.340041 737.231534 177.124969 719.376632 185.427033 702.215128 
C 193.729096 685.053623 203.516515 668.651209 214.677319 653.195531 
L 214.677319 653.195531 
L 245.998056 642.60688 
L 243.892418 674.292244 
L 243.892418 674.292244 
C 233.961938 688.044146 225.253448 702.63842 217.866572 717.908106 
C 210.479697 733.177791 204.442714 749.064435 199.824686 765.386293 
L 199.824686 765.386293 
z
" style="fill:#00008b;stroke:#000000;stroke-linejoin:miter;"/>
   </g>
   <g id="patch_9">
    <path clip-path="url(#pbc0ba5a178)" d="M 260.632358 601.938007 
C 272.330245 591.376339 284.77663 581.674451 297.874096 572.908279 
C 310.971562 564.142106 324.685849 556.334579 338.909616 549.546807 
L 338.909616 549.546807 
L 371.471887 555.274516 
L 354.429816 582.069364 
L 354.429816 582.069364 
C 341.774023 588.108878 329.571548 595.055732 317.917897 602.855555 
C 306.264246 610.655378 295.189903 619.287766 284.781547 628.685156 
L 284.781547 628.685156 
z
" style="fill:#00008b;stroke:#000000;stroke-linejoin:miter;"/>
   </g>
   <g id="patch_10">
    <path clip-path="url(#pbc0ba5a178)" d="M 713.648674 616.252204 
C 722.951724 625.784571 731.663482 635.876621 739.735214 646.471898 
C 747.806946 657.067175 755.223572 668.145886 761.943605 679.646056 
L 761.943605 679.646056 
L 758.95408 712.572806 
L 730.830137 697.826963 
L 730.830137 697.826963 
C 724.850895 687.594528 718.251849 677.737093 711.069914 668.309799 
C 703.88798 658.882505 696.136573 649.902965 687.859056 641.42141 
L 687.859056 641.42141 
z
" style="fill:#00008b;stroke:#000000;stroke-linejoin:miter;"/>
   </g>
   <g id="patch_11">
    <path clip-path="url(#pbc0ba5a178)" d="M 775.243901 704.872803 
C 776.990649 708.568155 778.667937 712.295943 780.274878 716.0542 
C 781.881819 719.812457 783.418131 723.600522 784.883004 727.416397 
L 784.883004 727.416397 
L 775.547604 755.797581 
L 751.240783 740.331282 
L 751.240783 740.331282 
C 749.937392 736.936055 748.570437 733.565572 747.140639 730.221611 
C 745.710841 726.87765 744.218452 723.560799 742.664258 720.272809 
L 742.664258 720.272809 
z
" style="fill:#fbf3f6;stroke:#000000;stroke-linejoin:miter;"/>
   </g>
   <g id="patch_12">
    <path clip-path="url(#pbc0ba5a178)" d="M 795.945697 927.343393 
C 795.019715 930.881339 794.034429 934.403497 792.990253 937.908379 
C 791.946078 941.413262 790.84316 944.900375 789.681967 948.368246 
L 789.681967 948.368246 
L 765.358735 962.071544 
L 755.510726 936.926235 
L 755.510726 936.926235 
C 756.543914 933.840649 757.52525 930.737941 758.45432 927.619424 
C 759.383389 924.500907 760.260062 921.367018 761.083967 918.219082 
L 761.083967 918.219082 
z
" style="fill:#fbf3f6;stroke:#000000;stroke-linejoin:miter;"/>
   </g>
   <g id="patch_13">
    <path clip-path="url(#pbc0ba5a178)" d="M 276.724468 1100.821244 
C 273.970158 1098.639543 271.251203 1096.413575 268.568661 1094.14421 
C 265.88612 1091.874845 263.240342 1089.562377 260.632358 1087.207707 
L 260.632358 1087.207707 
L 258.362391 1060.017785 
L 284.781547 1060.460559 
L 284.781547 1060.460559 
C 287.102036 1062.555658 289.456154 1064.613208 291.842982 1066.632407 
C 294.22981 1068.651606 296.649038 1070.632192 299.099724 1072.573391 
L 299.099724 1072.573391 
z
" style="fill:#fbf3f6;stroke:#000000;stroke-linejoin:miter;"/>
   </g>
   <g id="patch_14">
    <path clip-path="url(#pbc0ba5a178)" d="M 576.739852 1156.735586 
C 573.45302 1157.757341 570.150256 1158.72712 566.832794 1159.644561 
C 563.515333 1160.562002 560.183589 1161.42699 556.838808 1162.239202 
L 556.838808 1162.239202 
L 533.492133 1148.732783 
L 548.335317 1127.220865 
L 548.335317 1127.220865 
C 551.311382 1126.498188 554.275848 1125.728553 557.227604 1124.912247 
C 560.179361 1124.095941 563.118042 1123.233067 566.042546 1122.323947 
L 566.042546 1122.323947 
z
" style="fill:#fbf3f6;stroke:#000000;stroke-linejoin:miter;"/>
   </g>
   <g id="patch_15">
    <path clip-path="url(#pbc0ba5a178)" d="M 232.365443 630.825531 
C 234.569148 628.275547 236.812156 625.759795 239.093662 623.279177 
C 241.375169 620.79856 243.694901 618.353374 246.052027 615.944496 
L 246.052027 615.944496 
L 272.706952 615.311581 
L 271.808497 641.147623 
L 271.808497 641.147623 
C 269.711211 643.290955 267.647198 645.466593 265.617196 647.673756 
C 263.587194 649.88092 261.591447 652.119345 259.63067 654.388229 
L 259.63067 654.388229 
z
" style="fill:#fbf3f6;stroke:#000000;stroke-linejoin:miter;"/>
   </g>
   <g id="patch_16">
    <path clip-path="url(#pbc0ba5a178)" d="M 157.110784 791.672006 
C 157.609766 788.629217 158.151773 785.593641 158.736645 782.566189 
C 159.321516 779.538736 159.949192 776.51971 160.619485 773.510017 
L 160.619485 773.510017 
L 182.487278 760.480931 
L 195.793715 781.343716 
L 195.793715 781.343716 
C 195.197313 784.021632 194.638829 786.707852 194.118432 789.401569 
C 193.598035 792.095287 193.115776 794.796233 192.6718 797.503596 
L 192.6718 797.503596 
z
" style="fill:#fbf3f6;stroke:#000000;stroke-linejoin:miter;"/>
   </g>
   <g id="text_1">
    <g id="patch_17">
     <path d="M 395.703089 479.965826 
L 452.11762 479.965826 
Q 455.41762 479.965826 455.41762 476.665826 
L 455.41762 466.019888 
Q 455.41762 462.719888 452.11762 462.719888 
L 395.703089 462.719888 
Q 392.403089 462.719888 392.403089 466.019888 
L 392.403089 476.665826 
Q 392.403089 479.965826 395.703089 479.965826 
z
" style="fill:#fef3e6;stroke:#808080;stroke-linejoin:miter;stroke-width:0.3;"/>
    </g>
    <!-- Luciferase -->
    <g transform="translate(395.703089 474.37817)scale(0.11 -0.11)">
     <defs>
      <path d="M 9.8125 72.90625 
L 19.671875 72.90625 
L 19.671875 8.296875 
L 55.171875 8.296875 
L 55.171875 0 
L 9.8125 0 
z
" id="DejaVuSans-76"/>
      <path d="M 8.5 21.578125 
L 8.5 54.6875 
L 17.484375 54.6875 
L 17.484375 21.921875 
Q 17.484375 14.15625 20.5 10.265625 
Q 23.53125 6.390625 29.59375 6.390625 
Q 36.859375 6.390625 41.078125 11.03125 
Q 45.3125 15.671875 45.3125 23.6875 
L 45.3125 54.6875 
L 54.296875 54.6875 
L 54.296875 0 
L 45.3125 0 
L 45.3125 8.40625 
Q 42.046875 3.421875 37.71875 1 
Q 33.40625 -1.421875 27.6875 -1.421875 
Q 18.265625 -1.421875 13.375 4.4375 
Q 8.5 10.296875 8.5 21.578125 
z
M 31.109375 56 
z
" id="DejaVuSans-117"/>
      <path d="M 48.78125 52.59375 
L 48.78125 44.1875 
Q 44.96875 46.296875 41.140625 47.34375 
Q 37.3125 48.390625 33.40625 48.390625 
Q 24.65625 48.390625 19.8125 42.84375 
Q 14.984375 37.3125 14.984375 27.296875 
Q 14.984375 17.28125 19.8125 11.734375 
Q 24.65625 6.203125 33.40625 6.203125 
Q 37.3125 6.203125 41.140625 7.25 
Q 44.96875 8.296875 48.78125 10.40625 
L 48.78125 2.09375 
Q 45.015625 0.34375 40.984375 -0.53125 
Q 36.96875 -1.421875 32.421875 -1.421875 
Q 20.0625 -1.421875 12.78125 6.34375 
Q 5.515625 14.109375 5.515625 27.296875 
Q 5.515625 40.671875 12.859375 48.328125 
Q 20.21875 56 33.015625 56 
Q 37.15625 56 41.109375 55.140625 
Q 45.0625 54.296875 48.78125 52.59375 
z
" id="DejaVuSans-99"/>
      <path d="M 9.421875 54.6875 
L 18.40625 54.6875 
L 18.40625 0 
L 9.421875 0 
z
M 9.421875 75.984375 
L 18.40625 75.984375 
L 18.40625 64.59375 
L 9.421875 64.59375 
z
" id="DejaVuSans-105"/>
      <path d="M 37.109375 75.984375 
L 37.109375 68.5 
L 28.515625 68.5 
Q 23.6875 68.5 21.796875 66.546875 
Q 19.921875 64.59375 19.921875 59.515625 
L 19.921875 54.6875 
L 34.71875 54.6875 
L 34.71875 47.703125 
L 19.921875 47.703125 
L 19.921875 0 
L 10.890625 0 
L 10.890625 47.703125 
L 2.296875 47.703125 
L 2.296875 54.6875 
L 10.890625 54.6875 
L 10.890625 58.5 
Q 10.890625 67.625 15.140625 71.796875 
Q 19.390625 75.984375 28.609375 75.984375 
z
" id="DejaVuSans-102"/>
      <path d="M 56.203125 29.59375 
L 56.203125 25.203125 
L 14.890625 25.203125 
Q 15.484375 15.921875 20.484375 11.0625 
Q 25.484375 6.203125 34.421875 6.203125 
Q 39.59375 6.203125 44.453125 7.46875 
Q 49.3125 8.734375 54.109375 11.28125 
L 54.109375 2.78125 
Q 49.265625 0.734375 44.1875 -0.34375 
Q 39.109375 -1.421875 33.890625 -1.421875 
Q 20.796875 -1.421875 13.15625 6.1875 
Q 5.515625 13.8125 5.515625 26.8125 
Q 5.515625 40.234375 12.765625 48.109375 
Q 20.015625 56 32.328125 56 
Q 43.359375 56 49.78125 48.890625 
Q 56.203125 41.796875 56.203125 29.59375 
z
M 47.21875 32.234375 
Q 47.125 39.59375 43.09375 43.984375 
Q 39.0625 48.390625 32.421875 48.390625 
Q 24.90625 48.390625 20.390625 44.140625 
Q 15.875 39.890625 15.1875 32.171875 
z
" id="DejaVuSans-101"/>
      <path d="M 41.109375 46.296875 
Q 39.59375 47.171875 37.8125 47.578125 
Q 36.03125 48 33.890625 48 
Q 26.265625 48 22.1875 43.046875 
Q 18.109375 38.09375 18.109375 28.8125 
L 18.109375 0 
L 9.078125 0 
L 9.078125 54.6875 
L 18.109375 54.6875 
L 18.109375 46.1875 
Q 20.953125 51.171875 25.484375 53.578125 
Q 30.03125 56 36.53125 56 
Q 37.453125 56 38.578125 55.875 
Q 39.703125 55.765625 41.0625 55.515625 
z
" id="DejaVuSans-114"/>
      <path d="M 34.28125 27.484375 
Q 23.390625 27.484375 19.1875 25 
Q 14.984375 22.515625 14.984375 16.5 
Q 14.984375 11.71875 18.140625 8.90625 
Q 21.296875 6.109375 26.703125 6.109375 
Q 34.1875 6.109375 38.703125 11.40625 
Q 43.21875 16.703125 43.21875 25.484375 
L 43.21875 27.484375 
z
M 52.203125 31.203125 
L 52.203125 0 
L 43.21875 0 
L 43.21875 8.296875 
Q 40.140625 3.328125 35.546875 0.953125 
Q 30.953125 -1.421875 24.3125 -1.421875 
Q 15.921875 -1.421875 10.953125 3.296875 
Q 6 8.015625 6 15.921875 
Q 6 25.140625 12.171875 29.828125 
Q 18.359375 34.515625 30.609375 34.515625 
L 43.21875 34.515625 
L 43.21875 35.40625 
Q 43.21875 41.609375 39.140625 45 
Q 35.0625 48.390625 27.6875 48.390625 
Q 23 48.390625 18.546875 47.265625 
Q 14.109375 46.140625 10.015625 43.890625 
L 10.015625 52.203125 
Q 14.9375 54.109375 19.578125 55.046875 
Q 24.21875 56 28.609375 56 
Q 40.484375 56 46.34375 49.84375 
Q 52.203125 43.703125 52.203125 31.203125 
z
" id="DejaVuSans-97"/>
      <path d="M 44.28125 53.078125 
L 44.28125 44.578125 
Q 40.484375 46.53125 36.375 47.5 
Q 32.28125 48.484375 27.875 48.484375 
Q 21.1875 48.484375 17.84375 46.4375 
Q 14.5 44.390625 14.5 40.28125 
Q 14.5 37.15625 16.890625 35.375 
Q 19.28125 33.59375 26.515625 31.984375 
L 29.59375 31.296875 
Q 39.15625 29.25 43.1875 25.515625 
Q 47.21875 21.78125 47.21875 15.09375 
Q 47.21875 7.46875 41.1875 3.015625 
Q 35.15625 -1.421875 24.609375 -1.421875 
Q 20.21875 -1.421875 15.453125 -0.5625 
Q 10.6875 0.296875 5.421875 2 
L 5.421875 11.28125 
Q 10.40625 8.6875 15.234375 7.390625 
Q 20.0625 6.109375 24.8125 6.109375 
Q 31.15625 6.109375 34.5625 8.28125 
Q 37.984375 10.453125 37.984375 14.40625 
Q 37.984375 18.0625 35.515625 20.015625 
Q 33.0625 21.96875 24.703125 23.78125 
L 21.578125 24.515625 
Q 13.234375 26.265625 9.515625 29.90625 
Q 5.8125 33.546875 5.8125 39.890625 
Q 5.8125 47.609375 11.28125 51.796875 
Q 16.75 56 26.8125 56 
Q 31.78125 56 36.171875 55.265625 
Q 40.578125 54.546875 44.28125 53.078125 
z
" id="DejaVuSans-115"/>
     </defs>
     <use xlink:href="#DejaVuSans-76"/>
     <use x="53.962891" xlink:href="#DejaVuSans-117"/>
     <use x="117.341797" xlink:href="#DejaVuSans-99"/>
     <use x="172.322266" xlink:href="#DejaVuSans-105"/>
     <use x="200.105469" xlink:href="#DejaVuSans-102"/>
     <use x="235.310547" xlink:href="#DejaVuSans-101"/>
     <use x="296.833984" xlink:href="#DejaVuSans-114"/>
     <use x="337.947266" xlink:href="#DejaVuSans-97"/>
     <use x="399.226562" xlink:href="#DejaVuSans-115"/>
     <use x="451.326172" xlink:href="#DejaVuSans-101"/>
    </g>
   </g>
   <g id="text_2">
    <g id="patch_18">
     <path d="M 171.946245 479.965826 
L 198.390932 479.965826 
Q 201.690932 479.965826 201.690932 476.665826 
L 201.690932 466.019888 
Q 201.690932 462.719888 198.390932 462.719888 
L 171.946245 462.719888 
Q 168.646245 462.719888 168.646245 466.019888 
L 168.646245 476.665826 
Q 168.646245 479.965826 171.946245 479.965826 
z
" style="fill:#e5e5ff;stroke:#808080;stroke-linejoin:miter;stroke-width:0.3;"/>
    </g>
    <!-- exon -->
    <g transform="translate(171.946245 474.37817)scale(0.11 -0.11)">
     <defs>
      <path d="M 54.890625 54.6875 
L 35.109375 28.078125 
L 55.90625 0 
L 45.3125 0 
L 29.390625 21.484375 
L 13.484375 0 
L 2.875 0 
L 24.125 28.609375 
L 4.6875 54.6875 
L 15.28125 54.6875 
L 29.78125 35.203125 
L 44.28125 54.6875 
z
" id="DejaVuSans-120"/>
      <path d="M 30.609375 48.390625 
Q 23.390625 48.390625 19.1875 42.75 
Q 14.984375 37.109375 14.984375 27.296875 
Q 14.984375 17.484375 19.15625 11.84375 
Q 23.34375 6.203125 30.609375 6.203125 
Q 37.796875 6.203125 41.984375 11.859375 
Q 46.1875 17.53125 46.1875 27.296875 
Q 46.1875 37.015625 41.984375 42.703125 
Q 37.796875 48.390625 30.609375 48.390625 
z
M 30.609375 56 
Q 42.328125 56 49.015625 48.375 
Q 55.71875 40.765625 55.71875 27.296875 
Q 55.71875 13.875 49.015625 6.21875 
Q 42.328125 -1.421875 30.609375 -1.421875 
Q 18.84375 -1.421875 12.171875 6.21875 
Q 5.515625 13.875 5.515625 27.296875 
Q 5.515625 40.765625 12.171875 48.375 
Q 18.84375 56 30.609375 56 
z
" id="DejaVuSans-111"/>
      <path d="M 54.890625 33.015625 
L 54.890625 0 
L 45.90625 0 
L 45.90625 32.71875 
Q 45.90625 40.484375 42.875 44.328125 
Q 39.84375 48.1875 33.796875 48.1875 
Q 26.515625 48.1875 22.3125 43.546875 
Q 18.109375 38.921875 18.109375 30.90625 
L 18.109375 0 
L 9.078125 0 
L 9.078125 54.6875 
L 18.109375 54.6875 
L 18.109375 46.1875 
Q 21.34375 51.125 25.703125 53.5625 
Q 30.078125 56 35.796875 56 
Q 45.21875 56 50.046875 50.171875 
Q 54.890625 44.34375 54.890625 33.015625 
z
" id="DejaVuSans-110"/>
     </defs>
     <use xlink:href="#DejaVuSans-101"/>
     <use x="59.773438" xlink:href="#DejaVuSans-120"/>
     <use x="115.828125" xlink:href="#DejaVuSans-111"/>
     <use x="177.009766" xlink:href="#DejaVuSans-110"/>
    </g>
   </g>
   <g id="text_3">
    <g id="patch_19">
     <path d="M 675.274651 286.915826 
L 701.719339 286.915826 
Q 705.019339 286.915826 705.019339 283.615826 
L 705.019339 272.969888 
Q 705.019339 269.669888 701.719339 269.669888 
L 675.274651 269.669888 
Q 671.974651 269.669888 671.974651 272.969888 
L 671.974651 283.615826 
Q 671.974651 286.915826 675.274651 286.915826 
z
" style="fill:#e5e5ff;stroke:#808080;stroke-linejoin:miter;stroke-width:0.3;"/>
    </g>
    <!-- exon -->
    <g transform="translate(675.274651 281.32817)scale(0.11 -0.11)">
     <use xlink:href="#DejaVuSans-101"/>
     <use x="59.773438" xlink:href="#DejaVuSans-120"/>
     <use x="115.828125" xlink:href="#DejaVuSans-111"/>
     <use x="177.009766" xlink:href="#DejaVuSans-110"/>
    </g>
   </g>
   <g id="text_4">
    <g id="patch_20">
     <path d="M 391.222623 415.615826 
L 417.667311 415.615826 
Q 420.967311 415.615826 420.967311 412.315826 
L 420.967311 401.669888 
Q 420.967311 398.369888 417.667311 398.369888 
L 391.222623 398.369888 
Q 387.922623 398.369888 387.922623 401.669888 
L 387.922623 412.315826 
Q 387.922623 415.615826 391.222623 415.615826 
z
" style="fill:#e5e5ff;stroke:#808080;stroke-linejoin:miter;stroke-width:0.3;"/>
    </g>
    <!-- exon -->
    <g transform="translate(391.222623 410.02817)scale(0.11 -0.11)">
     <use xlink:href="#DejaVuSans-101"/>
     <use x="59.773438" xlink:href="#DejaVuSans-120"/>
     <use x="115.828125" xlink:href="#DejaVuSans-111"/>
     <use x="177.009766" xlink:href="#DejaVuSans-110"/>
    </g>
   </g>
   <g id="text_5">
    <g id="patch_21">
     <path d="M 775.301412 286.915826 
L 801.7461 286.915826 
Q 805.0461 286.915826 805.0461 283.615826 
L 805.0461 272.969888 
Q 805.0461 269.669888 801.7461 269.669888 
L 775.301412 269.669888 
Q 772.001412 269.669888 772.001412 272.969888 
L 772.001412 283.615826 
Q 772.001412 286.915826 775.301412 286.915826 
z
" style="fill:#e5e5ff;stroke:#808080;stroke-linejoin:miter;stroke-width:0.3;"/>
    </g>
    <!-- exon -->
    <g transform="translate(775.301412 281.32817)scale(0.11 -0.11)">
     <use xlink:href="#DejaVuSans-101"/>
     <use x="59.773438" xlink:href="#DejaVuSans-120"/>
     <use x="115.828125" xlink:href="#DejaVuSans-111"/>
     <use x="177.009766" xlink:href="#DejaVuSans-110"/>
    </g>
   </g>
   <g id="text_6">
    <g id="patch_22">
     <path d="M 194.36381 286.915826 
L 220.808497 286.915826 
Q 224.108497 286.915826 224.108497 283.615826 
L 224.108497 272.969888 
Q 224.108497 269.669888 220.808497 269.669888 
L 194.36381 269.669888 
Q 191.06381 269.669888 191.06381 272.969888 
L 191.06381 283.615826 
Q 191.06381 286.915826 194.36381 286.915826 
z
" style="fill:#e5e5ff;stroke:#808080;stroke-linejoin:miter;stroke-width:0.3;"/>
    </g>
    <!-- exon -->
    <g transform="translate(194.36381 281.32817)scale(0.11 -0.11)">
     <use xlink:href="#DejaVuSans-101"/>
     <use x="59.773438" xlink:href="#DejaVuSans-120"/>
     <use x="115.828125" xlink:href="#DejaVuSans-111"/>
     <use x="177.009766" xlink:href="#DejaVuSans-110"/>
    </g>
   </g>
   <g id="text_7">
    <g id="patch_23">
     <path d="M 290.701712 415.615826 
L 347.116243 415.615826 
Q 350.416243 415.615826 350.416243 412.315826 
L 350.416243 401.669888 
Q 350.416243 398.369888 347.116243 398.369888 
L 290.701712 398.369888 
Q 287.401712 398.369888 287.401712 401.669888 
L 287.401712 412.315826 
Q 287.401712 415.615826 290.701712 415.615826 
z
" style="fill:#e5e5ff;stroke:#808080;stroke-linejoin:miter;stroke-width:0.3;"/>
    </g>
    <!-- Luciferase -->
    <g transform="translate(290.701712 410.02817)scale(0.11 -0.11)">
     <use xlink:href="#DejaVuSans-76"/>
     <use x="53.962891" xlink:href="#DejaVuSans-117"/>
     <use x="117.341797" xlink:href="#DejaVuSans-99"/>
     <use x="172.322266" xlink:href="#DejaVuSans-105"/>
     <use x="200.105469" xlink:href="#DejaVuSans-102"/>
     <use x="235.310547" xlink:href="#DejaVuSans-101"/>
     <use x="296.833984" xlink:href="#DejaVuSans-114"/>
     <use x="337.947266" xlink:href="#DejaVuSans-97"/>
     <use x="399.226562" xlink:href="#DejaVuSans-115"/>
     <use x="451.326172" xlink:href="#DejaVuSans-101"/>
    </g>
   </g>
   <g id="text_8">
    <g id="patch_24">
     <path d="M 704.893974 351.265826 
L 761.308505 351.265826 
Q 764.608505 351.265826 764.608505 347.965826 
L 764.608505 337.319888 
Q 764.608505 334.019888 761.308505 334.019888 
L 704.893974 334.019888 
Q 701.593974 334.019888 701.593974 337.319888 
L 701.593974 347.965826 
Q 701.593974 351.265826 704.893974 351.265826 
z
" style="fill:#e5e5ff;stroke:#808080;stroke-linejoin:miter;stroke-width:0.3;"/>
    </g>
    <!-- Luciferase -->
    <g transform="translate(704.893974 345.67817)scale(0.11 -0.11)">
     <use xlink:href="#DejaVuSans-76"/>
     <use x="53.962891" xlink:href="#DejaVuSans-117"/>
     <use x="117.341797" xlink:href="#DejaVuSans-99"/>
     <use x="172.322266" xlink:href="#DejaVuSans-105"/>
     <use x="200.105469" xlink:href="#DejaVuSans-102"/>
     <use x="235.310547" xlink:href="#DejaVuSans-101"/>
     <use x="296.833984" xlink:href="#DejaVuSans-114"/>
     <use x="337.947266" xlink:href="#DejaVuSans-97"/>
     <use x="399.226562" xlink:href="#DejaVuSans-115"/>
     <use x="451.326172" xlink:href="#DejaVuSans-101"/>
    </g>
   </g>
   <g id="text_9">
    <g id="patch_25">
     <path d="M 722.715404 415.615826 
L 813.116497 415.615826 
Q 816.416497 415.615826 816.416497 412.315826 
L 816.416497 401.669888 
Q 816.416497 398.369888 813.116497 398.369888 
L 722.715404 398.369888 
Q 719.415404 398.369888 719.415404 401.669888 
L 719.415404 412.315826 
Q 719.415404 415.615826 722.715404 415.615826 
z
" style="fill:#fbf3f6;stroke:#808080;stroke-linejoin:miter;stroke-width:0.3;"/>
    </g>
    <!-- LUC cds intron A -->
    <g transform="translate(722.715404 410.02817)scale(0.11 -0.11)">
     <defs>
      <path d="M 8.6875 72.90625 
L 18.609375 72.90625 
L 18.609375 28.609375 
Q 18.609375 16.890625 22.84375 11.734375 
Q 27.09375 6.59375 36.625 6.59375 
Q 46.09375 6.59375 50.34375 11.734375 
Q 54.59375 16.890625 54.59375 28.609375 
L 54.59375 72.90625 
L 64.5 72.90625 
L 64.5 27.390625 
Q 64.5 13.140625 57.4375 5.859375 
Q 50.390625 -1.421875 36.625 -1.421875 
Q 22.796875 -1.421875 15.734375 5.859375 
Q 8.6875 13.140625 8.6875 27.390625 
z
" id="DejaVuSans-85"/>
      <path d="M 64.40625 67.28125 
L 64.40625 56.890625 
Q 59.421875 61.53125 53.78125 63.8125 
Q 48.140625 66.109375 41.796875 66.109375 
Q 29.296875 66.109375 22.65625 58.46875 
Q 16.015625 50.828125 16.015625 36.375 
Q 16.015625 21.96875 22.65625 14.328125 
Q 29.296875 6.6875 41.796875 6.6875 
Q 48.140625 6.6875 53.78125 8.984375 
Q 59.421875 11.28125 64.40625 15.921875 
L 64.40625 5.609375 
Q 59.234375 2.09375 53.4375 0.328125 
Q 47.65625 -1.421875 41.21875 -1.421875 
Q 24.65625 -1.421875 15.125 8.703125 
Q 5.609375 18.84375 5.609375 36.375 
Q 5.609375 53.953125 15.125 64.078125 
Q 24.65625 74.21875 41.21875 74.21875 
Q 47.75 74.21875 53.53125 72.484375 
Q 59.328125 70.75 64.40625 67.28125 
z
" id="DejaVuSans-67"/>
      <path id="DejaVuSans-32"/>
      <path d="M 45.40625 46.390625 
L 45.40625 75.984375 
L 54.390625 75.984375 
L 54.390625 0 
L 45.40625 0 
L 45.40625 8.203125 
Q 42.578125 3.328125 38.25 0.953125 
Q 33.9375 -1.421875 27.875 -1.421875 
Q 17.96875 -1.421875 11.734375 6.484375 
Q 5.515625 14.40625 5.515625 27.296875 
Q 5.515625 40.1875 11.734375 48.09375 
Q 17.96875 56 27.875 56 
Q 33.9375 56 38.25 53.625 
Q 42.578125 51.265625 45.40625 46.390625 
z
M 14.796875 27.296875 
Q 14.796875 17.390625 18.875 11.75 
Q 22.953125 6.109375 30.078125 6.109375 
Q 37.203125 6.109375 41.296875 11.75 
Q 45.40625 17.390625 45.40625 27.296875 
Q 45.40625 37.203125 41.296875 42.84375 
Q 37.203125 48.484375 30.078125 48.484375 
Q 22.953125 48.484375 18.875 42.84375 
Q 14.796875 37.203125 14.796875 27.296875 
z
" id="DejaVuSans-100"/>
      <path d="M 18.3125 70.21875 
L 18.3125 54.6875 
L 36.8125 54.6875 
L 36.8125 47.703125 
L 18.3125 47.703125 
L 18.3125 18.015625 
Q 18.3125 11.328125 20.140625 9.421875 
Q 21.96875 7.515625 27.59375 7.515625 
L 36.8125 7.515625 
L 36.8125 0 
L 27.59375 0 
Q 17.1875 0 13.234375 3.875 
Q 9.28125 7.765625 9.28125 18.015625 
L 9.28125 47.703125 
L 2.6875 47.703125 
L 2.6875 54.6875 
L 9.28125 54.6875 
L 9.28125 70.21875 
z
" id="DejaVuSans-116"/>
      <path d="M 34.1875 63.1875 
L 20.796875 26.90625 
L 47.609375 26.90625 
z
M 28.609375 72.90625 
L 39.796875 72.90625 
L 67.578125 0 
L 57.328125 0 
L 50.6875 18.703125 
L 17.828125 18.703125 
L 11.1875 0 
L 0.78125 0 
z
" id="DejaVuSans-65"/>
     </defs>
     <use xlink:href="#DejaVuSans-76"/>
     <use x="50.712891" xlink:href="#DejaVuSans-85"/>
     <use x="123.90625" xlink:href="#DejaVuSans-67"/>
     <use x="193.730469" xlink:href="#DejaVuSans-32"/>
     <use x="225.517578" xlink:href="#DejaVuSans-99"/>
     <use x="280.498047" xlink:href="#DejaVuSans-100"/>
     <use x="343.974609" xlink:href="#DejaVuSans-115"/>
     <use x="396.074219" xlink:href="#DejaVuSans-32"/>
     <use x="427.861328" xlink:href="#DejaVuSans-105"/>
     <use x="455.644531" xlink:href="#DejaVuSans-110"/>
     <use x="519.023438" xlink:href="#DejaVuSans-116"/>
     <use x="558.232422" xlink:href="#DejaVuSans-114"/>
     <use x="597.095703" xlink:href="#DejaVuSans-111"/>
     <use x="658.277344" xlink:href="#DejaVuSans-110"/>
     <use x="721.65625" xlink:href="#DejaVuSans-32"/>
     <use x="753.443359" xlink:href="#DejaVuSans-65"/>
    </g>
   </g>
   <g id="text_10">
    <g id="patch_26">
     <path d="M 727.513452 479.965826 
L 817.93689 479.965826 
Q 821.23689 479.965826 821.23689 476.665826 
L 821.23689 466.019888 
Q 821.23689 462.719888 817.93689 462.719888 
L 727.513452 462.719888 
Q 724.213452 462.719888 724.213452 466.019888 
L 724.213452 476.665826 
Q 724.213452 479.965826 727.513452 479.965826 
z
" style="fill:#fbf3f6;stroke:#808080;stroke-linejoin:miter;stroke-width:0.3;"/>
    </g>
    <!-- LUC cds intron B -->
    <g transform="translate(727.513452 474.37817)scale(0.11 -0.11)">
     <defs>
      <path d="M 19.671875 34.8125 
L 19.671875 8.109375 
L 35.5 8.109375 
Q 43.453125 8.109375 47.28125 11.40625 
Q 51.125 14.703125 51.125 21.484375 
Q 51.125 28.328125 47.28125 31.5625 
Q 43.453125 34.8125 35.5 34.8125 
z
M 19.671875 64.796875 
L 19.671875 42.828125 
L 34.28125 42.828125 
Q 41.5 42.828125 45.03125 45.53125 
Q 48.578125 48.25 48.578125 53.8125 
Q 48.578125 59.328125 45.03125 62.0625 
Q 41.5 64.796875 34.28125 64.796875 
z
M 9.8125 72.90625 
L 35.015625 72.90625 
Q 46.296875 72.90625 52.390625 68.21875 
Q 58.5 63.53125 58.5 54.890625 
Q 58.5 48.1875 55.375 44.234375 
Q 52.25 40.28125 46.1875 39.3125 
Q 53.46875 37.75 57.5 32.78125 
Q 61.53125 27.828125 61.53125 20.40625 
Q 61.53125 10.640625 54.890625 5.3125 
Q 48.25 0 35.984375 0 
L 9.8125 0 
z
" id="DejaVuSans-66"/>
     </defs>
     <use xlink:href="#DejaVuSans-76"/>
     <use x="50.712891" xlink:href="#DejaVuSans-85"/>
     <use x="123.90625" xlink:href="#DejaVuSans-67"/>
     <use x="193.730469" xlink:href="#DejaVuSans-32"/>
     <use x="225.517578" xlink:href="#DejaVuSans-99"/>
     <use x="280.498047" xlink:href="#DejaVuSans-100"/>
     <use x="343.974609" xlink:href="#DejaVuSans-115"/>
     <use x="396.074219" xlink:href="#DejaVuSans-32"/>
     <use x="427.861328" xlink:href="#DejaVuSans-105"/>
     <use x="455.644531" xlink:href="#DejaVuSans-110"/>
     <use x="519.023438" xlink:href="#DejaVuSans-116"/>
     <use x="558.232422" xlink:href="#DejaVuSans-114"/>
     <use x="597.095703" xlink:href="#DejaVuSans-111"/>
     <use x="658.277344" xlink:href="#DejaVuSans-110"/>
     <use x="721.65625" xlink:href="#DejaVuSans-32"/>
     <use x="753.443359" xlink:href="#DejaVuSans-66"/>
    </g>
   </g>
   <g id="text_11">
    <g id="patch_27">
     <path d="M 227.335665 479.965826 
L 318.682071 479.965826 
Q 321.982071 479.965826 321.982071 476.665826 
L 321.982071 466.019888 
Q 321.982071 462.719888 318.682071 462.719888 
L 227.335665 462.719888 
Q 224.035665 462.719888 224.035665 466.019888 
L 224.035665 476.665826 
Q 224.035665 479.965826 227.335665 479.965826 
z
" style="fill:#fbf3f6;stroke:#808080;stroke-linejoin:miter;stroke-width:0.3;"/>
    </g>
    <!-- LUC cds intron D -->
    <g transform="translate(227.335665 474.37817)scale(0.11 -0.11)">
     <defs>
      <path d="M 19.671875 64.796875 
L 19.671875 8.109375 
L 31.59375 8.109375 
Q 46.6875 8.109375 53.6875 14.9375 
Q 60.6875 21.78125 60.6875 36.53125 
Q 60.6875 51.171875 53.6875 57.984375 
Q 46.6875 64.796875 31.59375 64.796875 
z
M 9.8125 72.90625 
L 30.078125 72.90625 
Q 51.265625 72.90625 61.171875 64.09375 
Q 71.09375 55.28125 71.09375 36.53125 
Q 71.09375 17.671875 61.125 8.828125 
Q 51.171875 0 30.078125 0 
L 9.8125 0 
z
" id="DejaVuSans-68"/>
     </defs>
     <use xlink:href="#DejaVuSans-76"/>
     <use x="50.712891" xlink:href="#DejaVuSans-85"/>
     <use x="123.90625" xlink:href="#DejaVuSans-67"/>
     <use x="193.730469" xlink:href="#DejaVuSans-32"/>
     <use x="225.517578" xlink:href="#DejaVuSans-99"/>
     <use x="280.498047" xlink:href="#DejaVuSans-100"/>
     <use x="343.974609" xlink:href="#DejaVuSans-115"/>
     <use x="396.074219" xlink:href="#DejaVuSans-32"/>
     <use x="427.861328" xlink:href="#DejaVuSans-105"/>
     <use x="455.644531" xlink:href="#DejaVuSans-110"/>
     <use x="519.023438" xlink:href="#DejaVuSans-116"/>
     <use x="558.232422" xlink:href="#DejaVuSans-114"/>
     <use x="597.095703" xlink:href="#DejaVuSans-111"/>
     <use x="658.277344" xlink:href="#DejaVuSans-110"/>
     <use x="721.65625" xlink:href="#DejaVuSans-32"/>
     <use x="753.443359" xlink:href="#DejaVuSans-68"/>
    </g>
   </g>
   <g id="text_12">
    <g id="patch_28">
     <path d="M 507.703294 479.965826 
L 598.260794 479.965826 
Q 601.560794 479.965826 601.560794 476.665826 
L 601.560794 466.019888 
Q 601.560794 462.719888 598.260794 462.719888 
L 507.703294 462.719888 
Q 504.403294 462.719888 504.403294 466.019888 
L 504.403294 476.665826 
Q 504.403294 479.965826 507.703294 479.965826 
z
" style="fill:#fbf3f6;stroke:#808080;stroke-linejoin:miter;stroke-width:0.3;"/>
    </g>
    <!-- LUC cds intron C -->
    <g transform="translate(507.703294 474.37817)scale(0.11 -0.11)">
     <use xlink:href="#DejaVuSans-76"/>
     <use x="50.712891" xlink:href="#DejaVuSans-85"/>
     <use x="123.90625" xlink:href="#DejaVuSans-67"/>
     <use x="193.730469" xlink:href="#DejaVuSans-32"/>
     <use x="225.517578" xlink:href="#DejaVuSans-99"/>
     <use x="280.498047" xlink:href="#DejaVuSans-100"/>
     <use x="343.974609" xlink:href="#DejaVuSans-115"/>
     <use x="396.074219" xlink:href="#DejaVuSans-32"/>
     <use x="427.861328" xlink:href="#DejaVuSans-105"/>
     <use x="455.644531" xlink:href="#DejaVuSans-110"/>
     <use x="519.023438" xlink:href="#DejaVuSans-116"/>
     <use x="558.232422" xlink:href="#DejaVuSans-114"/>
     <use x="597.095703" xlink:href="#DejaVuSans-111"/>
     <use x="658.277344" xlink:href="#DejaVuSans-110"/>
     <use x="721.65625" xlink:href="#DejaVuSans-32"/>
     <use x="753.443359" xlink:href="#DejaVuSans-67"/>
    </g>
   </g>
   <g id="text_13">
    <g id="patch_29">
     <path d="M 214.044572 351.265826 
L 303.247697 351.265826 
Q 306.547697 351.265826 306.547697 347.965826 
L 306.547697 337.319888 
Q 306.547697 334.019888 303.247697 334.019888 
L 214.044572 334.019888 
Q 210.744572 334.019888 210.744572 337.319888 
L 210.744572 347.965826 
Q 210.744572 351.265826 214.044572 351.265826 
z
" style="fill:#fbf3f6;stroke:#808080;stroke-linejoin:miter;stroke-width:0.3;"/>
    </g>
    <!-- LUC cds intron F -->
    <g transform="translate(214.044572 345.67817)scale(0.11 -0.11)">
     <defs>
      <path d="M 9.8125 72.90625 
L 51.703125 72.90625 
L 51.703125 64.59375 
L 19.671875 64.59375 
L 19.671875 43.109375 
L 48.578125 43.109375 
L 48.578125 34.8125 
L 19.671875 34.8125 
L 19.671875 0 
L 9.8125 0 
z
" id="DejaVuSans-70"/>
     </defs>
     <use xlink:href="#DejaVuSans-76"/>
     <use x="50.712891" xlink:href="#DejaVuSans-85"/>
     <use x="123.90625" xlink:href="#DejaVuSans-67"/>
     <use x="193.730469" xlink:href="#DejaVuSans-32"/>
     <use x="225.517578" xlink:href="#DejaVuSans-99"/>
     <use x="280.498047" xlink:href="#DejaVuSans-100"/>
     <use x="343.974609" xlink:href="#DejaVuSans-115"/>
     <use x="396.074219" xlink:href="#DejaVuSans-32"/>
     <use x="427.861328" xlink:href="#DejaVuSans-105"/>
     <use x="455.644531" xlink:href="#DejaVuSans-110"/>
     <use x="519.023438" xlink:href="#DejaVuSans-116"/>
     <use x="558.232422" xlink:href="#DejaVuSans-114"/>
     <use x="597.095703" xlink:href="#DejaVuSans-111"/>
     <use x="658.277344" xlink:href="#DejaVuSans-110"/>
     <use x="721.65625" xlink:href="#DejaVuSans-32"/>
     <use x="753.443359" xlink:href="#DejaVuSans-70"/>
    </g>
   </g>
   <g id="text_14">
    <g id="patch_30">
     <path d="M 133.204973 415.615826 
L 223.032004 415.615826 
Q 226.332004 415.615826 226.332004 412.315826 
L 226.332004 401.669888 
Q 226.332004 398.369888 223.032004 398.369888 
L 133.204973 398.369888 
Q 129.904973 398.369888 129.904973 401.669888 
L 129.904973 412.315826 
Q 129.904973 415.615826 133.204973 415.615826 
z
" style="fill:#fbf3f6;stroke:#808080;stroke-linejoin:miter;stroke-width:0.3;"/>
    </g>
    <!-- LUC cds intron E -->
    <g transform="translate(133.204973 410.02817)scale(0.11 -0.11)">
     <defs>
      <path d="M 9.8125 72.90625 
L 55.90625 72.90625 
L 55.90625 64.59375 
L 19.671875 64.59375 
L 19.671875 43.015625 
L 54.390625 43.015625 
L 54.390625 34.71875 
L 19.671875 34.71875 
L 19.671875 8.296875 
L 56.78125 8.296875 
L 56.78125 0 
L 9.8125 0 
z
" id="DejaVuSans-69"/>
     </defs>
     <use xlink:href="#DejaVuSans-76"/>
     <use x="50.712891" xlink:href="#DejaVuSans-85"/>
     <use x="123.90625" xlink:href="#DejaVuSans-67"/>
     <use x="193.730469" xlink:href="#DejaVuSans-32"/>
     <use x="225.517578" xlink:href="#DejaVuSans-99"/>
     <use x="280.498047" xlink:href="#DejaVuSans-100"/>
     <use x="343.974609" xlink:href="#DejaVuSans-115"/>
     <use x="396.074219" xlink:href="#DejaVuSans-32"/>
     <use x="427.861328" xlink:href="#DejaVuSans-105"/>
     <use x="455.644531" xlink:href="#DejaVuSans-110"/>
     <use x="519.023438" xlink:href="#DejaVuSans-116"/>
     <use x="558.232422" xlink:href="#DejaVuSans-114"/>
     <use x="597.095703" xlink:href="#DejaVuSans-111"/>
     <use x="658.277344" xlink:href="#DejaVuSans-110"/>
     <use x="721.65625" xlink:href="#DejaVuSans-32"/>
     <use x="753.443359" xlink:href="#DejaVuSans-69"/>
    </g>
   </g>
  </g>
 </g>
 <defs>
  <clipPath id="pbc0ba5a178">
   <rect height="1042.47" width="720.72" x="119.34" y="162.462857"/>
  </clipPath>
 </defs>
</svg>
