<?xml version="1.0" encoding="utf-8" standalone="no"?>
<!DOCTYPE svg PUBLIC "-//W3C//DTD SVG 1.1//EN"
  "http://www.w3.org/Graphics/SVG/1.1/DTD/svg11.dtd">
<!-- Created with matplotlib (https://matplotlib.org/) -->
<svg height="457.92pt" version="1.1" viewBox="0 0 342.793386 457.92" width="342.793386pt" xmlns="http://www.w3.org/2000/svg" xmlns:xlink="http://www.w3.org/1999/xlink">
 <metadata>
  <rdf:RDF xmlns:cc="http://creativecommons.org/ns#" xmlns:dc="http://purl.org/dc/elements/1.1/" xmlns:rdf="http://www.w3.org/1999/02/22-rdf-syntax-ns#">
   <cc:Work>
    <dc:type rdf:resource="http://purl.org/dc/dcmitype/StillImage"/>
    <dc:date>2021-04-05T17:25:55.599034</dc:date>
    <dc:format>image/svg+xml</dc:format>
    <dc:creator>
     <cc:Agent>
      <dc:title>Matplotlib v3.3.3, https://matplotlib.org/</dc:title>
     </cc:Agent>
    </dc:creator>
   </cc:Work>
  </rdf:RDF>
 </metadata>
 <defs>
  <style type="text/css">*{stroke-linecap:butt;stroke-linejoin:round;}</style>
 </defs>
 <g id="figure_1">
  <g id="patch_1">
   <path d="M 0 457.92 
L 342.793386 457.92 
L 342.793386 0 
L 0 0 
z
" style="fill:#ffffff;"/>
  </g>
  <g id="axes_1">
   <g id="line2d_1">
    <path clip-path="url(#pe9401237f2)" d="M 150.606142 156.75907 
L 150.606142 407.010454 
" style="fill:none;stroke:#000000;stroke-linecap:square;stroke-width:0.5;"/>
   </g>
   <g id="line2d_2">
    <path clip-path="url(#pe9401237f2)" d="M 54.9386 79.40093 
L 54.9386 343.604291 
" style="fill:none;stroke:#000000;stroke-linecap:square;stroke-width:0.5;"/>
   </g>
   <g id="line2d_3">
    <path clip-path="url(#pe9401237f2)" d="M 256.630127 79.40093 
L 256.630127 397.528844 
" style="fill:none;stroke:#000000;stroke-linecap:square;stroke-width:0.5;"/>
   </g>
   <g id="line2d_4">
    <path clip-path="url(#pe9401237f2)" d="M 142.806058 105.186977 
L 142.806058 426.361403 
" style="fill:none;stroke:#000000;stroke-linecap:square;stroke-width:0.5;"/>
   </g>
   <g id="line2d_5">
    <path clip-path="url(#pe9401237f2)" d="M 296.712406 79.40093 
L 296.712406 303.95622 
" style="fill:none;stroke:#000000;stroke-linecap:square;stroke-width:0.5;"/>
   </g>
   <g id="line2d_6">
    <path clip-path="url(#pe9401237f2)" d="M 63.921668 53.614884 
L 63.921668 247.752071 
" style="fill:none;stroke:#000000;stroke-linecap:square;stroke-width:0.5;"/>
   </g>
   <g id="line2d_7">
    <path clip-path="url(#pe9401237f2)" d="M 108.530456 130.973023 
L 108.530456 200.637737 
" style="fill:none;stroke:#000000;stroke-linecap:square;stroke-width:0.5;"/>
   </g>
   <g id="line2d_8">
    <path clip-path="url(#pe9401237f2)" d="M 274.503741 105.186977 
L 274.503741 235.543709 
" style="fill:none;stroke:#000000;stroke-linecap:square;stroke-width:0.5;"/>
   </g>
   <g id="line2d_9">
    <path clip-path="url(#pe9401237f2)" d="M 288.454538 130.973023 
L 288.454538 261.807279 
" style="fill:none;stroke:#000000;stroke-linecap:square;stroke-width:0.5;"/>
   </g>
   <g id="line2d_10">
    <path clip-path="url(#pe9401237f2)" d="M 290.381667 156.75907 
L 290.381667 345.463566 
" style="fill:none;stroke:#000000;stroke-linecap:square;stroke-width:0.5;"/>
   </g>
   <g id="line2d_11">
    <path clip-path="url(#pe9401237f2)" d="M 90.137568 156.75907 
L 90.137568 398.295788 
" style="fill:none;stroke:#000000;stroke-linecap:square;stroke-width:0.5;"/>
   </g>
   <g id="line2d_12">
    <path clip-path="url(#pe9401237f2)" d="M 202.327177 156.75907 
L 202.327177 426.557247 
" style="fill:none;stroke:#000000;stroke-linecap:square;stroke-width:0.5;"/>
   </g>
   <g id="line2d_13">
    <path clip-path="url(#pe9401237f2)" d="M 84.382197 105.186977 
L 84.382197 219.869347 
" style="fill:none;stroke:#000000;stroke-linecap:square;stroke-width:0.5;"/>
   </g>
   <g id="line2d_14">
    <path clip-path="url(#pe9401237f2)" d="M 52.113516 130.973023 
L 52.113516 279.570725 
" style="fill:none;stroke:#000000;stroke-linecap:square;stroke-width:0.5;"/>
   </g>
   <g id="patch_2">
    <path clip-path="url(#pe9401237f2)" d="M 172.961921 409.462326 
C 200.316079 409.462326 226.553564 398.594403 245.895874 379.252093 
C 265.238185 359.909782 276.106107 333.672297 276.106107 306.31814 
C 276.106107 278.963982 265.238185 252.726497 245.895874 233.384186 
C 226.553564 214.041876 200.316079 203.173953 172.961921 203.173953 
C 145.607763 203.173953 119.370278 214.041876 100.027968 233.384186 
C 80.685657 252.726497 69.817735 278.963982 69.817735 306.31814 
C 69.817735 333.672297 80.685657 359.909782 100.027968 379.252093 
C 119.370278 398.594403 145.607763 409.462326 172.961921 409.462326 
z
" style="fill:none;stroke:#000000;stroke-linejoin:miter;"/>
   </g>
   <g id="patch_3">
    <path clip-path="url(#pe9401237f2)" d="M 251.945508 229.234633 
C 260.056553 237.545612 266.80523 247.084965 271.942069 257.500065 
C 277.078908 267.915165 280.539826 279.076077 282.196885 290.570231 
C 283.853945 302.064385 283.686475 313.748385 281.700666 325.190325 
C 279.714857 336.632265 275.935483 347.689399 270.50225 357.952995 
C 265.069017 368.216592 258.049709 377.558605 249.703798 385.633702 
C 241.357887 393.708799 231.789493 400.416239 221.352318 405.508076 
C 210.915144 410.599914 199.739398 414.012625 188.238198 415.620058 
C 176.736999 417.227491 165.053831 417.009592 153.620569 414.974415 
C 142.187307 412.939238 131.146588 409.112174 120.906539 403.634691 
C 110.666489 398.157209 101.35486 391.097644 93.315861 382.716956 
C 85.276862 374.336269 78.610784 364.739014 73.564044 354.279959 
C 68.517303 343.820904 65.15286 332.630532 63.595084 321.122501 
C 62.037308 309.614471 62.305633 297.932352 64.39014 286.507981 
C 66.474646 275.08361 70.349329 264.059512 75.870959 253.8432 
C 81.392589 243.626888 88.49228 234.345817 96.907587 226.343066 
C 105.322895 218.340315 114.948833 211.715723 125.429574 206.714173 
L 125.429574 206.714173 
L 136.821346 209.71285 
L 131.648759 219.746468 
L 131.648759 219.746468 
C 122.539331 224.09361 114.172861 229.851432 106.858622 236.807094 
C 99.544382 243.762756 93.373623 251.829482 88.57445 260.70908 
C 83.775276 269.588678 80.407561 279.170371 78.595793 289.099965 
C 76.784026 299.029558 76.550809 309.183176 77.904764 319.185482 
C 79.258719 329.187789 82.182954 338.914 86.569373 348.00458 
C 90.955793 357.095161 96.749673 365.436701 103.736841 372.72085 
C 110.724008 380.004998 118.817293 386.140882 127.717523 390.901685 
C 136.617753 395.662487 146.213892 398.988814 156.151213 400.757706 
C 166.088534 402.526598 176.243064 402.715987 186.239433 401.318873 
C 196.235803 399.921758 205.949301 396.955569 215.020865 392.529954 
C 224.092428 388.104338 232.408882 382.274507 239.662804 375.255965 
C 246.916727 368.237422 253.017621 360.117729 257.739964 351.197033 
C 262.462306 342.276337 265.747183 332.66593 267.473167 322.721067 
C 269.199151 312.776203 269.344709 302.620951 267.90446 292.630705 
C 266.464212 282.640459 263.456125 272.939853 258.991396 263.887477 
C 254.526666 254.8351 248.660994 246.543887 241.611207 239.320325 
L 241.611207 239.320325 
z
" style="fill:#f6870d;stroke:#000000;stroke-linejoin:miter;"/>
   </g>
   <g id="patch_4">
    <path clip-path="url(#pe9401237f2)" d="M 79.094713 397.686317 
C 66.145754 384.383188 56.171545 368.47804 49.835113 351.028158 
C 43.498682 333.578275 40.943614 314.979076 42.339755 296.46693 
L 42.339755 296.46693 
L 50.820328 286.288349 
L 56.739049 297.55289 
L 56.739049 297.55289 
C 55.496813 314.024327 57.77022 330.573221 63.408147 346.099494 
C 69.046074 361.625768 77.920765 375.777592 89.442279 387.614234 
L 89.442279 387.614234 
z
" style="fill:#00008b;stroke:#000000;stroke-linejoin:miter;"/>
   </g>
   <g id="patch_5">
    <path clip-path="url(#pe9401237f2)" d="M 294.107116 356.148233 
C 287.508921 372.189536 277.789826 386.7617 265.515207 399.017038 
C 253.240588 411.272376 238.653163 420.968551 222.601507 427.54152 
L 222.601507 427.54152 
L 209.704011 424.511964 
L 217.129427 414.178313 
L 217.129427 414.178313 
C 231.411609 408.329923 244.390971 399.702617 255.312483 388.798262 
C 266.233994 377.893906 274.881693 364.928122 280.752528 350.655151 
L 280.752528 350.655151 
z
" style="fill:#00008b;stroke:#000000;stroke-linejoin:miter;"/>
   </g>
   <g id="patch_6">
    <path clip-path="url(#pe9401237f2)" d="M 195.774661 435.309517 
C 179.436943 438.19892 162.698038 437.958251 146.450143 434.600337 
C 130.202247 431.242423 114.739257 424.828003 100.885361 415.69897 
L 100.885361 415.69897 
L 96.109523 403.341179 
L 108.830808 403.64124 
L 108.830808 403.64124 
C 121.157504 411.763923 134.915912 417.471242 149.372701 420.458992 
C 163.82949 423.446743 178.723161 423.660881 193.259871 421.089995 
L 193.259871 421.089995 
z
" style="fill:#00008b;stroke:#000000;stroke-linejoin:miter;"/>
   </g>
   <g id="patch_7">
    <path clip-path="url(#pe9401237f2)" d="M 298.42812 268.669376 
C 301.319226 278.304116 303.090934 288.239889 303.708188 298.280093 
C 304.325442 308.320297 303.784143 318.39827 302.095001 328.314595 
L 302.095001 328.314595 
L 292.701675 337.657455 
L 287.859859 325.889789 
L 287.859859 325.889789 
C 289.362795 317.066602 289.844424 308.099587 289.295214 299.166177 
C 288.746004 290.232767 287.169602 281.392276 284.597201 272.819633 
L 284.597201 272.819633 
z
" style="fill:#00008b;stroke:#000000;stroke-linejoin:miter;"/>
   </g>
   <g id="patch_8">
    <path clip-path="url(#pe9401237f2)" d="M 46.916788 270.655541 
C 48.996571 263.304801 51.715397 256.150064 55.042163 249.273182 
C 58.368929 242.3963 62.2909 235.823597 66.763208 229.630267 
L 66.763208 229.630267 
L 79.313915 225.387229 
L 78.470153 238.084048 
L 78.470153 238.084048 
C 74.490855 243.594649 71.001227 249.442802 68.041192 255.561602 
C 65.081156 261.680403 62.662042 268.046429 60.811527 274.586851 
L 60.811527 274.586851 
z
" style="fill:#00008b;stroke:#000000;stroke-linejoin:miter;"/>
   </g>
   <g id="patch_9">
    <path clip-path="url(#pe9401237f2)" d="M 85.178107 209.090579 
C 89.865633 204.858354 94.853093 200.970657 100.101452 197.457915 
C 105.34981 193.945173 110.845338 190.816576 116.545023 188.09661 
L 116.545023 188.09661 
L 129.593232 190.391792 
L 122.764208 201.128904 
L 122.764208 201.128904 
C 117.692835 203.549032 112.803114 206.332744 108.133314 209.458255 
C 103.463515 212.583765 99.025854 216.042897 94.855063 219.808578 
L 94.855063 219.808578 
z
" style="fill:#00008b;stroke:#000000;stroke-linejoin:miter;"/>
   </g>
   <g id="patch_10">
    <path clip-path="url(#pe9401237f2)" d="M 266.708796 214.826501 
C 270.436673 218.646268 273.92761 222.69031 277.162078 226.936002 
C 280.396547 231.181694 283.368505 235.621106 286.061326 240.229403 
L 286.061326 240.229403 
L 284.863377 253.423665 
L 273.593675 247.514776 
L 273.593675 247.514776 
C 271.1977 243.41448 268.55336 239.464452 265.675447 235.686789 
C 262.797534 231.909125 259.691424 228.310884 256.374494 224.912193 
L 256.374494 224.912193 
z
" style="fill:#00008b;stroke:#000000;stroke-linejoin:miter;"/>
   </g>
   <g id="patch_11">
    <path clip-path="url(#pe9401237f2)" d="M 291.390962 250.338154 
C 292.090911 251.818939 292.763026 253.312721 293.406952 254.818713 
C 294.050879 256.324705 294.666503 257.842642 295.253501 259.371723 
L 295.253501 259.371723 
L 291.51266 270.744505 
L 281.772539 264.546918 
L 281.772539 264.546918 
C 281.25025 263.186398 280.70249 261.835793 280.129547 260.495815 
C 279.556605 259.155838 278.958581 257.826725 278.335792 256.509176 
L 278.335792 256.509176 
z
" style="fill:#fbf3f6;stroke:#000000;stroke-linejoin:miter;"/>
   </g>
   <g id="patch_12">
    <path clip-path="url(#pe9401237f2)" d="M 299.686494 339.485581 
C 299.315438 340.903291 298.920619 342.314675 298.502201 343.719136 
C 298.083784 345.123597 297.641828 346.520937 297.176519 347.910567 
L 297.176519 347.910567 
L 287.429822 353.401692 
L 283.483572 343.325575 
L 283.483572 343.325575 
C 283.897586 342.089133 284.290823 340.84583 284.663115 339.596191 
C 285.035408 338.346553 285.386704 337.090755 285.716856 335.829328 
L 285.716856 335.829328 
z
" style="fill:#fbf3f6;stroke:#000000;stroke-linejoin:miter;"/>
   </g>
   <g id="patch_13">
    <path clip-path="url(#pe9401237f2)" d="M 91.626466 409.000856 
C 90.522772 408.126615 89.433244 407.234635 88.358308 406.325265 
C 87.283372 405.415895 86.223167 404.489253 85.178107 403.5457 
L 85.178107 403.5457 
L 84.268496 392.650275 
L 94.855063 392.827701 
L 94.855063 392.827701 
C 95.784919 393.66724 96.728251 394.491733 97.68469 395.300857 
C 98.641129 396.109982 99.610552 396.903633 100.59258 397.681502 
L 100.59258 397.681502 
z
" style="fill:#fbf3f6;stroke:#000000;stroke-linejoin:miter;"/>
   </g>
   <g id="patch_14">
    <path clip-path="url(#pe9401237f2)" d="M 211.8473 431.406603 
C 210.530215 431.816036 209.206746 432.204642 207.877388 432.572275 
C 206.548029 432.939908 205.212948 433.286522 203.872642 433.611988 
L 203.872642 433.611988 
L 194.517266 428.199756 
L 200.465161 419.579595 
L 200.465161 419.579595 
C 201.657716 419.290007 202.845624 418.981603 204.028439 418.654496 
C 205.211254 418.32739 206.388829 417.981623 207.560723 417.617324 
L 207.560723 417.617324 
z
" style="fill:#fbf3f6;stroke:#000000;stroke-linejoin:miter;"/>
   </g>
   <g id="patch_15">
    <path clip-path="url(#pe9401237f2)" d="M 73.851115 220.666259 
C 74.734173 219.644441 75.632982 218.63634 76.547217 217.642318 
C 77.461452 216.648296 78.391005 215.668472 79.335542 214.703197 
L 79.335542 214.703197 
L 90.016585 214.449578 
L 89.65656 224.802482 
L 89.65656 224.802482 
C 88.816145 225.661349 87.989063 226.533161 87.175609 227.417605 
C 86.362156 228.30205 85.562429 229.199022 84.776715 230.108199 
L 84.776715 230.108199 
z
" style="fill:#fbf3f6;stroke:#000000;stroke-linejoin:miter;"/>
   </g>
   <g id="patch_16">
    <path clip-path="url(#pe9401237f2)" d="M 43.695401 285.119945 
C 43.895351 283.900652 44.112542 282.68425 44.346909 281.471102 
C 44.581276 280.257955 44.832796 279.048184 45.101393 277.842153 
L 45.101393 277.842153 
L 53.864157 272.621196 
L 59.196254 280.981239 
L 59.196254 280.981239 
C 58.957266 282.054321 58.733473 283.130731 58.524942 284.210146 
C 58.316411 285.28956 58.123162 286.371871 57.945254 287.456754 
L 57.945254 287.456754 
z
" style="fill:#fbf3f6;stroke:#000000;stroke-linejoin:miter;"/>
   </g>
   <g id="text_1">
    <g id="patch_17">
     <path d="M 122.398876 165.382039 
L 178.813407 165.382039 
Q 182.113407 165.382039 182.113407 162.082039 
L 182.113407 151.436101 
Q 182.113407 148.136101 178.813407 148.136101 
L 122.398876 148.136101 
Q 119.098876 148.136101 119.098876 151.436101 
L 119.098876 162.082039 
Q 119.098876 165.382039 122.398876 165.382039 
z
" style="fill:#fef3e6;stroke:#808080;stroke-linejoin:miter;stroke-width:0.3;"/>
    </g>
    <!-- Luciferase -->
    <g transform="translate(122.398876 159.794382)scale(0.11 -0.11)">
     <defs>
      <path d="M 9.8125 72.90625 
L 19.671875 72.90625 
L 19.671875 8.296875 
L 55.171875 8.296875 
L 55.171875 0 
L 9.8125 0 
z
" id="DejaVuSans-76"/>
      <path d="M 8.5 21.578125 
L 8.5 54.6875 
L 17.484375 54.6875 
L 17.484375 21.921875 
Q 17.484375 14.15625 20.5 10.265625 
Q 23.53125 6.390625 29.59375 6.390625 
Q 36.859375 6.390625 41.078125 11.03125 
Q 45.3125 15.671875 45.3125 23.6875 
L 45.3125 54.6875 
L 54.296875 54.6875 
L 54.296875 0 
L 45.3125 0 
L 45.3125 8.40625 
Q 42.046875 3.421875 37.71875 1 
Q 33.40625 -1.421875 27.6875 -1.421875 
Q 18.265625 -1.421875 13.375 4.4375 
Q 8.5 10.296875 8.5 21.578125 
z
M 31.109375 56 
z
" id="DejaVuSans-117"/>
      <path d="M 48.78125 52.59375 
L 48.78125 44.1875 
Q 44.96875 46.296875 41.140625 47.34375 
Q 37.3125 48.390625 33.40625 48.390625 
Q 24.65625 48.390625 19.8125 42.84375 
Q 14.984375 37.3125 14.984375 27.296875 
Q 14.984375 17.28125 19.8125 11.734375 
Q 24.65625 6.203125 33.40625 6.203125 
Q 37.3125 6.203125 41.140625 7.25 
Q 44.96875 8.296875 48.78125 10.40625 
L 48.78125 2.09375 
Q 45.015625 0.34375 40.984375 -0.53125 
Q 36.96875 -1.421875 32.421875 -1.421875 
Q 20.0625 -1.421875 12.78125 6.34375 
Q 5.515625 14.109375 5.515625 27.296875 
Q 5.515625 40.671875 12.859375 48.328125 
Q 20.21875 56 33.015625 56 
Q 37.15625 56 41.109375 55.140625 
Q 45.0625 54.296875 48.78125 52.59375 
z
" id="DejaVuSans-99"/>
      <path d="M 9.421875 54.6875 
L 18.40625 54.6875 
L 18.40625 0 
L 9.421875 0 
z
M 9.421875 75.984375 
L 18.40625 75.984375 
L 18.40625 64.59375 
L 9.421875 64.59375 
z
" id="DejaVuSans-105"/>
      <path d="M 37.109375 75.984375 
L 37.109375 68.5 
L 28.515625 68.5 
Q 23.6875 68.5 21.796875 66.546875 
Q 19.921875 64.59375 19.921875 59.515625 
L 19.921875 54.6875 
L 34.71875 54.6875 
L 34.71875 47.703125 
L 19.921875 47.703125 
L 19.921875 0 
L 10.890625 0 
L 10.890625 47.703125 
L 2.296875 47.703125 
L 2.296875 54.6875 
L 10.890625 54.6875 
L 10.890625 58.5 
Q 10.890625 67.625 15.140625 71.796875 
Q 19.390625 75.984375 28.609375 75.984375 
z
" id="DejaVuSans-102"/>
      <path d="M 56.203125 29.59375 
L 56.203125 25.203125 
L 14.890625 25.203125 
Q 15.484375 15.921875 20.484375 11.0625 
Q 25.484375 6.203125 34.421875 6.203125 
Q 39.59375 6.203125 44.453125 7.46875 
Q 49.3125 8.734375 54.109375 11.28125 
L 54.109375 2.78125 
Q 49.265625 0.734375 44.1875 -0.34375 
Q 39.109375 -1.421875 33.890625 -1.421875 
Q 20.796875 -1.421875 13.15625 6.1875 
Q 5.515625 13.8125 5.515625 26.8125 
Q 5.515625 40.234375 12.765625 48.109375 
Q 20.015625 56 32.328125 56 
Q 43.359375 56 49.78125 48.890625 
Q 56.203125 41.796875 56.203125 29.59375 
z
M 47.21875 32.234375 
Q 47.125 39.59375 43.09375 43.984375 
Q 39.0625 48.390625 32.421875 48.390625 
Q 24.90625 48.390625 20.390625 44.140625 
Q 15.875 39.890625 15.1875 32.171875 
z
" id="DejaVuSans-101"/>
      <path d="M 41.109375 46.296875 
Q 39.59375 47.171875 37.8125 47.578125 
Q 36.03125 48 33.890625 48 
Q 26.265625 48 22.1875 43.046875 
Q 18.109375 38.09375 18.109375 28.8125 
L 18.109375 0 
L 9.078125 0 
L 9.078125 54.6875 
L 18.109375 54.6875 
L 18.109375 46.1875 
Q 20.953125 51.171875 25.484375 53.578125 
Q 30.03125 56 36.53125 56 
Q 37.453125 56 38.578125 55.875 
Q 39.703125 55.765625 41.0625 55.515625 
z
" id="DejaVuSans-114"/>
      <path d="M 34.28125 27.484375 
Q 23.390625 27.484375 19.1875 25 
Q 14.984375 22.515625 14.984375 16.5 
Q 14.984375 11.71875 18.140625 8.90625 
Q 21.296875 6.109375 26.703125 6.109375 
Q 34.1875 6.109375 38.703125 11.40625 
Q 43.21875 16.703125 43.21875 25.484375 
L 43.21875 27.484375 
z
M 52.203125 31.203125 
L 52.203125 0 
L 43.21875 0 
L 43.21875 8.296875 
Q 40.140625 3.328125 35.546875 0.953125 
Q 30.953125 -1.421875 24.3125 -1.421875 
Q 15.921875 -1.421875 10.953125 3.296875 
Q 6 8.015625 6 15.921875 
Q 6 25.140625 12.171875 29.828125 
Q 18.359375 34.515625 30.609375 34.515625 
L 43.21875 34.515625 
L 43.21875 35.40625 
Q 43.21875 41.609375 39.140625 45 
Q 35.0625 48.390625 27.6875 48.390625 
Q 23 48.390625 18.546875 47.265625 
Q 14.109375 46.140625 10.015625 43.890625 
L 10.015625 52.203125 
Q 14.9375 54.109375 19.578125 55.046875 
Q 24.21875 56 28.609375 56 
Q 40.484375 56 46.34375 49.84375 
Q 52.203125 43.703125 52.203125 31.203125 
z
" id="DejaVuSans-97"/>
      <path d="M 44.28125 53.078125 
L 44.28125 44.578125 
Q 40.484375 46.53125 36.375 47.5 
Q 32.28125 48.484375 27.875 48.484375 
Q 21.1875 48.484375 17.84375 46.4375 
Q 14.5 44.390625 14.5 40.28125 
Q 14.5 37.15625 16.890625 35.375 
Q 19.28125 33.59375 26.515625 31.984375 
L 29.59375 31.296875 
Q 39.15625 29.25 43.1875 25.515625 
Q 47.21875 21.78125 47.21875 15.09375 
Q 47.21875 7.46875 41.1875 3.015625 
Q 35.15625 -1.421875 24.609375 -1.421875 
Q 20.21875 -1.421875 15.453125 -0.5625 
Q 10.6875 0.296875 5.421875 2 
L 5.421875 11.28125 
Q 10.40625 8.6875 15.234375 7.390625 
Q 20.0625 6.109375 24.8125 6.109375 
Q 31.15625 6.109375 34.5625 8.28125 
Q 37.984375 10.453125 37.984375 14.40625 
Q 37.984375 18.0625 35.515625 20.015625 
Q 33.0625 21.96875 24.703125 23.78125 
L 21.578125 24.515625 
Q 13.234375 26.265625 9.515625 29.90625 
Q 5.8125 33.546875 5.8125 39.890625 
Q 5.8125 47.609375 11.28125 51.796875 
Q 16.75 56 26.8125 56 
Q 31.78125 56 36.171875 55.265625 
Q 40.578125 54.546875 44.28125 53.078125 
z
" id="DejaVuSans-115"/>
     </defs>
     <use xlink:href="#DejaVuSans-76"/>
     <use x="53.962891" xlink:href="#DejaVuSans-117"/>
     <use x="117.341797" xlink:href="#DejaVuSans-99"/>
     <use x="172.322266" xlink:href="#DejaVuSans-105"/>
     <use x="200.105469" xlink:href="#DejaVuSans-102"/>
     <use x="235.310547" xlink:href="#DejaVuSans-101"/>
     <use x="296.833984" xlink:href="#DejaVuSans-114"/>
     <use x="337.947266" xlink:href="#DejaVuSans-97"/>
     <use x="399.226562" xlink:href="#DejaVuSans-115"/>
     <use x="451.326172" xlink:href="#DejaVuSans-101"/>
    </g>
   </g>
   <g id="text_2">
    <g id="patch_18">
     <path d="M 41.716257 88.023899 
L 68.160944 88.023899 
Q 71.460944 88.023899 71.460944 84.723899 
L 71.460944 74.077961 
Q 71.460944 70.777961 68.160944 70.777961 
L 41.716257 70.777961 
Q 38.416257 70.777961 38.416257 74.077961 
L 38.416257 84.723899 
Q 38.416257 88.023899 41.716257 88.023899 
z
" style="fill:#e5e5ff;stroke:#808080;stroke-linejoin:miter;stroke-width:0.3;"/>
    </g>
    <!-- exon -->
    <g transform="translate(41.716257 82.436243)scale(0.11 -0.11)">
     <defs>
      <path d="M 54.890625 54.6875 
L 35.109375 28.078125 
L 55.90625 0 
L 45.3125 0 
L 29.390625 21.484375 
L 13.484375 0 
L 2.875 0 
L 24.125 28.609375 
L 4.6875 54.6875 
L 15.28125 54.6875 
L 29.78125 35.203125 
L 44.28125 54.6875 
z
" id="DejaVuSans-120"/>
      <path d="M 30.609375 48.390625 
Q 23.390625 48.390625 19.1875 42.75 
Q 14.984375 37.109375 14.984375 27.296875 
Q 14.984375 17.484375 19.15625 11.84375 
Q 23.34375 6.203125 30.609375 6.203125 
Q 37.796875 6.203125 41.984375 11.859375 
Q 46.1875 17.53125 46.1875 27.296875 
Q 46.1875 37.015625 41.984375 42.703125 
Q 37.796875 48.390625 30.609375 48.390625 
z
M 30.609375 56 
Q 42.328125 56 49.015625 48.375 
Q 55.71875 40.765625 55.71875 27.296875 
Q 55.71875 13.875 49.015625 6.21875 
Q 42.328125 -1.421875 30.609375 -1.421875 
Q 18.84375 -1.421875 12.171875 6.21875 
Q 5.515625 13.875 5.515625 27.296875 
Q 5.515625 40.765625 12.171875 48.375 
Q 18.84375 56 30.609375 56 
z
" id="DejaVuSans-111"/>
      <path d="M 54.890625 33.015625 
L 54.890625 0 
L 45.90625 0 
L 45.90625 32.71875 
Q 45.90625 40.484375 42.875 44.328125 
Q 39.84375 48.1875 33.796875 48.1875 
Q 26.515625 48.1875 22.3125 43.546875 
Q 18.109375 38.921875 18.109375 30.90625 
L 18.109375 0 
L 9.078125 0 
L 9.078125 54.6875 
L 18.109375 54.6875 
L 18.109375 46.1875 
Q 21.34375 51.125 25.703125 53.5625 
Q 30.078125 56 35.796875 56 
Q 45.21875 56 50.046875 50.171875 
Q 54.890625 44.34375 54.890625 33.015625 
z
" id="DejaVuSans-110"/>
     </defs>
     <use xlink:href="#DejaVuSans-101"/>
     <use x="59.773438" xlink:href="#DejaVuSans-120"/>
     <use x="115.828125" xlink:href="#DejaVuSans-111"/>
     <use x="177.009766" xlink:href="#DejaVuSans-110"/>
    </g>
   </g>
   <g id="text_3">
    <g id="patch_19">
     <path d="M 243.407783 88.023899 
L 269.85247 88.023899 
Q 273.15247 88.023899 273.15247 84.723899 
L 273.15247 74.077961 
Q 273.15247 70.777961 269.85247 70.777961 
L 243.407783 70.777961 
Q 240.107783 70.777961 240.107783 74.077961 
L 240.107783 84.723899 
Q 240.107783 88.023899 243.407783 88.023899 
z
" style="fill:#e5e5ff;stroke:#808080;stroke-linejoin:miter;stroke-width:0.3;"/>
    </g>
    <!-- exon -->
    <g transform="translate(243.407783 82.436243)scale(0.11 -0.11)">
     <use xlink:href="#DejaVuSans-101"/>
     <use x="59.773438" xlink:href="#DejaVuSans-120"/>
     <use x="115.828125" xlink:href="#DejaVuSans-111"/>
     <use x="177.009766" xlink:href="#DejaVuSans-110"/>
    </g>
   </g>
   <g id="text_4">
    <g id="patch_20">
     <path d="M 129.583714 113.809945 
L 156.028402 113.809945 
Q 159.328402 113.809945 159.328402 110.509945 
L 159.328402 99.864008 
Q 159.328402 96.564008 156.028402 96.564008 
L 129.583714 96.564008 
Q 126.283714 96.564008 126.283714 99.864008 
L 126.283714 110.509945 
Q 126.283714 113.809945 129.583714 113.809945 
z
" style="fill:#e5e5ff;stroke:#808080;stroke-linejoin:miter;stroke-width:0.3;"/>
    </g>
    <!-- exon -->
    <g transform="translate(129.583714 108.222289)scale(0.11 -0.11)">
     <use xlink:href="#DejaVuSans-101"/>
     <use x="59.773438" xlink:href="#DejaVuSans-120"/>
     <use x="115.828125" xlink:href="#DejaVuSans-111"/>
     <use x="177.009766" xlink:href="#DejaVuSans-110"/>
    </g>
   </g>
   <g id="text_5">
    <g id="patch_21">
     <path d="M 283.490063 88.023899 
L 309.93475 88.023899 
Q 313.23475 88.023899 313.23475 84.723899 
L 313.23475 74.077961 
Q 313.23475 70.777961 309.93475 70.777961 
L 283.490063 70.777961 
Q 280.190063 70.777961 280.190063 74.077961 
L 280.190063 84.723899 
Q 280.190063 88.023899 283.490063 88.023899 
z
" style="fill:#e5e5ff;stroke:#808080;stroke-linejoin:miter;stroke-width:0.3;"/>
    </g>
    <!-- exon -->
    <g transform="translate(283.490063 82.436243)scale(0.11 -0.11)">
     <use xlink:href="#DejaVuSans-101"/>
     <use x="59.773438" xlink:href="#DejaVuSans-120"/>
     <use x="115.828125" xlink:href="#DejaVuSans-111"/>
     <use x="177.009766" xlink:href="#DejaVuSans-110"/>
    </g>
   </g>
   <g id="text_6">
    <g id="patch_22">
     <path d="M 50.699324 62.237852 
L 77.144011 62.237852 
Q 80.444011 62.237852 80.444011 58.937852 
L 80.444011 48.291915 
Q 80.444011 44.991915 77.144011 44.991915 
L 50.699324 44.991915 
Q 47.399324 44.991915 47.399324 48.291915 
L 47.399324 58.937852 
Q 47.399324 62.237852 50.699324 62.237852 
z
" style="fill:#e5e5ff;stroke:#808080;stroke-linejoin:miter;stroke-width:0.3;"/>
    </g>
    <!-- exon -->
    <g transform="translate(50.699324 56.650196)scale(0.11 -0.11)">
     <use xlink:href="#DejaVuSans-101"/>
     <use x="59.773438" xlink:href="#DejaVuSans-120"/>
     <use x="115.828125" xlink:href="#DejaVuSans-111"/>
     <use x="177.009766" xlink:href="#DejaVuSans-110"/>
    </g>
   </g>
   <g id="text_7">
    <g id="patch_23">
     <path d="M 80.32319 139.595992 
L 136.737721 139.595992 
Q 140.037721 139.595992 140.037721 136.295992 
L 140.037721 125.650055 
Q 140.037721 122.350055 136.737721 122.350055 
L 80.32319 122.350055 
Q 77.02319 122.350055 77.02319 125.650055 
L 77.02319 136.295992 
Q 77.02319 139.595992 80.32319 139.595992 
z
" style="fill:#e5e5ff;stroke:#808080;stroke-linejoin:miter;stroke-width:0.3;"/>
    </g>
    <!-- Luciferase -->
    <g transform="translate(80.32319 134.008336)scale(0.11 -0.11)">
     <use xlink:href="#DejaVuSans-76"/>
     <use x="53.962891" xlink:href="#DejaVuSans-117"/>
     <use x="117.341797" xlink:href="#DejaVuSans-99"/>
     <use x="172.322266" xlink:href="#DejaVuSans-105"/>
     <use x="200.105469" xlink:href="#DejaVuSans-102"/>
     <use x="235.310547" xlink:href="#DejaVuSans-101"/>
     <use x="296.833984" xlink:href="#DejaVuSans-114"/>
     <use x="337.947266" xlink:href="#DejaVuSans-97"/>
     <use x="399.226562" xlink:href="#DejaVuSans-115"/>
     <use x="451.326172" xlink:href="#DejaVuSans-101"/>
    </g>
   </g>
   <g id="text_8">
    <g id="patch_24">
     <path d="M 246.296476 113.809945 
L 302.711007 113.809945 
Q 306.011007 113.809945 306.011007 110.509945 
L 306.011007 99.864008 
Q 306.011007 96.564008 302.711007 96.564008 
L 246.296476 96.564008 
Q 242.996476 96.564008 242.996476 99.864008 
L 242.996476 110.509945 
Q 242.996476 113.809945 246.296476 113.809945 
z
" style="fill:#e5e5ff;stroke:#808080;stroke-linejoin:miter;stroke-width:0.3;"/>
    </g>
    <!-- Luciferase -->
    <g transform="translate(246.296476 108.222289)scale(0.11 -0.11)">
     <use xlink:href="#DejaVuSans-76"/>
     <use x="53.962891" xlink:href="#DejaVuSans-117"/>
     <use x="117.341797" xlink:href="#DejaVuSans-99"/>
     <use x="172.322266" xlink:href="#DejaVuSans-105"/>
     <use x="200.105469" xlink:href="#DejaVuSans-102"/>
     <use x="235.310547" xlink:href="#DejaVuSans-101"/>
     <use x="296.833984" xlink:href="#DejaVuSans-114"/>
     <use x="337.947266" xlink:href="#DejaVuSans-97"/>
     <use x="399.226562" xlink:href="#DejaVuSans-115"/>
     <use x="451.326172" xlink:href="#DejaVuSans-101"/>
    </g>
   </g>
   <g id="text_9">
    <g id="patch_25">
     <path d="M 243.253991 139.595992 
L 333.655085 139.595992 
Q 336.955085 139.595992 336.955085 136.295992 
L 336.955085 125.650055 
Q 336.955085 122.350055 333.655085 122.350055 
L 243.253991 122.350055 
Q 239.953991 122.350055 239.953991 125.650055 
L 239.953991 136.295992 
Q 239.953991 139.595992 243.253991 139.595992 
z
" style="fill:#fbf3f6;stroke:#808080;stroke-linejoin:miter;stroke-width:0.3;"/>
    </g>
    <!-- LUC cds intron A -->
    <g transform="translate(243.253991 134.008336)scale(0.11 -0.11)">
     <defs>
      <path d="M 8.6875 72.90625 
L 18.609375 72.90625 
L 18.609375 28.609375 
Q 18.609375 16.890625 22.84375 11.734375 
Q 27.09375 6.59375 36.625 6.59375 
Q 46.09375 6.59375 50.34375 11.734375 
Q 54.59375 16.890625 54.59375 28.609375 
L 54.59375 72.90625 
L 64.5 72.90625 
L 64.5 27.390625 
Q 64.5 13.140625 57.4375 5.859375 
Q 50.390625 -1.421875 36.625 -1.421875 
Q 22.796875 -1.421875 15.734375 5.859375 
Q 8.6875 13.140625 8.6875 27.390625 
z
" id="DejaVuSans-85"/>
      <path d="M 64.40625 67.28125 
L 64.40625 56.890625 
Q 59.421875 61.53125 53.78125 63.8125 
Q 48.140625 66.109375 41.796875 66.109375 
Q 29.296875 66.109375 22.65625 58.46875 
Q 16.015625 50.828125 16.015625 36.375 
Q 16.015625 21.96875 22.65625 14.328125 
Q 29.296875 6.6875 41.796875 6.6875 
Q 48.140625 6.6875 53.78125 8.984375 
Q 59.421875 11.28125 64.40625 15.921875 
L 64.40625 5.609375 
Q 59.234375 2.09375 53.4375 0.328125 
Q 47.65625 -1.421875 41.21875 -1.421875 
Q 24.65625 -1.421875 15.125 8.703125 
Q 5.609375 18.84375 5.609375 36.375 
Q 5.609375 53.953125 15.125 64.078125 
Q 24.65625 74.21875 41.21875 74.21875 
Q 47.75 74.21875 53.53125 72.484375 
Q 59.328125 70.75 64.40625 67.28125 
z
" id="DejaVuSans-67"/>
      <path id="DejaVuSans-32"/>
      <path d="M 45.40625 46.390625 
L 45.40625 75.984375 
L 54.390625 75.984375 
L 54.390625 0 
L 45.40625 0 
L 45.40625 8.203125 
Q 42.578125 3.328125 38.25 0.953125 
Q 33.9375 -1.421875 27.875 -1.421875 
Q 17.96875 -1.421875 11.734375 6.484375 
Q 5.515625 14.40625 5.515625 27.296875 
Q 5.515625 40.1875 11.734375 48.09375 
Q 17.96875 56 27.875 56 
Q 33.9375 56 38.25 53.625 
Q 42.578125 51.265625 45.40625 46.390625 
z
M 14.796875 27.296875 
Q 14.796875 17.390625 18.875 11.75 
Q 22.953125 6.109375 30.078125 6.109375 
Q 37.203125 6.109375 41.296875 11.75 
Q 45.40625 17.390625 45.40625 27.296875 
Q 45.40625 37.203125 41.296875 42.84375 
Q 37.203125 48.484375 30.078125 48.484375 
Q 22.953125 48.484375 18.875 42.84375 
Q 14.796875 37.203125 14.796875 27.296875 
z
" id="DejaVuSans-100"/>
      <path d="M 18.3125 70.21875 
L 18.3125 54.6875 
L 36.8125 54.6875 
L 36.8125 47.703125 
L 18.3125 47.703125 
L 18.3125 18.015625 
Q 18.3125 11.328125 20.140625 9.421875 
Q 21.96875 7.515625 27.59375 7.515625 
L 36.8125 7.515625 
L 36.8125 0 
L 27.59375 0 
Q 17.1875 0 13.234375 3.875 
Q 9.28125 7.765625 9.28125 18.015625 
L 9.28125 47.703125 
L 2.6875 47.703125 
L 2.6875 54.6875 
L 9.28125 54.6875 
L 9.28125 70.21875 
z
" id="DejaVuSans-116"/>
      <path d="M 34.1875 63.1875 
L 20.796875 26.90625 
L 47.609375 26.90625 
z
M 28.609375 72.90625 
L 39.796875 72.90625 
L 67.578125 0 
L 57.328125 0 
L 50.6875 18.703125 
L 17.828125 18.703125 
L 11.1875 0 
L 0.78125 0 
z
" id="DejaVuSans-65"/>
     </defs>
     <use xlink:href="#DejaVuSans-76"/>
     <use x="50.712891" xlink:href="#DejaVuSans-85"/>
     <use x="123.90625" xlink:href="#DejaVuSans-67"/>
     <use x="193.730469" xlink:href="#DejaVuSans-32"/>
     <use x="225.517578" xlink:href="#DejaVuSans-99"/>
     <use x="280.498047" xlink:href="#DejaVuSans-100"/>
     <use x="343.974609" xlink:href="#DejaVuSans-115"/>
     <use x="396.074219" xlink:href="#DejaVuSans-32"/>
     <use x="427.861328" xlink:href="#DejaVuSans-105"/>
     <use x="455.644531" xlink:href="#DejaVuSans-110"/>
     <use x="519.023438" xlink:href="#DejaVuSans-116"/>
     <use x="558.232422" xlink:href="#DejaVuSans-114"/>
     <use x="597.095703" xlink:href="#DejaVuSans-111"/>
     <use x="658.277344" xlink:href="#DejaVuSans-110"/>
     <use x="721.65625" xlink:href="#DejaVuSans-32"/>
     <use x="753.443359" xlink:href="#DejaVuSans-65"/>
    </g>
   </g>
   <g id="text_10">
    <g id="patch_26">
     <path d="M 245.169949 165.382039 
L 335.593386 165.382039 
Q 338.893386 165.382039 338.893386 162.082039 
L 338.893386 151.436101 
Q 338.893386 148.136101 335.593386 148.136101 
L 245.169949 148.136101 
Q 241.869949 148.136101 241.869949 151.436101 
L 241.869949 162.082039 
Q 241.869949 165.382039 245.169949 165.382039 
z
" style="fill:#fbf3f6;stroke:#808080;stroke-linejoin:miter;stroke-width:0.3;"/>
    </g>
    <!-- LUC cds intron B -->
    <g transform="translate(245.169949 159.794382)scale(0.11 -0.11)">
     <defs>
      <path d="M 19.671875 34.8125 
L 19.671875 8.109375 
L 35.5 8.109375 
Q 43.453125 8.109375 47.28125 11.40625 
Q 51.125 14.703125 51.125 21.484375 
Q 51.125 28.328125 47.28125 31.5625 
Q 43.453125 34.8125 35.5 34.8125 
z
M 19.671875 64.796875 
L 19.671875 42.828125 
L 34.28125 42.828125 
Q 41.5 42.828125 45.03125 45.53125 
Q 48.578125 48.25 48.578125 53.8125 
Q 48.578125 59.328125 45.03125 62.0625 
Q 41.5 64.796875 34.28125 64.796875 
z
M 9.8125 72.90625 
L 35.015625 72.90625 
Q 46.296875 72.90625 52.390625 68.21875 
Q 58.5 63.53125 58.5 54.890625 
Q 58.5 48.1875 55.375 44.234375 
Q 52.25 40.28125 46.1875 39.3125 
Q 53.46875 37.75 57.5 32.78125 
Q 61.53125 27.828125 61.53125 20.40625 
Q 61.53125 10.640625 54.890625 5.3125 
Q 48.25 0 35.984375 0 
L 9.8125 0 
z
" id="DejaVuSans-66"/>
     </defs>
     <use xlink:href="#DejaVuSans-76"/>
     <use x="50.712891" xlink:href="#DejaVuSans-85"/>
     <use x="123.90625" xlink:href="#DejaVuSans-67"/>
     <use x="193.730469" xlink:href="#DejaVuSans-32"/>
     <use x="225.517578" xlink:href="#DejaVuSans-99"/>
     <use x="280.498047" xlink:href="#DejaVuSans-100"/>
     <use x="343.974609" xlink:href="#DejaVuSans-115"/>
     <use x="396.074219" xlink:href="#DejaVuSans-32"/>
     <use x="427.861328" xlink:href="#DejaVuSans-105"/>
     <use x="455.644531" xlink:href="#DejaVuSans-110"/>
     <use x="519.023438" xlink:href="#DejaVuSans-116"/>
     <use x="558.232422" xlink:href="#DejaVuSans-114"/>
     <use x="597.095703" xlink:href="#DejaVuSans-111"/>
     <use x="658.277344" xlink:href="#DejaVuSans-110"/>
     <use x="721.65625" xlink:href="#DejaVuSans-32"/>
     <use x="753.443359" xlink:href="#DejaVuSans-66"/>
    </g>
   </g>
   <g id="text_11">
    <g id="patch_27">
     <path d="M 44.464365 165.382039 
L 135.810771 165.382039 
Q 139.110771 165.382039 139.110771 162.082039 
L 139.110771 151.436101 
Q 139.110771 148.136101 135.810771 148.136101 
L 44.464365 148.136101 
Q 41.164365 148.136101 41.164365 151.436101 
L 41.164365 162.082039 
Q 41.164365 165.382039 44.464365 165.382039 
z
" style="fill:#fbf3f6;stroke:#808080;stroke-linejoin:miter;stroke-width:0.3;"/>
    </g>
    <!-- LUC cds intron D -->
    <g transform="translate(44.464365 159.794382)scale(0.11 -0.11)">
     <defs>
      <path d="M 19.671875 64.796875 
L 19.671875 8.109375 
L 31.59375 8.109375 
Q 46.6875 8.109375 53.6875 14.9375 
Q 60.6875 21.78125 60.6875 36.53125 
Q 60.6875 51.171875 53.6875 57.984375 
Q 46.6875 64.796875 31.59375 64.796875 
z
M 9.8125 72.90625 
L 30.078125 72.90625 
Q 51.265625 72.90625 61.171875 64.09375 
Q 71.09375 55.28125 71.09375 36.53125 
Q 71.09375 17.671875 61.125 8.828125 
Q 51.171875 0 30.078125 0 
L 9.8125 0 
z
" id="DejaVuSans-68"/>
     </defs>
     <use xlink:href="#DejaVuSans-76"/>
     <use x="50.712891" xlink:href="#DejaVuSans-85"/>
     <use x="123.90625" xlink:href="#DejaVuSans-67"/>
     <use x="193.730469" xlink:href="#DejaVuSans-32"/>
     <use x="225.517578" xlink:href="#DejaVuSans-99"/>
     <use x="280.498047" xlink:href="#DejaVuSans-100"/>
     <use x="343.974609" xlink:href="#DejaVuSans-115"/>
     <use x="396.074219" xlink:href="#DejaVuSans-32"/>
     <use x="427.861328" xlink:href="#DejaVuSans-105"/>
     <use x="455.644531" xlink:href="#DejaVuSans-110"/>
     <use x="519.023438" xlink:href="#DejaVuSans-116"/>
     <use x="558.232422" xlink:href="#DejaVuSans-114"/>
     <use x="597.095703" xlink:href="#DejaVuSans-111"/>
     <use x="658.277344" xlink:href="#DejaVuSans-110"/>
     <use x="721.65625" xlink:href="#DejaVuSans-32"/>
     <use x="753.443359" xlink:href="#DejaVuSans-68"/>
    </g>
   </g>
   <g id="text_12">
    <g id="patch_28">
     <path d="M 157.048427 165.382039 
L 247.605927 165.382039 
Q 250.905927 165.382039 250.905927 162.082039 
L 250.905927 151.436101 
Q 250.905927 148.136101 247.605927 148.136101 
L 157.048427 148.136101 
Q 153.748427 148.136101 153.748427 151.436101 
L 153.748427 162.082039 
Q 153.748427 165.382039 157.048427 165.382039 
z
" style="fill:#fbf3f6;stroke:#808080;stroke-linejoin:miter;stroke-width:0.3;"/>
    </g>
    <!-- LUC cds intron C -->
    <g transform="translate(157.048427 159.794382)scale(0.11 -0.11)">
     <use xlink:href="#DejaVuSans-76"/>
     <use x="50.712891" xlink:href="#DejaVuSans-85"/>
     <use x="123.90625" xlink:href="#DejaVuSans-67"/>
     <use x="193.730469" xlink:href="#DejaVuSans-32"/>
     <use x="225.517578" xlink:href="#DejaVuSans-99"/>
     <use x="280.498047" xlink:href="#DejaVuSans-100"/>
     <use x="343.974609" xlink:href="#DejaVuSans-115"/>
     <use x="396.074219" xlink:href="#DejaVuSans-32"/>
     <use x="427.861328" xlink:href="#DejaVuSans-105"/>
     <use x="455.644531" xlink:href="#DejaVuSans-110"/>
     <use x="519.023438" xlink:href="#DejaVuSans-116"/>
     <use x="558.232422" xlink:href="#DejaVuSans-114"/>
     <use x="597.095703" xlink:href="#DejaVuSans-111"/>
     <use x="658.277344" xlink:href="#DejaVuSans-110"/>
     <use x="721.65625" xlink:href="#DejaVuSans-32"/>
     <use x="753.443359" xlink:href="#DejaVuSans-67"/>
    </g>
   </g>
   <g id="text_13">
    <g id="patch_29">
     <path d="M 39.780634 113.809945 
L 128.983759 113.809945 
Q 132.283759 113.809945 132.283759 110.509945 
L 132.283759 99.864008 
Q 132.283759 96.564008 128.983759 96.564008 
L 39.780634 96.564008 
Q 36.480634 96.564008 36.480634 99.864008 
L 36.480634 110.509945 
Q 36.480634 113.809945 39.780634 113.809945 
z
" style="fill:#fbf3f6;stroke:#808080;stroke-linejoin:miter;stroke-width:0.3;"/>
    </g>
    <!-- LUC cds intron F -->
    <g transform="translate(39.780634 108.222289)scale(0.11 -0.11)">
     <defs>
      <path d="M 9.8125 72.90625 
L 51.703125 72.90625 
L 51.703125 64.59375 
L 19.671875 64.59375 
L 19.671875 43.109375 
L 48.578125 43.109375 
L 48.578125 34.8125 
L 19.671875 34.8125 
L 19.671875 0 
L 9.8125 0 
z
" id="DejaVuSans-70"/>
     </defs>
     <use xlink:href="#DejaVuSans-76"/>
     <use x="50.712891" xlink:href="#DejaVuSans-85"/>
     <use x="123.90625" xlink:href="#DejaVuSans-67"/>
     <use x="193.730469" xlink:href="#DejaVuSans-32"/>
     <use x="225.517578" xlink:href="#DejaVuSans-99"/>
     <use x="280.498047" xlink:href="#DejaVuSans-100"/>
     <use x="343.974609" xlink:href="#DejaVuSans-115"/>
     <use x="396.074219" xlink:href="#DejaVuSans-32"/>
     <use x="427.861328" xlink:href="#DejaVuSans-105"/>
     <use x="455.644531" xlink:href="#DejaVuSans-110"/>
     <use x="519.023438" xlink:href="#DejaVuSans-116"/>
     <use x="558.232422" xlink:href="#DejaVuSans-114"/>
     <use x="597.095703" xlink:href="#DejaVuSans-111"/>
     <use x="658.277344" xlink:href="#DejaVuSans-110"/>
     <use x="721.65625" xlink:href="#DejaVuSans-32"/>
     <use x="753.443359" xlink:href="#DejaVuSans-70"/>
    </g>
   </g>
   <g id="text_14">
    <g id="patch_30">
     <path d="M 7.2 139.595992 
L 97.027031 139.595992 
Q 100.327031 139.595992 100.327031 136.295992 
L 100.327031 125.650055 
Q 100.327031 122.350055 97.027031 122.350055 
L 7.2 122.350055 
Q 3.9 122.350055 3.9 125.650055 
L 3.9 136.295992 
Q 3.9 139.595992 7.2 139.595992 
z
" style="fill:#fbf3f6;stroke:#808080;stroke-linejoin:miter;stroke-width:0.3;"/>
    </g>
    <!-- LUC cds intron E -->
    <g transform="translate(7.2 134.008336)scale(0.11 -0.11)">
     <defs>
      <path d="M 9.8125 72.90625 
L 55.90625 72.90625 
L 55.90625 64.59375 
L 19.671875 64.59375 
L 19.671875 43.015625 
L 54.390625 43.015625 
L 54.390625 34.71875 
L 19.671875 34.71875 
L 19.671875 8.296875 
L 56.78125 8.296875 
L 56.78125 0 
L 9.8125 0 
z
" id="DejaVuSans-69"/>
     </defs>
     <use xlink:href="#DejaVuSans-76"/>
     <use x="50.712891" xlink:href="#DejaVuSans-85"/>
     <use x="123.90625" xlink:href="#DejaVuSans-67"/>
     <use x="193.730469" xlink:href="#DejaVuSans-32"/>
     <use x="225.517578" xlink:href="#DejaVuSans-99"/>
     <use x="280.498047" xlink:href="#DejaVuSans-100"/>
     <use x="343.974609" xlink:href="#DejaVuSans-115"/>
     <use x="396.074219" xlink:href="#DejaVuSans-32"/>
     <use x="427.861328" xlink:href="#DejaVuSans-105"/>
     <use x="455.644531" xlink:href="#DejaVuSans-110"/>
     <use x="519.023438" xlink:href="#DejaVuSans-116"/>
     <use x="558.232422" xlink:href="#DejaVuSans-114"/>
     <use x="597.095703" xlink:href="#DejaVuSans-111"/>
     <use x="658.277344" xlink:href="#DejaVuSans-110"/>
     <use x="721.65625" xlink:href="#DejaVuSans-32"/>
     <use x="753.443359" xlink:href="#DejaVuSans-69"/>
    </g>
   </g>
  </g>
 </g>
 <defs>
  <clipPath id="pe9401237f2">
   <rect height="443.52" width="288.803721" x="28.560061" y="7.2"/>
  </clipPath>
 </defs>
</svg>
