<?xml version="1.0" encoding="utf-8" standalone="no"?>
<!DOCTYPE svg PUBLIC "-//W3C//DTD SVG 1.1//EN"
  "http://www.w3.org/Graphics/SVG/1.1/DTD/svg11.dtd">
<!-- Created with matplotlib (https://matplotlib.org/) -->
<svg height="275.76pt" version="1.1" viewBox="0 0 236.16 275.76" width="236.16pt" xmlns="http://www.w3.org/2000/svg" xmlns:xlink="http://www.w3.org/1999/xlink">
 <metadata>
  <rdf:RDF xmlns:cc="http://creativecommons.org/ns#" xmlns:dc="http://purl.org/dc/elements/1.1/" xmlns:rdf="http://www.w3.org/1999/02/22-rdf-syntax-ns#">
   <cc:Work>
    <dc:type rdf:resource="http://purl.org/dc/dcmitype/StillImage"/>
    <dc:date>2021-04-03T17:48:03.156433</dc:date>
    <dc:format>image/svg+xml</dc:format>
    <dc:creator>
     <cc:Agent>
      <dc:title>Matplotlib v3.3.3, https://matplotlib.org/</dc:title>
     </cc:Agent>
    </dc:creator>
   </cc:Work>
  </rdf:RDF>
 </metadata>
 <defs>
  <style type="text/css">*{stroke-linecap:butt;stroke-linejoin:round;}</style>
 </defs>
 <g id="figure_1">
  <g id="patch_1">
   <path d="M 0 275.76 
L 236.16 275.76 
L 236.16 0 
L 0 0 
z
" style="fill:#ffffff;"/>
  </g>
  <g id="axes_1">
   <g id="line2d_1">
    <path clip-path="url(#pf6f5297f04)" d="M 106.241496 42.84 
L 106.241496 235.990215 
" style="fill:none;stroke:#000000;stroke-linecap:square;stroke-width:0.5;"/>
   </g>
   <g id="patch_2">
    <path clip-path="url(#pf6f5297f04)" d="M 118.08 236.88 
C 139.084086 236.88 159.230726 228.534988 174.082857 213.682857 
C 188.934988 198.830726 197.28 178.684086 197.28 157.68 
C 197.28 136.675914 188.934988 116.529274 174.082857 101.677143 
C 159.230726 86.825012 139.084086 78.48 118.08 78.48 
C 97.075914 78.48 76.929274 86.825012 62.077143 101.677143 
C 47.225012 116.529274 38.88 136.675914 38.88 157.68 
C 38.88 178.684086 47.225012 198.830726 62.077143 213.682857 
C 76.929274 228.534988 97.075914 236.88 118.08 236.88 
z
" style="fill:none;stroke:#000000;stroke-linejoin:miter;"/>
   </g>
   <g id="patch_3">
    <path clip-path="url(#pf6f5297f04)" d="M 174.538478 94.482011 
C 181.188431 100.422805 186.859231 107.376145 191.341254 115.084997 
C 195.823276 122.793849 199.060604 131.162039 200.933569 139.880234 
C 202.806534 148.598429 203.291769 157.557863 202.371337 166.427345 
C 201.450905 175.296828 199.136289 183.965707 195.513051 192.113532 
C 191.889813 200.261358 187.003153 207.78648 181.033712 214.41073 
C 175.06427 221.034979 168.086518 226.675714 160.358393 231.124421 
C 152.630268 235.573128 144.248182 238.774308 135.521984 240.609625 
C 126.795787 242.444943 117.834342 242.891502 108.968915 241.932796 
C 100.103488 240.97409 91.44468 238.622079 83.312569 234.963706 
C 75.180458 231.305334 67.676498 226.38624 61.078075 220.388262 
C 54.479653 214.390284 48.869088 207.38825 44.453779 199.640995 
C 40.03847 191.89374 36.8735 183.497916 35.075864 174.763878 
C 33.278227 166.02984 32.870352 157.066551 33.867314 148.205344 
C 34.864277 139.344138 37.253639 130.695562 40.947078 122.579318 
C 44.640517 114.463073 49.591954 106.980414 55.618356 100.407942 
C 61.644759 93.83547 68.670944 88.25518 76.437184 83.873351 
L 76.437184 83.873351 
L 85.321421 85.572334 
L 81.885777 93.530296 
L 81.885777 93.530296 
C 75.13568 97.338802 69.028809 102.18896 63.790908 107.901483 
C 58.553007 113.614005 54.249421 120.117624 51.039236 127.17193 
C 47.829051 134.226236 45.752315 141.743222 44.885797 149.445019 
C 44.019278 157.146815 44.373786 164.937337 45.936218 172.528604 
C 47.498649 180.119871 50.249511 187.417176 54.087116 194.150772 
C 57.924722 200.884367 62.801194 206.970247 68.536271 212.183443 
C 74.271348 217.396638 80.793482 221.672112 87.861579 224.85182 
C 94.929675 228.031527 102.455555 230.075798 110.161019 230.909066 
C 117.866484 231.742334 125.655403 231.354203 133.239855 229.75902 
C 140.824308 228.163837 148.109672 225.381504 154.826641 221.514871 
C 161.543609 217.648238 167.608384 212.745543 172.796778 206.988018 
C 177.985171 201.230492 182.232454 194.689965 185.381624 187.60821 
C 188.530794 180.526455 190.542562 172.991822 191.342564 165.282833 
C 192.142565 157.573843 191.720819 149.786672 190.092915 142.209175 
C 188.465011 134.631679 185.651258 127.358392 181.755669 120.658175 
C 177.86008 113.957958 172.931253 107.914401 167.151388 102.750907 
L 167.151388 102.750907 
z
" style="fill:#f6870d;stroke:#000000;stroke-linejoin:miter;"/>
   </g>
   <g id="patch_4">
    <path clip-path="url(#pf6f5297f04)" d="M 50.96987 232.602436 
C 40.351648 223.091397 31.87563 211.430852 26.105252 198.395929 
C 20.334875 185.361005 17.400896 171.247077 17.498351 156.992359 
L 17.498351 156.992359 
L 23.460497 148.749644 
L 28.586091 157.068162 
L 28.586091 157.068162 
C 28.49938 169.751494 31.109928 182.309556 36.244201 193.907559 
C 41.378474 205.505562 48.920128 215.880692 58.367837 224.34327 
L 58.367837 224.34327 
z
" style="fill:#00008b;stroke:#000000;stroke-linejoin:miter;"/>
   </g>
   <g id="patch_5">
    <path clip-path="url(#pf6f5297f04)" d="M 213.501017 189.491484 
C 209.288736 202.12655 202.608514 213.800046 193.848953 223.832905 
C 185.089391 233.865765 174.423701 242.059598 162.472323 247.937757 
L 162.472323 247.937757 
L 152.43299 246.294184 
L 157.578681 237.988083 
L 157.578681 237.988083 
C 168.212584 232.75791 177.702529 225.467334 185.49647 216.540459 
C 193.29041 207.613584 199.234229 197.22693 202.982165 185.984707 
L 202.982165 185.984707 
z
" style="fill:#00008b;stroke:#000000;stroke-linejoin:miter;"/>
   </g>
   <g id="patch_6">
    <path clip-path="url(#pf6f5297f04)" d="M 142.329257 255.297184 
C 129.965314 258.368533 117.129679 259.063126 104.506498 257.343941 
C 91.883318 255.624756 79.700925 251.52289 68.608649 245.256975 
L 68.608649 245.256975 
L 64.301165 236.04095 
L 74.062184 235.60282 
L 74.062184 235.60282 
C 83.931689 241.178004 94.771141 244.827696 106.00279 246.357365 
C 117.234438 247.887033 128.655122 247.269009 139.656111 244.536234 
L 139.656111 244.536234 
z
" style="fill:#00008b;stroke:#000000;stroke-linejoin:miter;"/>
   </g>
   <g id="patch_7">
    <path clip-path="url(#pf6f5297f04)" d="M 212.217647 122.250572 
C 214.938327 129.479545 216.817289 136.997906 217.817353 144.656889 
C 218.817418 152.315872 218.931945 160.064623 218.158668 167.749816 
L 218.158668 167.749816 
L 211.453414 175.400246 
L 207.126374 166.639757 
L 207.126374 166.639757 
C 207.814408 159.801751 207.712506 152.907193 206.822684 146.092507 
C 205.932863 139.277822 204.261031 132.588256 201.840269 126.156178 
L 201.840269 126.156178 
z
" style="fill:#00008b;stroke:#000000;stroke-linejoin:miter;"/>
   </g>
   <g id="patch_8">
    <path clip-path="url(#pf6f5297f04)" d="M 19.649274 136.978956 
C 20.856524 131.238642 22.563612 125.614921 24.751007 120.172131 
C 26.938403 114.729342 29.597734 109.488317 32.698576 104.509016 
L 32.698576 104.509016 
L 42.090364 100.599558 
L 42.110702 110.370384 
L 42.110702 110.370384 
C 39.351685 114.800786 36.985508 119.46406 35.039243 124.306857 
C 33.092977 129.149655 31.574072 134.153437 30.499905 139.260961 
L 30.499905 139.260961 
z
" style="fill:#00008b;stroke:#000000;stroke-linejoin:miter;"/>
   </g>
   <g id="patch_9">
    <path clip-path="url(#pf6f5297f04)" d="M 45.726947 87.807424 
C 49.095637 84.319146 52.712186 81.079047 56.548287 78.112486 
C 60.384388 75.145925 64.430007 72.460662 68.65348 70.077716 
L 68.65348 70.077716 
L 78.769705 71.150801 
L 74.102073 79.734661 
L 74.102073 79.734661 
C 70.34418 81.85492 66.744534 84.244169 63.33131 86.883708 
C 59.918086 89.523246 56.700212 92.406169 53.702874 95.509913 
L 53.702874 95.509913 
z
" style="fill:#00008b;stroke:#000000;stroke-linejoin:miter;"/>
   </g>
   <g id="patch_10">
    <path clip-path="url(#pf6f5297f04)" d="M 185.091465 82.669303 
C 188.147817 85.399722 191.034435 88.314389 193.735172 91.397001 
C 196.435909 94.479612 198.945719 97.724409 201.250563 101.113239 
L 201.250563 101.113239 
L 201.025693 111.283733 
L 192.082155 107.348945 
L 192.082155 107.348945 
C 190.031388 104.333686 187.79825 101.446584 185.395232 98.703788 
C 182.992214 95.960992 180.423805 93.367627 177.704374 90.938199 
L 177.704374 90.938199 
z
" style="fill:#00008b;stroke:#000000;stroke-linejoin:miter;"/>
   </g>
   <g id="patch_11">
    <path clip-path="url(#pf6f5297f04)" d="M 205.864192 108.577284 
C 206.478151 109.6749 207.07147 110.783933 207.643835 111.9038 
C 208.216201 113.023667 208.767513 114.154171 209.29748 115.294714 
L 209.29748 115.294714 
L 207.028958 124.203375 
L 199.24201 119.967108 
L 199.24201 119.967108 
C 198.770464 118.952294 198.279927 117.946413 197.770657 116.949996 
C 197.261386 115.953578 196.733473 114.9668 196.187195 113.990182 
L 196.187195 113.990182 
z
" style="fill:#fbf3f6;stroke:#000000;stroke-linejoin:miter;"/>
   </g>
   <g id="patch_12">
    <path clip-path="url(#pf6f5297f04)" d="M 216.900197 176.433928 
C 216.69039 177.539462 216.462047 178.641398 216.215262 179.73927 
C 215.968478 180.837142 215.703287 181.930795 215.419803 183.019768 
L 215.419803 183.019768 
L 208.241591 187.738095 
L 204.689431 180.226407 
L 204.689431 180.226407 
C 204.941665 179.257479 205.177622 178.284386 205.397202 177.307539 
C 205.616782 176.330693 205.819953 175.35023 206.006632 174.366565 
L 206.006632 174.366565 
z
" style="fill:#fbf3f6;stroke:#000000;stroke-linejoin:miter;"/>
   </g>
   <g id="patch_13">
    <path clip-path="url(#pf6f5297f04)" d="M 61.164066 240.612006 
C 60.272664 240.000239 59.391183 239.374141 58.519967 238.733954 
C 57.64875 238.093767 56.787913 237.439576 55.937789 236.771634 
L 55.937789 236.771634 
L 54.668853 228.472853 
L 62.788111 228.052872 
L 62.788111 228.052872 
C 63.544521 228.647182 64.310463 229.229258 65.08564 229.798873 
C 65.860816 230.368487 66.645126 230.925567 67.438264 231.469895 
L 67.438264 231.469895 
z
" style="fill:#fbf3f6;stroke:#000000;stroke-linejoin:miter;"/>
   </g>
   <g id="patch_14">
    <path clip-path="url(#pf6f5297f04)" d="M 154.436915 251.463345 
C 153.449449 251.846155 152.455998 252.213346 151.456935 252.564779 
C 150.457871 252.916212 149.45332 253.251845 148.443656 253.57155 
L 148.443656 253.57155 
L 140.992684 249.916709 
L 145.096481 243.000828 
L 145.096481 243.000828 
C 145.994844 242.716366 146.888657 242.417732 147.777588 242.10504 
C 148.666518 241.792347 149.550454 241.465634 150.429066 241.125024 
L 150.429066 241.125024 
z
" style="fill:#fbf3f6;stroke:#000000;stroke-linejoin:miter;"/>
   </g>
   <g id="patch_15">
    <path clip-path="url(#pf6f5297f04)" d="M 37.657635 97.269866 
C 38.280455 96.440723 38.91606 95.621261 39.564223 94.811774 
C 40.212385 94.002288 40.873028 93.202873 41.545913 92.413818 
L 41.545913 92.413818 
L 49.714911 91.658669 
L 49.982741 99.608515 
L 49.982741 99.608515 
C 49.384032 100.310588 48.796217 101.021878 48.219505 101.74213 
C 47.642794 102.462382 47.077255 103.191509 46.523093 103.929251 
L 46.523093 103.929251 
z
" style="fill:#fbf3f6;stroke:#000000;stroke-linejoin:miter;"/>
   </g>
   <g id="patch_16">
    <path clip-path="url(#pf6f5297f04)" d="M 17.941026 148.228707 
C 18.030174 147.284157 18.132682 146.340915 18.248519 145.399265 
C 18.364356 144.457615 18.49351 143.517652 18.635942 142.579656 
L 18.635942 142.579656 
L 25.074589 138.119959 
L 29.598279 144.244261 
L 29.598279 144.244261 
C 29.471548 145.078855 29.356631 145.915201 29.253564 146.753047 
C 29.150497 147.590893 29.059289 148.430155 28.979968 149.270582 
L 28.979968 149.270582 
z
" style="fill:#fbf3f6;stroke:#000000;stroke-linejoin:miter;"/>
   </g>
   <g id="text_1">
    <g id="patch_17">
     <path d="M 78.03423 51.462969 
L 134.448762 51.462969 
Q 137.748762 51.462969 137.748762 48.162969 
L 137.748762 37.517031 
Q 137.748762 34.217031 134.448762 34.217031 
L 78.03423 34.217031 
Q 74.73423 34.217031 74.73423 37.517031 
L 74.73423 48.162969 
Q 74.73423 51.462969 78.03423 51.462969 
z
" style="fill:#fef3e6;stroke:#808080;stroke-linejoin:miter;stroke-width:0.3;"/>
    </g>
    <!-- Luciferase -->
    <g transform="translate(78.03423 45.875312)scale(0.11 -0.11)">
     <defs>
      <path d="M 9.8125 72.90625 
L 19.671875 72.90625 
L 19.671875 8.296875 
L 55.171875 8.296875 
L 55.171875 0 
L 9.8125 0 
z
" id="DejaVuSans-76"/>
      <path d="M 8.5 21.578125 
L 8.5 54.6875 
L 17.484375 54.6875 
L 17.484375 21.921875 
Q 17.484375 14.15625 20.5 10.265625 
Q 23.53125 6.390625 29.59375 6.390625 
Q 36.859375 6.390625 41.078125 11.03125 
Q 45.3125 15.671875 45.3125 23.6875 
L 45.3125 54.6875 
L 54.296875 54.6875 
L 54.296875 0 
L 45.3125 0 
L 45.3125 8.40625 
Q 42.046875 3.421875 37.71875 1 
Q 33.40625 -1.421875 27.6875 -1.421875 
Q 18.265625 -1.421875 13.375 4.4375 
Q 8.5 10.296875 8.5 21.578125 
z
M 31.109375 56 
z
" id="DejaVuSans-117"/>
      <path d="M 48.78125 52.59375 
L 48.78125 44.1875 
Q 44.96875 46.296875 41.140625 47.34375 
Q 37.3125 48.390625 33.40625 48.390625 
Q 24.65625 48.390625 19.8125 42.84375 
Q 14.984375 37.3125 14.984375 27.296875 
Q 14.984375 17.28125 19.8125 11.734375 
Q 24.65625 6.203125 33.40625 6.203125 
Q 37.3125 6.203125 41.140625 7.25 
Q 44.96875 8.296875 48.78125 10.40625 
L 48.78125 2.09375 
Q 45.015625 0.34375 40.984375 -0.53125 
Q 36.96875 -1.421875 32.421875 -1.421875 
Q 20.0625 -1.421875 12.78125 6.34375 
Q 5.515625 14.109375 5.515625 27.296875 
Q 5.515625 40.671875 12.859375 48.328125 
Q 20.21875 56 33.015625 56 
Q 37.15625 56 41.109375 55.140625 
Q 45.0625 54.296875 48.78125 52.59375 
z
" id="DejaVuSans-99"/>
      <path d="M 9.421875 54.6875 
L 18.40625 54.6875 
L 18.40625 0 
L 9.421875 0 
z
M 9.421875 75.984375 
L 18.40625 75.984375 
L 18.40625 64.59375 
L 9.421875 64.59375 
z
" id="DejaVuSans-105"/>
      <path d="M 37.109375 75.984375 
L 37.109375 68.5 
L 28.515625 68.5 
Q 23.6875 68.5 21.796875 66.546875 
Q 19.921875 64.59375 19.921875 59.515625 
L 19.921875 54.6875 
L 34.71875 54.6875 
L 34.71875 47.703125 
L 19.921875 47.703125 
L 19.921875 0 
L 10.890625 0 
L 10.890625 47.703125 
L 2.296875 47.703125 
L 2.296875 54.6875 
L 10.890625 54.6875 
L 10.890625 58.5 
Q 10.890625 67.625 15.140625 71.796875 
Q 19.390625 75.984375 28.609375 75.984375 
z
" id="DejaVuSans-102"/>
      <path d="M 56.203125 29.59375 
L 56.203125 25.203125 
L 14.890625 25.203125 
Q 15.484375 15.921875 20.484375 11.0625 
Q 25.484375 6.203125 34.421875 6.203125 
Q 39.59375 6.203125 44.453125 7.46875 
Q 49.3125 8.734375 54.109375 11.28125 
L 54.109375 2.78125 
Q 49.265625 0.734375 44.1875 -0.34375 
Q 39.109375 -1.421875 33.890625 -1.421875 
Q 20.796875 -1.421875 13.15625 6.1875 
Q 5.515625 13.8125 5.515625 26.8125 
Q 5.515625 40.234375 12.765625 48.109375 
Q 20.015625 56 32.328125 56 
Q 43.359375 56 49.78125 48.890625 
Q 56.203125 41.796875 56.203125 29.59375 
z
M 47.21875 32.234375 
Q 47.125 39.59375 43.09375 43.984375 
Q 39.0625 48.390625 32.421875 48.390625 
Q 24.90625 48.390625 20.390625 44.140625 
Q 15.875 39.890625 15.1875 32.171875 
z
" id="DejaVuSans-101"/>
      <path d="M 41.109375 46.296875 
Q 39.59375 47.171875 37.8125 47.578125 
Q 36.03125 48 33.890625 48 
Q 26.265625 48 22.1875 43.046875 
Q 18.109375 38.09375 18.109375 28.8125 
L 18.109375 0 
L 9.078125 0 
L 9.078125 54.6875 
L 18.109375 54.6875 
L 18.109375 46.1875 
Q 20.953125 51.171875 25.484375 53.578125 
Q 30.03125 56 36.53125 56 
Q 37.453125 56 38.578125 55.875 
Q 39.703125 55.765625 41.0625 55.515625 
z
" id="DejaVuSans-114"/>
      <path d="M 34.28125 27.484375 
Q 23.390625 27.484375 19.1875 25 
Q 14.984375 22.515625 14.984375 16.5 
Q 14.984375 11.71875 18.140625 8.90625 
Q 21.296875 6.109375 26.703125 6.109375 
Q 34.1875 6.109375 38.703125 11.40625 
Q 43.21875 16.703125 43.21875 25.484375 
L 43.21875 27.484375 
z
M 52.203125 31.203125 
L 52.203125 0 
L 43.21875 0 
L 43.21875 8.296875 
Q 40.140625 3.328125 35.546875 0.953125 
Q 30.953125 -1.421875 24.3125 -1.421875 
Q 15.921875 -1.421875 10.953125 3.296875 
Q 6 8.015625 6 15.921875 
Q 6 25.140625 12.171875 29.828125 
Q 18.359375 34.515625 30.609375 34.515625 
L 43.21875 34.515625 
L 43.21875 35.40625 
Q 43.21875 41.609375 39.140625 45 
Q 35.0625 48.390625 27.6875 48.390625 
Q 23 48.390625 18.546875 47.265625 
Q 14.109375 46.140625 10.015625 43.890625 
L 10.015625 52.203125 
Q 14.9375 54.109375 19.578125 55.046875 
Q 24.21875 56 28.609375 56 
Q 40.484375 56 46.34375 49.84375 
Q 52.203125 43.703125 52.203125 31.203125 
z
" id="DejaVuSans-97"/>
      <path d="M 44.28125 53.078125 
L 44.28125 44.578125 
Q 40.484375 46.53125 36.375 47.5 
Q 32.28125 48.484375 27.875 48.484375 
Q 21.1875 48.484375 17.84375 46.4375 
Q 14.5 44.390625 14.5 40.28125 
Q 14.5 37.15625 16.890625 35.375 
Q 19.28125 33.59375 26.515625 31.984375 
L 29.59375 31.296875 
Q 39.15625 29.25 43.1875 25.515625 
Q 47.21875 21.78125 47.21875 15.09375 
Q 47.21875 7.46875 41.1875 3.015625 
Q 35.15625 -1.421875 24.609375 -1.421875 
Q 20.21875 -1.421875 15.453125 -0.5625 
Q 10.6875 0.296875 5.421875 2 
L 5.421875 11.28125 
Q 10.40625 8.6875 15.234375 7.390625 
Q 20.0625 6.109375 24.8125 6.109375 
Q 31.15625 6.109375 34.5625 8.28125 
Q 37.984375 10.453125 37.984375 14.40625 
Q 37.984375 18.0625 35.515625 20.015625 
Q 33.0625 21.96875 24.703125 23.78125 
L 21.578125 24.515625 
Q 13.234375 26.265625 9.515625 29.90625 
Q 5.8125 33.546875 5.8125 39.890625 
Q 5.8125 47.609375 11.28125 51.796875 
Q 16.75 56 26.8125 56 
Q 31.78125 56 36.171875 55.265625 
Q 40.578125 54.546875 44.28125 53.078125 
z
" id="DejaVuSans-115"/>
     </defs>
     <use xlink:href="#DejaVuSans-76"/>
     <use x="53.962891" xlink:href="#DejaVuSans-117"/>
     <use x="117.341797" xlink:href="#DejaVuSans-99"/>
     <use x="172.322266" xlink:href="#DejaVuSans-105"/>
     <use x="200.105469" xlink:href="#DejaVuSans-102"/>
     <use x="235.310547" xlink:href="#DejaVuSans-101"/>
     <use x="296.833984" xlink:href="#DejaVuSans-114"/>
     <use x="337.947266" xlink:href="#DejaVuSans-97"/>
     <use x="399.226562" xlink:href="#DejaVuSans-115"/>
     <use x="451.326172" xlink:href="#DejaVuSans-101"/>
    </g>
   </g>
  </g>
 </g>
 <defs>
  <clipPath id="pf6f5297f04">
   <rect height="261.36" width="221.76" x="7.2" y="7.2"/>
  </clipPath>
 </defs>
</svg>
