<?xml version="1.0" encoding="utf-8" standalone="no"?>
<!DOCTYPE svg PUBLIC "-//W3C//DTD SVG 1.1//EN"
  "http://www.w3.org/Graphics/SVG/1.1/DTD/svg11.dtd">
<!-- Created with matplotlib (https://matplotlib.org/) -->
<svg height="313.16pt" version="1.1" viewBox="0 0 237.208246 313.16" width="237.208246pt" xmlns="http://www.w3.org/2000/svg" xmlns:xlink="http://www.w3.org/1999/xlink">
 <metadata>
  <rdf:RDF xmlns:cc="http://creativecommons.org/ns#" xmlns:dc="http://purl.org/dc/elements/1.1/" xmlns:rdf="http://www.w3.org/1999/02/22-rdf-syntax-ns#">
   <cc:Work>
    <dc:type rdf:resource="http://purl.org/dc/dcmitype/StillImage"/>
    <dc:date>2021-02-15T16:13:31.856251</dc:date>
    <dc:format>image/svg+xml</dc:format>
    <dc:creator>
     <cc:Agent>
      <dc:title>Matplotlib v3.3.3, https://matplotlib.org/</dc:title>
     </cc:Agent>
    </dc:creator>
   </cc:Work>
  </rdf:RDF>
 </metadata>
 <defs>
  <style type="text/css">*{stroke-linecap:butt;stroke-linejoin:round;}</style>
 </defs>
 <g id="figure_1">
  <g id="patch_1">
   <path d="M 0 313.16 
L 237.208246 313.16 
L 237.208246 0 
L 0 0 
z
" style="fill:#ffffff;"/>
  </g>
  <g id="axes_1">
   <g id="line2d_1">
    <path clip-path="url(#pc76dc632cd)" d="M 101.850752 65.72 
L 101.850752 254.20739 
" style="fill:none;stroke:#000000;stroke-linecap:square;stroke-width:0.5;"/>
   </g>
   <g id="line2d_2">
    <path clip-path="url(#pc76dc632cd)" d="M 151.646061 50.32 
L 151.646061 261.463418 
" style="fill:none;stroke:#000000;stroke-linecap:square;stroke-width:0.5;"/>
   </g>
   <g id="line2d_3">
    <path clip-path="url(#pc76dc632cd)" d="M 157.065696 34.92 
L 157.065696 272.52732 
" style="fill:none;stroke:#000000;stroke-linecap:square;stroke-width:0.5;"/>
   </g>
   <g id="line2d_4">
    <path clip-path="url(#pc76dc632cd)" d="M 162.485332 65.72 
L 162.485332 283.591223 
" style="fill:none;stroke:#000000;stroke-linecap:square;stroke-width:0.5;"/>
   </g>
   <g id="line2d_5">
    <path clip-path="url(#pc76dc632cd)" d="M 46.101065 81.12 
L 46.101065 183.625861 
" style="fill:none;stroke:#000000;stroke-linecap:square;stroke-width:0.5;"/>
   </g>
   <g id="line2d_6">
    <path clip-path="url(#pc76dc632cd)" d="M 33.929869 65.72 
L 33.929869 181.716837 
" style="fill:none;stroke:#000000;stroke-linecap:square;stroke-width:0.5;"/>
   </g>
   <g id="line2d_7">
    <path clip-path="url(#pc76dc632cd)" d="M 21.758672 50.32 
L 21.758672 179.807814 
" style="fill:none;stroke:#000000;stroke-linecap:square;stroke-width:0.5;"/>
   </g>
   <g id="line2d_8">
    <path clip-path="url(#pc76dc632cd)" d="M 148.797082 81.12 
L 148.797082 127.375299 
" style="fill:none;stroke:#000000;stroke-linecap:square;stroke-width:0.5;"/>
   </g>
   <g id="patch_2">
    <path clip-path="url(#pc76dc632cd)" d="M 119.128246 256.68 
C 135.464757 256.68 151.134366 250.189435 162.686024 238.637778 
C 174.237681 227.08612 180.728246 211.416511 180.728246 195.08 
C 180.728246 178.743489 174.237681 163.07388 162.686024 151.522222 
C 151.134366 139.970565 135.464757 133.48 119.128246 133.48 
C 102.791735 133.48 87.122126 139.970565 75.570468 151.522222 
C 64.01881 163.07388 57.528246 178.743489 57.528246 195.08 
C 57.528246 211.416511 64.01881 227.08612 75.570468 238.637778 
C 87.122126 250.189435 102.791735 256.68 119.128246 256.68 
z
" style="fill:none;stroke:#000000;stroke-linejoin:miter;"/>
   </g>
   <g id="patch_3">
    <path clip-path="url(#pc76dc632cd)" d="M 137.654691 131.825256 
C 145.84514 134.224126 153.492242 138.191112 160.170307 143.505385 
C 166.848372 148.819657 172.431142 155.380742 176.607841 162.823405 
C 180.784539 170.266068 183.476201 178.449594 184.53299 186.918433 
C 185.589779 195.387273 184.991714 203.981309 182.772089 212.222141 
C 180.552463 220.462973 176.753242 228.194794 171.585916 234.9872 
C 166.418589 241.779606 159.980853 247.504176 152.631076 251.842242 
C 145.281298 256.180308 137.158437 259.049852 128.714667 260.291136 
C 120.270897 261.53242 111.665859 261.121976 103.378567 259.082651 
C 95.091276 257.043327 87.278415 253.413678 80.3749 248.395757 
C 73.471386 243.377836 67.60774 237.066513 63.110372 229.813119 
C 58.613004 222.559725 55.566943 214.501396 54.141755 206.086713 
C 52.716566 197.672031 52.939195 189.060087 54.797248 180.73028 
C 56.655301 172.400473 60.113649 164.510291 64.979777 157.498954 
C 69.845904 150.487617 76.027811 144.487685 83.181369 139.833156 
C 90.334927 135.178626 98.324889 131.957499 106.706479 130.349084 
C 115.088068 128.74067 123.70282 128.775377 132.071178 130.451274 
L 132.071178 130.451274 
L 136.44268 135.963417 
L 130.37771 138.907369 
L 130.37771 138.907369 
C 123.104278 137.450748 115.61669 137.420582 108.331757 138.81855 
C 101.046824 140.216518 94.102278 143.016189 87.884699 147.061715 
C 81.66712 151.107241 76.294061 156.322135 72.064623 162.4161 
C 67.835185 168.510066 64.829331 175.367888 63.214388 182.607813 
C 61.599445 189.847739 61.405945 197.332887 62.64466 204.646583 
C 63.883376 211.960279 66.530886 218.964247 70.439813 225.268599 
C 74.348741 231.57295 79.445181 237.058493 85.445432 241.419864 
C 91.445682 245.781235 98.2363 248.935976 105.439273 250.708473 
C 112.642246 252.48097 120.121391 252.837711 127.460369 251.758838 
C 134.799347 250.679965 141.859403 248.185875 148.247528 244.415407 
C 154.635652 240.644938 160.231067 235.669377 164.722295 229.765697 
C 169.213523 223.862018 172.51565 217.141836 174.444857 209.979244 
C 176.374064 202.816652 176.893877 195.347069 175.97536 187.986302 
C 175.056843 180.625535 172.717361 173.51275 169.087146 167.043894 
C 165.456931 160.575038 160.604617 154.872412 154.800318 150.253465 
C 148.996019 145.634518 142.349472 142.186577 135.23067 140.101578 
L 135.23067 140.101578 
z
" style="fill:#ff00ff;stroke:#000000;stroke-linejoin:miter;"/>
   </g>
   <g id="patch_4">
    <path clip-path="url(#pc76dc632cd)" d="M 190.28319 162.565085 
C 198.511081 180.570826 199.60537 201.045164 193.34357 219.825333 
C 187.081769 238.605502 173.919107 254.3262 156.531768 263.791152 
C 139.144428 273.256104 118.796455 275.777216 99.624924 270.841905 
C 80.453393 265.906594 63.852057 253.873653 53.19624 237.189576 
L 53.19624 237.189576 
L 53.599547 229.287543 
L 60.464335 232.547575 
L 60.464335 232.547575 
C 69.945495 247.392463 84.716763 258.098938 101.774896 262.490199 
C 118.83303 266.88146 136.93792 264.638265 152.408545 256.216694 
C 167.87917 247.795123 179.59083 233.807415 185.162353 217.097501 
C 190.733876 200.387587 189.760218 182.170262 182.439338 166.149406 
L 182.439338 166.149406 
z
" style="fill:#ffd700;stroke:#000000;stroke-linejoin:miter;"/>
   </g>
   <g id="patch_5">
    <path clip-path="url(#pc76dc632cd)" d="M 201.488693 157.444626 
C 211.012315 178.285916 212.278933 201.98456 205.031022 223.722236 
C 197.783112 245.459912 182.547589 263.65631 162.422086 274.611806 
C 142.296583 285.567301 118.744204 288.485439 96.553535 282.772914 
C 74.362865 277.060389 55.147146 263.132496 42.813247 243.821005 
L 42.813247 243.821005 
L 42.678097 234.9888 
L 50.081342 239.179005 
L 50.081342 239.179005 
C 61.240584 256.651306 78.626235 269.252733 98.703507 274.421208 
C 118.78078 279.589683 140.090074 276.949463 158.298863 267.037348 
C 176.507652 257.125233 190.292172 240.661825 196.849806 220.994404 
C 203.407439 201.326983 202.261452 179.885353 193.644841 161.028947 
L 193.644841 161.028947 
z
" style="fill:#add8e6;stroke:#000000;stroke-linejoin:miter;"/>
   </g>
   <g id="patch_6">
    <path clip-path="url(#pc76dc632cd)" d="M 212.694196 152.324167 
C 223.513549 176.001007 224.952496 202.923956 216.718475 227.619139 
C 208.484454 252.314322 191.176071 272.986421 168.312404 285.43246 
C 145.448737 297.878498 118.691954 301.193662 93.482145 294.703922 
C 68.272337 288.214183 46.442234 272.391339 32.430253 250.452434 
L 32.430253 250.452434 
L 31.756647 240.690058 
L 39.698349 245.810434 
L 39.698349 245.810434 
C 52.535672 265.910149 72.535706 280.406527 95.632118 286.352216 
C 118.728529 292.297906 143.242229 289.26066 164.189181 277.858002 
C 185.136134 266.455344 200.993514 247.516235 208.537258 224.891307 
C 216.081002 202.266379 214.762685 177.600444 204.850344 155.908488 
L 204.850344 155.908488 
z
" style="fill:#ffa500;stroke:#000000;stroke-linejoin:miter;"/>
   </g>
   <g id="patch_7">
    <path clip-path="url(#pc76dc632cd)" d="M 55.335392 149.795151 
C 49.010704 158.70475 44.622137 168.841323 42.453162 179.550113 
C 40.284188 190.258903 40.382535 201.304263 42.741851 211.972733 
L 42.741851 211.972733 
L 48.617925 217.271462 
L 51.162398 210.110542 
L 51.162398 210.110542 
C 49.063164 200.618124 48.975659 190.790363 50.905534 181.262069 
C 52.835409 171.733776 56.740197 162.71462 62.367675 154.787181 
L 62.367675 154.787181 
z
" style="fill:#ffd700;stroke:#000000;stroke-linejoin:miter;"/>
   </g>
   <g id="patch_8">
    <path clip-path="url(#pc76dc632cd)" d="M 45.289273 142.663678 
C 37.968572 152.976364 32.888891 164.709248 30.378346 177.104462 
C 27.867801 189.499675 27.981635 202.284462 30.712497 214.633006 
L 30.712497 214.633006 
L 36.866204 220.970039 
L 39.133044 212.770815 
L 39.133044 212.770815 
C 36.662265 201.598322 36.559272 190.031135 38.830717 178.816418 
C 41.102163 167.601701 45.698065 156.986234 52.321556 147.655709 
L 52.321556 147.655709 
z
" style="fill:#add8e6;stroke:#000000;stroke-linejoin:miter;"/>
   </g>
   <g id="patch_9">
    <path clip-path="url(#pc76dc632cd)" d="M 35.243154 135.532206 
C 26.926439 147.247978 21.155646 160.577173 18.30353 174.65881 
C 15.451414 188.740447 15.580736 203.26466 18.683143 217.293279 
L 18.683143 217.293279 
L 25.114484 224.668616 
L 27.103691 215.431088 
L 27.103691 215.431088 
C 24.261366 202.578521 24.142885 189.271907 26.755901 176.370766 
C 29.368918 163.469626 34.655932 151.257848 42.275437 140.524237 
L 42.275437 140.524237 
z
" style="fill:#ffa500;stroke:#000000;stroke-linejoin:miter;"/>
   </g>
   <g id="patch_10">
    <path clip-path="url(#pc76dc632cd)" d="M 141.117578 120.00194 
C 143.247102 120.625648 145.349127 121.339678 147.417948 122.142091 
C 149.486769 122.944504 151.520514 123.834574 153.513665 124.809887 
L 153.513665 124.809887 
L 157.281647 131.767408 
L 149.723147 132.556199 
L 149.723147 132.556199 
C 147.949713 131.688401 146.14016 130.896448 144.299398 130.18249 
C 142.458636 129.468532 140.588331 128.833215 138.693557 128.278261 
L 138.693557 128.278261 
z
" style="fill:#add8e6;stroke:#000000;stroke-linejoin:miter;"/>
   </g>
   <g id="patch_11">
    <path clip-path="url(#pc76dc632cd)" d="M 144.580464 108.178623 
C 147.045347 108.900554 149.478399 109.727029 151.873019 110.655806 
C 154.267639 111.584583 156.621659 112.614822 158.928692 113.743728 
L 158.928692 113.743728 
L 163.640548 121.215309 
L 155.138173 121.490039 
L 155.138173 121.490039 
C 153.050857 120.468649 150.92103 119.536528 148.754469 118.696205 
C 146.587908 117.855883 144.386576 117.10812 142.156444 116.454945 
L 142.156444 116.454945 
z
" style="fill:#ffa500;stroke:#000000;stroke-linejoin:miter;"/>
   </g>
   <g id="text_1">
    <g id="patch_12">
     <path d="M 83.589033 74.342969 
L 120.112471 74.342969 
Q 123.412471 74.342969 123.412471 71.042969 
L 123.412471 60.397031 
Q 123.412471 57.097031 120.112471 57.097031 
L 83.589033 57.097031 
Q 80.289033 57.097031 80.289033 60.397031 
L 80.289033 71.042969 
Q 80.289033 74.342969 83.589033 74.342969 
z
" style="fill:#ffe5ff;stroke:#808080;stroke-linejoin:miter;stroke-width:0.3;"/>
    </g>
    <!-- source -->
    <g transform="translate(83.589033 68.755312)scale(0.11 -0.11)">
     <defs>
      <path d="M 44.28125 53.078125 
L 44.28125 44.578125 
Q 40.484375 46.53125 36.375 47.5 
Q 32.28125 48.484375 27.875 48.484375 
Q 21.1875 48.484375 17.84375 46.4375 
Q 14.5 44.390625 14.5 40.28125 
Q 14.5 37.15625 16.890625 35.375 
Q 19.28125 33.59375 26.515625 31.984375 
L 29.59375 31.296875 
Q 39.15625 29.25 43.1875 25.515625 
Q 47.21875 21.78125 47.21875 15.09375 
Q 47.21875 7.46875 41.1875 3.015625 
Q 35.15625 -1.421875 24.609375 -1.421875 
Q 20.21875 -1.421875 15.453125 -0.5625 
Q 10.6875 0.296875 5.421875 2 
L 5.421875 11.28125 
Q 10.40625 8.6875 15.234375 7.390625 
Q 20.0625 6.109375 24.8125 6.109375 
Q 31.15625 6.109375 34.5625 8.28125 
Q 37.984375 10.453125 37.984375 14.40625 
Q 37.984375 18.0625 35.515625 20.015625 
Q 33.0625 21.96875 24.703125 23.78125 
L 21.578125 24.515625 
Q 13.234375 26.265625 9.515625 29.90625 
Q 5.8125 33.546875 5.8125 39.890625 
Q 5.8125 47.609375 11.28125 51.796875 
Q 16.75 56 26.8125 56 
Q 31.78125 56 36.171875 55.265625 
Q 40.578125 54.546875 44.28125 53.078125 
z
" id="DejaVuSans-115"/>
      <path d="M 30.609375 48.390625 
Q 23.390625 48.390625 19.1875 42.75 
Q 14.984375 37.109375 14.984375 27.296875 
Q 14.984375 17.484375 19.15625 11.84375 
Q 23.34375 6.203125 30.609375 6.203125 
Q 37.796875 6.203125 41.984375 11.859375 
Q 46.1875 17.53125 46.1875 27.296875 
Q 46.1875 37.015625 41.984375 42.703125 
Q 37.796875 48.390625 30.609375 48.390625 
z
M 30.609375 56 
Q 42.328125 56 49.015625 48.375 
Q 55.71875 40.765625 55.71875 27.296875 
Q 55.71875 13.875 49.015625 6.21875 
Q 42.328125 -1.421875 30.609375 -1.421875 
Q 18.84375 -1.421875 12.171875 6.21875 
Q 5.515625 13.875 5.515625 27.296875 
Q 5.515625 40.765625 12.171875 48.375 
Q 18.84375 56 30.609375 56 
z
" id="DejaVuSans-111"/>
      <path d="M 8.5 21.578125 
L 8.5 54.6875 
L 17.484375 54.6875 
L 17.484375 21.921875 
Q 17.484375 14.15625 20.5 10.265625 
Q 23.53125 6.390625 29.59375 6.390625 
Q 36.859375 6.390625 41.078125 11.03125 
Q 45.3125 15.671875 45.3125 23.6875 
L 45.3125 54.6875 
L 54.296875 54.6875 
L 54.296875 0 
L 45.3125 0 
L 45.3125 8.40625 
Q 42.046875 3.421875 37.71875 1 
Q 33.40625 -1.421875 27.6875 -1.421875 
Q 18.265625 -1.421875 13.375 4.4375 
Q 8.5 10.296875 8.5 21.578125 
z
M 31.109375 56 
z
" id="DejaVuSans-117"/>
      <path d="M 41.109375 46.296875 
Q 39.59375 47.171875 37.8125 47.578125 
Q 36.03125 48 33.890625 48 
Q 26.265625 48 22.1875 43.046875 
Q 18.109375 38.09375 18.109375 28.8125 
L 18.109375 0 
L 9.078125 0 
L 9.078125 54.6875 
L 18.109375 54.6875 
L 18.109375 46.1875 
Q 20.953125 51.171875 25.484375 53.578125 
Q 30.03125 56 36.53125 56 
Q 37.453125 56 38.578125 55.875 
Q 39.703125 55.765625 41.0625 55.515625 
z
" id="DejaVuSans-114"/>
      <path d="M 48.78125 52.59375 
L 48.78125 44.1875 
Q 44.96875 46.296875 41.140625 47.34375 
Q 37.3125 48.390625 33.40625 48.390625 
Q 24.65625 48.390625 19.8125 42.84375 
Q 14.984375 37.3125 14.984375 27.296875 
Q 14.984375 17.28125 19.8125 11.734375 
Q 24.65625 6.203125 33.40625 6.203125 
Q 37.3125 6.203125 41.140625 7.25 
Q 44.96875 8.296875 48.78125 10.40625 
L 48.78125 2.09375 
Q 45.015625 0.34375 40.984375 -0.53125 
Q 36.96875 -1.421875 32.421875 -1.421875 
Q 20.0625 -1.421875 12.78125 6.34375 
Q 5.515625 14.109375 5.515625 27.296875 
Q 5.515625 40.671875 12.859375 48.328125 
Q 20.21875 56 33.015625 56 
Q 37.15625 56 41.109375 55.140625 
Q 45.0625 54.296875 48.78125 52.59375 
z
" id="DejaVuSans-99"/>
      <path d="M 56.203125 29.59375 
L 56.203125 25.203125 
L 14.890625 25.203125 
Q 15.484375 15.921875 20.484375 11.0625 
Q 25.484375 6.203125 34.421875 6.203125 
Q 39.59375 6.203125 44.453125 7.46875 
Q 49.3125 8.734375 54.109375 11.28125 
L 54.109375 2.78125 
Q 49.265625 0.734375 44.1875 -0.34375 
Q 39.109375 -1.421875 33.890625 -1.421875 
Q 20.796875 -1.421875 13.15625 6.1875 
Q 5.515625 13.8125 5.515625 26.8125 
Q 5.515625 40.234375 12.765625 48.109375 
Q 20.015625 56 32.328125 56 
Q 43.359375 56 49.78125 48.890625 
Q 56.203125 41.796875 56.203125 29.59375 
z
M 47.21875 32.234375 
Q 47.125 39.59375 43.09375 43.984375 
Q 39.0625 48.390625 32.421875 48.390625 
Q 24.90625 48.390625 20.390625 44.140625 
Q 15.875 39.890625 15.1875 32.171875 
z
" id="DejaVuSans-101"/>
     </defs>
     <use xlink:href="#DejaVuSans-115"/>
     <use x="52.099609" xlink:href="#DejaVuSans-111"/>
     <use x="113.28125" xlink:href="#DejaVuSans-117"/>
     <use x="176.660156" xlink:href="#DejaVuSans-114"/>
     <use x="215.523438" xlink:href="#DejaVuSans-99"/>
     <use x="270.503906" xlink:href="#DejaVuSans-101"/>
    </g>
   </g>
   <g id="text_2">
    <g id="patch_13">
     <path d="M 137.552311 58.942969 
L 165.739811 58.942969 
Q 169.039811 58.942969 169.039811 55.642969 
L 169.039811 44.997031 
Q 169.039811 41.697031 165.739811 41.697031 
L 137.552311 41.697031 
Q 134.252311 41.697031 134.252311 44.997031 
L 134.252311 55.642969 
Q 134.252311 58.942969 137.552311 58.942969 
z
" style="fill:#fffbe5;stroke:#808080;stroke-linejoin:miter;stroke-width:0.3;"/>
    </g>
    <!-- AXL2 -->
    <g transform="translate(137.552311 53.355312)scale(0.11 -0.11)">
     <defs>
      <path d="M 34.1875 63.1875 
L 20.796875 26.90625 
L 47.609375 26.90625 
z
M 28.609375 72.90625 
L 39.796875 72.90625 
L 67.578125 0 
L 57.328125 0 
L 50.6875 18.703125 
L 17.828125 18.703125 
L 11.1875 0 
L 0.78125 0 
z
" id="DejaVuSans-65"/>
      <path d="M 6.296875 72.90625 
L 16.890625 72.90625 
L 35.015625 45.796875 
L 53.21875 72.90625 
L 63.8125 72.90625 
L 40.375 37.890625 
L 65.375 0 
L 54.78125 0 
L 34.28125 31 
L 13.625 0 
L 2.984375 0 
L 29 38.921875 
z
" id="DejaVuSans-88"/>
      <path d="M 9.8125 72.90625 
L 19.671875 72.90625 
L 19.671875 8.296875 
L 55.171875 8.296875 
L 55.171875 0 
L 9.8125 0 
z
" id="DejaVuSans-76"/>
      <path d="M 19.1875 8.296875 
L 53.609375 8.296875 
L 53.609375 0 
L 7.328125 0 
L 7.328125 8.296875 
Q 12.9375 14.109375 22.625 23.890625 
Q 32.328125 33.6875 34.8125 36.53125 
Q 39.546875 41.84375 41.421875 45.53125 
Q 43.3125 49.21875 43.3125 52.78125 
Q 43.3125 58.59375 39.234375 62.25 
Q 35.15625 65.921875 28.609375 65.921875 
Q 23.96875 65.921875 18.8125 64.3125 
Q 13.671875 62.703125 7.8125 59.421875 
L 7.8125 69.390625 
Q 13.765625 71.78125 18.9375 73 
Q 24.125 74.21875 28.421875 74.21875 
Q 39.75 74.21875 46.484375 68.546875 
Q 53.21875 62.890625 53.21875 53.421875 
Q 53.21875 48.921875 51.53125 44.890625 
Q 49.859375 40.875 45.40625 35.40625 
Q 44.1875 33.984375 37.640625 27.21875 
Q 31.109375 20.453125 19.1875 8.296875 
z
" id="DejaVuSans-50"/>
     </defs>
     <use xlink:href="#DejaVuSans-65"/>
     <use x="68.408203" xlink:href="#DejaVuSans-88"/>
     <use x="136.914062" xlink:href="#DejaVuSans-76"/>
     <use x="192.626953" xlink:href="#DejaVuSans-50"/>
    </g>
   </g>
   <g id="text_3">
    <g id="patch_14">
     <path d="M 142.971946 43.542969 
L 171.159446 43.542969 
Q 174.459446 43.542969 174.459446 40.242969 
L 174.459446 29.597031 
Q 174.459446 26.297031 171.159446 26.297031 
L 142.971946 26.297031 
Q 139.671946 26.297031 139.671946 29.597031 
L 139.671946 40.242969 
Q 139.671946 43.542969 142.971946 43.542969 
z
" style="fill:#ebf6f9;stroke:#808080;stroke-linejoin:miter;stroke-width:0.3;"/>
    </g>
    <!-- AXL2 -->
    <g transform="translate(142.971946 37.955312)scale(0.11 -0.11)">
     <use xlink:href="#DejaVuSans-65"/>
     <use x="68.408203" xlink:href="#DejaVuSans-88"/>
     <use x="136.914062" xlink:href="#DejaVuSans-76"/>
     <use x="192.626953" xlink:href="#DejaVuSans-50"/>
    </g>
   </g>
   <g id="text_4">
    <g id="patch_15">
     <path d="M 148.391582 74.342969 
L 176.579082 74.342969 
Q 179.879082 74.342969 179.879082 71.042969 
L 179.879082 60.397031 
Q 179.879082 57.097031 176.579082 57.097031 
L 148.391582 57.097031 
Q 145.091582 57.097031 145.091582 60.397031 
L 145.091582 71.042969 
Q 145.091582 74.342969 148.391582 74.342969 
z
" style="fill:#fff6e5;stroke:#808080;stroke-linejoin:miter;stroke-width:0.3;"/>
    </g>
    <!-- AXL2 -->
    <g transform="translate(148.391582 68.755312)scale(0.11 -0.11)">
     <use xlink:href="#DejaVuSans-65"/>
     <use x="68.408203" xlink:href="#DejaVuSans-88"/>
     <use x="136.914062" xlink:href="#DejaVuSans-76"/>
     <use x="192.626953" xlink:href="#DejaVuSans-50"/>
    </g>
   </g>
   <g id="text_5">
    <g id="patch_16">
     <path d="M 31.542393 89.742969 
L 60.659737 89.742969 
Q 63.959737 89.742969 63.959737 86.442969 
L 63.959737 75.797031 
Q 63.959737 72.497031 60.659737 72.497031 
L 31.542393 72.497031 
Q 28.242393 72.497031 28.242393 75.797031 
L 28.242393 86.442969 
Q 28.242393 89.742969 31.542393 89.742969 
z
" style="fill:#fffbe5;stroke:#808080;stroke-linejoin:miter;stroke-width:0.3;"/>
    </g>
    <!-- REV7 -->
    <g transform="translate(31.542393 84.155312)scale(0.11 -0.11)">
     <defs>
      <path d="M 44.390625 34.1875 
Q 47.5625 33.109375 50.5625 29.59375 
Q 53.5625 26.078125 56.59375 19.921875 
L 66.609375 0 
L 56 0 
L 46.6875 18.703125 
Q 43.0625 26.03125 39.671875 28.421875 
Q 36.28125 30.8125 30.421875 30.8125 
L 19.671875 30.8125 
L 19.671875 0 
L 9.8125 0 
L 9.8125 72.90625 
L 32.078125 72.90625 
Q 44.578125 72.90625 50.734375 67.671875 
Q 56.890625 62.453125 56.890625 51.90625 
Q 56.890625 45.015625 53.6875 40.46875 
Q 50.484375 35.9375 44.390625 34.1875 
z
M 19.671875 64.796875 
L 19.671875 38.921875 
L 32.078125 38.921875 
Q 39.203125 38.921875 42.84375 42.21875 
Q 46.484375 45.515625 46.484375 51.90625 
Q 46.484375 58.296875 42.84375 61.546875 
Q 39.203125 64.796875 32.078125 64.796875 
z
" id="DejaVuSans-82"/>
      <path d="M 9.8125 72.90625 
L 55.90625 72.90625 
L 55.90625 64.59375 
L 19.671875 64.59375 
L 19.671875 43.015625 
L 54.390625 43.015625 
L 54.390625 34.71875 
L 19.671875 34.71875 
L 19.671875 8.296875 
L 56.78125 8.296875 
L 56.78125 0 
L 9.8125 0 
z
" id="DejaVuSans-69"/>
      <path d="M 28.609375 0 
L 0.78125 72.90625 
L 11.078125 72.90625 
L 34.1875 11.53125 
L 57.328125 72.90625 
L 67.578125 72.90625 
L 39.796875 0 
z
" id="DejaVuSans-86"/>
      <path d="M 8.203125 72.90625 
L 55.078125 72.90625 
L 55.078125 68.703125 
L 28.609375 0 
L 18.3125 0 
L 43.21875 64.59375 
L 8.203125 64.59375 
z
" id="DejaVuSans-55"/>
     </defs>
     <use xlink:href="#DejaVuSans-82"/>
     <use x="69.482422" xlink:href="#DejaVuSans-69"/>
     <use x="132.666016" xlink:href="#DejaVuSans-86"/>
     <use x="201.074219" xlink:href="#DejaVuSans-55"/>
    </g>
   </g>
   <g id="text_6">
    <g id="patch_17">
     <path d="M 19.371197 74.342969 
L 48.48854 74.342969 
Q 51.78854 74.342969 51.78854 71.042969 
L 51.78854 60.397031 
Q 51.78854 57.097031 48.48854 57.097031 
L 19.371197 57.097031 
Q 16.071197 57.097031 16.071197 60.397031 
L 16.071197 71.042969 
Q 16.071197 74.342969 19.371197 74.342969 
z
" style="fill:#ebf6f9;stroke:#808080;stroke-linejoin:miter;stroke-width:0.3;"/>
    </g>
    <!-- REV7 -->
    <g transform="translate(19.371197 68.755312)scale(0.11 -0.11)">
     <use xlink:href="#DejaVuSans-82"/>
     <use x="69.482422" xlink:href="#DejaVuSans-69"/>
     <use x="132.666016" xlink:href="#DejaVuSans-86"/>
     <use x="201.074219" xlink:href="#DejaVuSans-55"/>
    </g>
   </g>
   <g id="text_7">
    <g id="patch_18">
     <path d="M 7.2 58.942969 
L 36.317344 58.942969 
Q 39.617344 58.942969 39.617344 55.642969 
L 39.617344 44.997031 
Q 39.617344 41.697031 36.317344 41.697031 
L 7.2 41.697031 
Q 3.9 41.697031 3.9 44.997031 
L 3.9 55.642969 
Q 3.9 58.942969 7.2 58.942969 
z
" style="fill:#fff6e5;stroke:#808080;stroke-linejoin:miter;stroke-width:0.3;"/>
    </g>
    <!-- REV7 -->
    <g transform="translate(7.2 53.355312)scale(0.11 -0.11)">
     <use xlink:href="#DejaVuSans-82"/>
     <use x="69.482422" xlink:href="#DejaVuSans-69"/>
     <use x="132.666016" xlink:href="#DejaVuSans-86"/>
     <use x="201.074219" xlink:href="#DejaVuSans-55"/>
    </g>
   </g>
   <g id="text_8">
    <g id="patch_19">
     <path d="M 120.717864 89.742969 
L 176.876301 89.742969 
Q 180.176301 89.742969 180.176301 86.442969 
L 180.176301 75.797031 
Q 180.176301 72.497031 176.876301 72.497031 
L 120.717864 72.497031 
Q 117.417864 72.497031 117.417864 75.797031 
L 117.417864 86.442969 
Q 117.417864 89.742969 120.717864 89.742969 
z
" style="fill:#ebf6f9;stroke:#808080;stroke-linejoin:miter;stroke-width:0.3;"/>
    </g>
    <!-- TCP1-beta -->
    <g transform="translate(120.717864 84.155312)scale(0.11 -0.11)">
     <defs>
      <path d="M -0.296875 72.90625 
L 61.375 72.90625 
L 61.375 64.59375 
L 35.5 64.59375 
L 35.5 0 
L 25.59375 0 
L 25.59375 64.59375 
L -0.296875 64.59375 
z
" id="DejaVuSans-84"/>
      <path d="M 64.40625 67.28125 
L 64.40625 56.890625 
Q 59.421875 61.53125 53.78125 63.8125 
Q 48.140625 66.109375 41.796875 66.109375 
Q 29.296875 66.109375 22.65625 58.46875 
Q 16.015625 50.828125 16.015625 36.375 
Q 16.015625 21.96875 22.65625 14.328125 
Q 29.296875 6.6875 41.796875 6.6875 
Q 48.140625 6.6875 53.78125 8.984375 
Q 59.421875 11.28125 64.40625 15.921875 
L 64.40625 5.609375 
Q 59.234375 2.09375 53.4375 0.328125 
Q 47.65625 -1.421875 41.21875 -1.421875 
Q 24.65625 -1.421875 15.125 8.703125 
Q 5.609375 18.84375 5.609375 36.375 
Q 5.609375 53.953125 15.125 64.078125 
Q 24.65625 74.21875 41.21875 74.21875 
Q 47.75 74.21875 53.53125 72.484375 
Q 59.328125 70.75 64.40625 67.28125 
z
" id="DejaVuSans-67"/>
      <path d="M 19.671875 64.796875 
L 19.671875 37.40625 
L 32.078125 37.40625 
Q 38.96875 37.40625 42.71875 40.96875 
Q 46.484375 44.53125 46.484375 51.125 
Q 46.484375 57.671875 42.71875 61.234375 
Q 38.96875 64.796875 32.078125 64.796875 
z
M 9.8125 72.90625 
L 32.078125 72.90625 
Q 44.34375 72.90625 50.609375 67.359375 
Q 56.890625 61.8125 56.890625 51.125 
Q 56.890625 40.328125 50.609375 34.8125 
Q 44.34375 29.296875 32.078125 29.296875 
L 19.671875 29.296875 
L 19.671875 0 
L 9.8125 0 
z
" id="DejaVuSans-80"/>
      <path d="M 12.40625 8.296875 
L 28.515625 8.296875 
L 28.515625 63.921875 
L 10.984375 60.40625 
L 10.984375 69.390625 
L 28.421875 72.90625 
L 38.28125 72.90625 
L 38.28125 8.296875 
L 54.390625 8.296875 
L 54.390625 0 
L 12.40625 0 
z
" id="DejaVuSans-49"/>
      <path d="M 4.890625 31.390625 
L 31.203125 31.390625 
L 31.203125 23.390625 
L 4.890625 23.390625 
z
" id="DejaVuSans-45"/>
      <path d="M 48.6875 27.296875 
Q 48.6875 37.203125 44.609375 42.84375 
Q 40.53125 48.484375 33.40625 48.484375 
Q 26.265625 48.484375 22.1875 42.84375 
Q 18.109375 37.203125 18.109375 27.296875 
Q 18.109375 17.390625 22.1875 11.75 
Q 26.265625 6.109375 33.40625 6.109375 
Q 40.53125 6.109375 44.609375 11.75 
Q 48.6875 17.390625 48.6875 27.296875 
z
M 18.109375 46.390625 
Q 20.953125 51.265625 25.265625 53.625 
Q 29.59375 56 35.59375 56 
Q 45.5625 56 51.78125 48.09375 
Q 58.015625 40.1875 58.015625 27.296875 
Q 58.015625 14.40625 51.78125 6.484375 
Q 45.5625 -1.421875 35.59375 -1.421875 
Q 29.59375 -1.421875 25.265625 0.953125 
Q 20.953125 3.328125 18.109375 8.203125 
L 18.109375 0 
L 9.078125 0 
L 9.078125 75.984375 
L 18.109375 75.984375 
z
" id="DejaVuSans-98"/>
      <path d="M 18.3125 70.21875 
L 18.3125 54.6875 
L 36.8125 54.6875 
L 36.8125 47.703125 
L 18.3125 47.703125 
L 18.3125 18.015625 
Q 18.3125 11.328125 20.140625 9.421875 
Q 21.96875 7.515625 27.59375 7.515625 
L 36.8125 7.515625 
L 36.8125 0 
L 27.59375 0 
Q 17.1875 0 13.234375 3.875 
Q 9.28125 7.765625 9.28125 18.015625 
L 9.28125 47.703125 
L 2.6875 47.703125 
L 2.6875 54.6875 
L 9.28125 54.6875 
L 9.28125 70.21875 
z
" id="DejaVuSans-116"/>
      <path d="M 34.28125 27.484375 
Q 23.390625 27.484375 19.1875 25 
Q 14.984375 22.515625 14.984375 16.5 
Q 14.984375 11.71875 18.140625 8.90625 
Q 21.296875 6.109375 26.703125 6.109375 
Q 34.1875 6.109375 38.703125 11.40625 
Q 43.21875 16.703125 43.21875 25.484375 
L 43.21875 27.484375 
z
M 52.203125 31.203125 
L 52.203125 0 
L 43.21875 0 
L 43.21875 8.296875 
Q 40.140625 3.328125 35.546875 0.953125 
Q 30.953125 -1.421875 24.3125 -1.421875 
Q 15.921875 -1.421875 10.953125 3.296875 
Q 6 8.015625 6 15.921875 
Q 6 25.140625 12.171875 29.828125 
Q 18.359375 34.515625 30.609375 34.515625 
L 43.21875 34.515625 
L 43.21875 35.40625 
Q 43.21875 41.609375 39.140625 45 
Q 35.0625 48.390625 27.6875 48.390625 
Q 23 48.390625 18.546875 47.265625 
Q 14.109375 46.140625 10.015625 43.890625 
L 10.015625 52.203125 
Q 14.9375 54.109375 19.578125 55.046875 
Q 24.21875 56 28.609375 56 
Q 40.484375 56 46.34375 49.84375 
Q 52.203125 43.703125 52.203125 31.203125 
z
" id="DejaVuSans-97"/>
     </defs>
     <use xlink:href="#DejaVuSans-84"/>
     <use x="55.208984" xlink:href="#DejaVuSans-67"/>
     <use x="125.033203" xlink:href="#DejaVuSans-80"/>
     <use x="185.335938" xlink:href="#DejaVuSans-49"/>
     <use x="248.958984" xlink:href="#DejaVuSans-45"/>
     <use x="285.042969" xlink:href="#DejaVuSans-98"/>
     <use x="348.519531" xlink:href="#DejaVuSans-101"/>
     <use x="410.042969" xlink:href="#DejaVuSans-116"/>
     <use x="449.251953" xlink:href="#DejaVuSans-97"/>
    </g>
   </g>
   <g id="text_9">
    <!-- TCP1-beta -->
    <g transform="translate(125.66267 119.126495)scale(0.11 -0.11)">
     <use xlink:href="#DejaVuSans-84"/>
     <use x="55.208984" xlink:href="#DejaVuSans-67"/>
     <use x="125.033203" xlink:href="#DejaVuSans-80"/>
     <use x="185.335938" xlink:href="#DejaVuSans-49"/>
     <use x="248.958984" xlink:href="#DejaVuSans-45"/>
     <use x="285.042969" xlink:href="#DejaVuSans-98"/>
     <use x="348.519531" xlink:href="#DejaVuSans-101"/>
     <use x="410.042969" xlink:href="#DejaVuSans-116"/>
     <use x="449.251953" xlink:href="#DejaVuSans-97"/>
    </g>
   </g>
  </g>
 </g>
 <defs>
  <clipPath id="pc76dc632cd">
   <rect height="298.76" width="221.76" x="8.248246" y="7.2"/>
  </clipPath>
 </defs>
</svg>
