<?xml version="1.0" encoding="utf-8" standalone="no"?>
<!DOCTYPE svg PUBLIC "-//W3C//DTD SVG 1.1//EN"
  "http://www.w3.org/Graphics/SVG/1.1/DTD/svg11.dtd">
<!-- Created with matplotlib (https://matplotlib.org/) -->
<svg height="372.950296pt" version="1.1" viewBox="0 0 280.540426 372.950296" width="280.540426pt" xmlns="http://www.w3.org/2000/svg" xmlns:xlink="http://www.w3.org/1999/xlink">
 <metadata>
  <rdf:RDF xmlns:cc="http://creativecommons.org/ns#" xmlns:dc="http://purl.org/dc/elements/1.1/" xmlns:rdf="http://www.w3.org/1999/02/22-rdf-syntax-ns#">
   <cc:Work>
    <dc:type rdf:resource="http://purl.org/dc/dcmitype/StillImage"/>
    <dc:date>2021-03-15T19:24:43.762070</dc:date>
    <dc:format>image/svg+xml</dc:format>
    <dc:creator>
     <cc:Agent>
      <dc:title>Matplotlib v3.3.4, https://matplotlib.org/</dc:title>
     </cc:Agent>
    </dc:creator>
   </cc:Work>
  </rdf:RDF>
 </metadata>
 <defs>
  <style type="text/css">*{stroke-linecap:butt;stroke-linejoin:round;}</style>
 </defs>
 <g id="figure_1">
  <g id="patch_1">
   <path d="M 0 372.950296 
L 280.540426 372.950296 
L 280.540426 0 
L 0 0 
z
" style="fill:#ffffff;"/>
  </g>
  <g id="axes_1">
   <g id="line2d_1">
    <path clip-path="url(#pde1a69d71a)" d="M 119.535006 77.431501 
L 119.535006 303.64053 
" style="fill:none;stroke:#000000;stroke-linecap:square;stroke-width:0.5;"/>
   </g>
   <g id="line2d_2">
    <path clip-path="url(#pde1a69d71a)" d="M 179.295759 58.949527 
L 179.295759 312.348693 
" style="fill:none;stroke:#000000;stroke-linecap:square;stroke-width:0.5;"/>
   </g>
   <g id="line2d_3">
    <path clip-path="url(#pde1a69d71a)" d="M 185.800017 40.467553 
L 185.800017 325.626795 
" style="fill:none;stroke:#000000;stroke-linecap:square;stroke-width:0.5;"/>
   </g>
   <g id="line2d_4">
    <path clip-path="url(#pde1a69d71a)" d="M 192.304274 77.431501 
L 192.304274 338.904897 
" style="fill:none;stroke:#000000;stroke-linecap:square;stroke-width:0.5;"/>
   </g>
   <g id="line2d_5">
    <path clip-path="url(#pde1a69d71a)" d="M 52.628236 95.913475 
L 52.628236 218.933648 
" style="fill:none;stroke:#000000;stroke-linecap:square;stroke-width:0.5;"/>
   </g>
   <g id="line2d_6">
    <path clip-path="url(#pde1a69d71a)" d="M 38.021239 77.431501 
L 38.021239 216.642575 
" style="fill:none;stroke:#000000;stroke-linecap:square;stroke-width:0.5;"/>
   </g>
   <g id="line2d_7">
    <path clip-path="url(#pde1a69d71a)" d="M 23.414243 58.949527 
L 23.414243 214.351502 
" style="fill:none;stroke:#000000;stroke-linecap:square;stroke-width:0.5;"/>
   </g>
   <g id="line2d_8">
    <path clip-path="url(#pde1a69d71a)" d="M 175.87662 95.913475 
L 175.87662 151.425763 
" style="fill:none;stroke:#000000;stroke-linecap:square;stroke-width:0.5;"/>
   </g>
   <g id="patch_2">
    <path clip-path="url(#pde1a69d71a)" d="M 140.270213 306.607979 
C 159.87612 306.607979 178.68166 298.81847 192.54513 284.955 
C 206.4086 271.09153 214.198109 252.28599 214.198109 232.680083 
C 214.198109 213.074176 206.4086 194.268636 192.54513 180.405166 
C 178.68166 166.541697 159.87612 158.752187 140.270213 158.752187 
C 120.664306 158.752187 101.858766 166.541697 87.995296 180.405166 
C 74.131826 194.268636 66.342317 213.074176 66.342317 232.680083 
C 66.342317 252.28599 74.131826 271.09153 87.995296 284.955 
C 101.858766 298.81847 120.664306 306.607979 140.270213 306.607979 
z
" style="fill:none;stroke:#000000;stroke-linejoin:miter;"/>
   </g>
   <g id="patch_3">
    <path clip-path="url(#pde1a69d71a)" d="M 162.504322 156.766283 
C 172.333911 159.645234 181.511414 164.406126 189.525948 170.783934 
C 197.540482 177.161742 204.240521 185.035885 209.253095 193.968034 
C 214.265669 202.900184 217.496008 212.721464 218.76429 222.885157 
C 220.032572 233.04885 219.314818 243.362796 216.650983 253.25285 
C 213.987148 263.142904 209.427595 272.422081 203.226141 280.573839 
C 197.024687 288.725597 189.298578 295.595815 180.477903 300.80205 
C 171.657228 306.008285 161.908754 309.452106 151.775147 310.941805 
C 141.641541 312.431505 131.314392 311.93892 121.36858 309.491469 
C 111.422768 307.044018 102.046333 302.687975 93.761231 296.665826 
C 85.476129 290.643677 78.439002 283.06928 73.041584 274.364278 
C 67.644166 265.659275 63.988503 255.988248 62.278094 245.88955 
C 60.567685 235.790853 60.834868 225.455416 63.064769 215.45858 
C 65.294671 205.461744 69.445132 195.992513 75.285109 187.578011 
C 81.125086 179.163508 88.544166 171.962821 97.129353 166.376788 
C 105.71454 160.790756 115.303518 156.924991 125.3625 154.994687 
C 135.421482 153.064383 145.760288 153.106036 155.80339 155.117327 
L 155.80339 155.117327 
L 161.049754 161.732606 
L 153.771012 165.265725 
L 153.771012 165.265725 
C 145.041961 163.517594 136.055896 163.481391 127.313042 165.159131 
C 118.570189 166.836872 110.235843 170.196836 102.773952 175.051986 
C 95.31206 179.907135 88.863701 186.165676 83.787833 193.479216 
C 78.711965 200.792756 75.104555 209.023022 73.166416 217.71186 
C 71.228277 226.400699 70.996053 235.383836 72.48267 244.161209 
C 73.969287 252.938581 77.146639 261.344241 81.837853 268.910271 
C 86.529067 276.476301 92.645448 283.059656 99.846518 288.29386 
C 107.047588 293.528064 115.1972 297.314157 123.841691 299.441381 
C 132.486181 301.568605 141.462115 301.99674 150.269829 300.701954 
C 159.077543 299.407168 167.550516 296.413941 175.217084 291.888895 
C 182.883652 287.36385 189.598868 281.392539 194.988917 274.307366 
C 200.378966 267.222194 204.341941 259.157114 206.657237 250.561086 
C 208.972533 241.965057 209.596375 233.0006 208.494037 224.166736 
C 207.391698 215.332872 204.58402 206.796619 200.227297 199.033162 
C 195.870574 191.269705 190.047176 184.425824 183.081272 178.882496 
C 176.115369 173.339167 168.138661 169.201196 159.595186 166.698929 
L 159.595186 166.698929 
z
" style="fill:#ff00ff;stroke:#000000;stroke-linejoin:miter;"/>
   </g>
   <g id="patch_4">
    <path clip-path="url(#pde1a69d71a)" d="M 225.665267 193.658017 
C 235.539791 215.267214 236.853078 239.839045 229.338115 262.377655 
C 221.823152 284.916265 206.02627 303.783118 185.159234 315.142273 
C 164.292197 326.501428 139.872021 329.527086 116.863727 323.604081 
C 93.855432 317.681075 73.931701 303.240004 61.143354 283.216972 
L 61.143354 283.216972 
L 61.627375 273.73352 
L 69.866 277.645976 
L 69.866 277.645976 
C 81.244608 295.461745 98.972022 308.310887 119.443969 313.580963 
C 139.915916 318.851039 161.644104 316.158918 180.210838 306.051953 
C 198.777571 295.944988 212.833064 279.157946 219.519606 259.103907 
C 226.206148 239.049868 225.037633 217.186743 216.251639 197.959662 
L 216.251639 197.959662 
z
" style="fill:#ffd700;stroke:#000000;stroke-linejoin:miter;"/>
   </g>
   <g id="patch_5">
    <path clip-path="url(#pde1a69d71a)" d="M 239.113307 187.51281 
C 250.542874 212.52503 252.062978 240.966441 243.364556 267.054438 
C 234.666134 293.142436 216.381554 314.980446 192.228371 328.128445 
C 168.075187 341.276443 139.809314 344.778583 113.177666 337.92282 
C 86.546018 331.067058 63.484691 314.351802 48.682431 291.175537 
L 48.682431 291.175537 
L 48.520235 280.575759 
L 57.405077 285.604541 
L 57.405077 285.604541 
C 70.797598 306.573543 91.662608 321.69687 115.757908 327.899703 
C 139.853209 334.102535 165.427094 330.933933 187.279975 319.038125 
C 209.132855 307.142316 225.676047 287.384116 233.546047 263.78069 
C 241.416048 240.177264 240.040716 214.444559 229.699679 191.814455 
L 229.699679 191.814455 
z
" style="fill:#add8e6;stroke:#000000;stroke-linejoin:miter;"/>
   </g>
   <g id="patch_6">
    <path clip-path="url(#pde1a69d71a)" d="M 252.561347 181.367603 
C 265.545958 209.782846 267.272878 242.093836 257.390997 271.731221 
C 247.509117 301.368606 226.736839 326.177774 199.297508 341.114616 
C 171.858176 356.051458 139.746606 360.030079 109.491605 352.24156 
C 79.236603 344.453041 53.037682 325.463601 36.221509 299.134102 
L 36.221509 299.134102 
L 35.413095 287.417999 
L 44.944155 293.563107 
L 44.944155 293.563107 
C 60.350588 317.685342 84.353193 335.082853 112.071847 342.218442 
C 139.790502 349.354032 169.210084 345.708948 194.349112 332.024296 
C 219.48814 318.339645 238.519029 295.610287 247.572488 268.457473 
C 256.625948 241.304659 255.043799 211.702375 243.147719 185.669248 
L 243.147719 185.669248 
z
" style="fill:#ffa500;stroke:#000000;stroke-linejoin:miter;"/>
   </g>
   <g id="patch_7">
    <path clip-path="url(#pde1a69d71a)" d="M 63.710611 178.332459 
C 56.120175 189.02512 50.853332 201.190308 48.250284 214.042228 
C 45.647237 226.894149 45.765266 240.149996 48.596747 252.953528 
L 48.596747 252.953528 
L 55.648789 259.312682 
L 58.702484 250.71866 
L 58.702484 250.71866 
C 56.183134 239.326541 56.078116 227.531968 58.394213 216.096795 
C 60.710311 204.661622 65.396557 193.837478 72.150252 184.323536 
L 72.150252 184.323536 
z
" style="fill:#ffd700;stroke:#000000;stroke-linejoin:miter;"/>
   </g>
   <g id="patch_8">
    <path clip-path="url(#pde1a69d71a)" d="M 51.653981 169.773778 
C 42.868201 182.150323 36.771933 196.231288 33.758957 211.107133 
C 30.745981 225.982978 30.882597 241.326361 34.159981 256.146197 
L 34.159981 256.146197 
L 41.545219 263.751449 
L 44.265717 253.911329 
L 44.265717 253.911329 
C 41.300465 240.502906 41.17686 226.620798 43.902886 213.1617 
C 46.628912 199.702602 52.144583 186.962681 60.093622 175.764855 
L 60.093622 175.764855 
z
" style="fill:#add8e6;stroke:#000000;stroke-linejoin:miter;"/>
   </g>
   <g id="patch_9">
    <path clip-path="url(#pde1a69d71a)" d="M 39.59735 161.215097 
C 29.616226 175.275526 22.690534 191.272268 19.26763 208.172038 
C 15.844725 225.071807 15.999928 242.502725 19.723215 259.338865 
L 19.723215 259.338865 
L 27.441648 268.190215 
L 29.828951 257.103997 
L 29.828951 257.103997 
C 26.417796 241.67927 26.275604 225.709627 29.411559 210.226604 
C 32.547513 194.743582 38.892608 180.087884 48.036991 167.206174 
L 48.036991 167.206174 
z
" style="fill:#ffa500;stroke:#000000;stroke-linejoin:miter;"/>
   </g>
   <g id="patch_10">
    <path clip-path="url(#pde1a69d71a)" d="M 166.66023 142.576787 
C 169.215932 143.325317 171.738631 144.182244 174.221482 145.145243 
C 176.704332 146.108241 179.145087 147.17644 181.537124 148.34694 
L 181.537124 148.34694 
L 186.059185 156.696857 
L 176.988016 157.643507 
L 176.988016 157.643507 
C 174.859668 156.602038 172.687973 155.651594 170.478822 154.794753 
C 168.269672 153.937911 166.025066 153.175449 163.751094 152.509434 
L 163.751094 152.509434 
z
" style="fill:#add8e6;stroke:#000000;stroke-linejoin:miter;"/>
   </g>
   <g id="patch_11">
    <path clip-path="url(#pde1a69d71a)" d="M 170.816138 128.387292 
C 173.774313 129.253701 176.694287 130.245577 179.568138 131.360228 
C 182.441989 132.47488 185.267114 133.711299 188.03585 135.06613 
L 188.03585 135.06613 
L 193.690681 144.032986 
L 183.486742 144.362697 
L 183.486742 144.362697 
C 180.981695 143.136898 178.425629 142.018233 175.825479 141.009738 
C 173.225328 140.001244 170.583447 139.103832 167.907002 138.319939 
L 167.907002 138.319939 
z
" style="fill:#ffa500;stroke:#000000;stroke-linejoin:miter;"/>
   </g>
   <g id="text_1">
    <g id="patch_12">
     <path d="M 101.273287 86.05447 
L 137.796724 86.05447 
Q 141.096724 86.05447 141.096724 82.75447 
L 141.096724 72.108533 
Q 141.096724 68.808533 137.796724 68.808533 
L 101.273287 68.808533 
Q 97.973287 68.808533 97.973287 72.108533 
L 97.973287 82.75447 
Q 97.973287 86.05447 101.273287 86.05447 
z
" style="fill:#ffe5ff;stroke:#808080;stroke-linejoin:miter;stroke-width:0.3;"/>
    </g>
    <!-- source -->
    <g transform="translate(101.273287 80.466814)scale(0.11 -0.11)">
     <defs>
      <path d="M 44.28125 53.078125 
L 44.28125 44.578125 
Q 40.484375 46.53125 36.375 47.5 
Q 32.28125 48.484375 27.875 48.484375 
Q 21.1875 48.484375 17.84375 46.4375 
Q 14.5 44.390625 14.5 40.28125 
Q 14.5 37.15625 16.890625 35.375 
Q 19.28125 33.59375 26.515625 31.984375 
L 29.59375 31.296875 
Q 39.15625 29.25 43.1875 25.515625 
Q 47.21875 21.78125 47.21875 15.09375 
Q 47.21875 7.46875 41.1875 3.015625 
Q 35.15625 -1.421875 24.609375 -1.421875 
Q 20.21875 -1.421875 15.453125 -0.5625 
Q 10.6875 0.296875 5.421875 2 
L 5.421875 11.28125 
Q 10.40625 8.6875 15.234375 7.390625 
Q 20.0625 6.109375 24.8125 6.109375 
Q 31.15625 6.109375 34.5625 8.28125 
Q 37.984375 10.453125 37.984375 14.40625 
Q 37.984375 18.0625 35.515625 20.015625 
Q 33.0625 21.96875 24.703125 23.78125 
L 21.578125 24.515625 
Q 13.234375 26.265625 9.515625 29.90625 
Q 5.8125 33.546875 5.8125 39.890625 
Q 5.8125 47.609375 11.28125 51.796875 
Q 16.75 56 26.8125 56 
Q 31.78125 56 36.171875 55.265625 
Q 40.578125 54.546875 44.28125 53.078125 
z
" id="DejaVuSans-115"/>
      <path d="M 30.609375 48.390625 
Q 23.390625 48.390625 19.1875 42.75 
Q 14.984375 37.109375 14.984375 27.296875 
Q 14.984375 17.484375 19.15625 11.84375 
Q 23.34375 6.203125 30.609375 6.203125 
Q 37.796875 6.203125 41.984375 11.859375 
Q 46.1875 17.53125 46.1875 27.296875 
Q 46.1875 37.015625 41.984375 42.703125 
Q 37.796875 48.390625 30.609375 48.390625 
z
M 30.609375 56 
Q 42.328125 56 49.015625 48.375 
Q 55.71875 40.765625 55.71875 27.296875 
Q 55.71875 13.875 49.015625 6.21875 
Q 42.328125 -1.421875 30.609375 -1.421875 
Q 18.84375 -1.421875 12.171875 6.21875 
Q 5.515625 13.875 5.515625 27.296875 
Q 5.515625 40.765625 12.171875 48.375 
Q 18.84375 56 30.609375 56 
z
" id="DejaVuSans-111"/>
      <path d="M 8.5 21.578125 
L 8.5 54.6875 
L 17.484375 54.6875 
L 17.484375 21.921875 
Q 17.484375 14.15625 20.5 10.265625 
Q 23.53125 6.390625 29.59375 6.390625 
Q 36.859375 6.390625 41.078125 11.03125 
Q 45.3125 15.671875 45.3125 23.6875 
L 45.3125 54.6875 
L 54.296875 54.6875 
L 54.296875 0 
L 45.3125 0 
L 45.3125 8.40625 
Q 42.046875 3.421875 37.71875 1 
Q 33.40625 -1.421875 27.6875 -1.421875 
Q 18.265625 -1.421875 13.375 4.4375 
Q 8.5 10.296875 8.5 21.578125 
z
M 31.109375 56 
z
" id="DejaVuSans-117"/>
      <path d="M 41.109375 46.296875 
Q 39.59375 47.171875 37.8125 47.578125 
Q 36.03125 48 33.890625 48 
Q 26.265625 48 22.1875 43.046875 
Q 18.109375 38.09375 18.109375 28.8125 
L 18.109375 0 
L 9.078125 0 
L 9.078125 54.6875 
L 18.109375 54.6875 
L 18.109375 46.1875 
Q 20.953125 51.171875 25.484375 53.578125 
Q 30.03125 56 36.53125 56 
Q 37.453125 56 38.578125 55.875 
Q 39.703125 55.765625 41.0625 55.515625 
z
" id="DejaVuSans-114"/>
      <path d="M 48.78125 52.59375 
L 48.78125 44.1875 
Q 44.96875 46.296875 41.140625 47.34375 
Q 37.3125 48.390625 33.40625 48.390625 
Q 24.65625 48.390625 19.8125 42.84375 
Q 14.984375 37.3125 14.984375 27.296875 
Q 14.984375 17.28125 19.8125 11.734375 
Q 24.65625 6.203125 33.40625 6.203125 
Q 37.3125 6.203125 41.140625 7.25 
Q 44.96875 8.296875 48.78125 10.40625 
L 48.78125 2.09375 
Q 45.015625 0.34375 40.984375 -0.53125 
Q 36.96875 -1.421875 32.421875 -1.421875 
Q 20.0625 -1.421875 12.78125 6.34375 
Q 5.515625 14.109375 5.515625 27.296875 
Q 5.515625 40.671875 12.859375 48.328125 
Q 20.21875 56 33.015625 56 
Q 37.15625 56 41.109375 55.140625 
Q 45.0625 54.296875 48.78125 52.59375 
z
" id="DejaVuSans-99"/>
      <path d="M 56.203125 29.59375 
L 56.203125 25.203125 
L 14.890625 25.203125 
Q 15.484375 15.921875 20.484375 11.0625 
Q 25.484375 6.203125 34.421875 6.203125 
Q 39.59375 6.203125 44.453125 7.46875 
Q 49.3125 8.734375 54.109375 11.28125 
L 54.109375 2.78125 
Q 49.265625 0.734375 44.1875 -0.34375 
Q 39.109375 -1.421875 33.890625 -1.421875 
Q 20.796875 -1.421875 13.15625 6.1875 
Q 5.515625 13.8125 5.515625 26.8125 
Q 5.515625 40.234375 12.765625 48.109375 
Q 20.015625 56 32.328125 56 
Q 43.359375 56 49.78125 48.890625 
Q 56.203125 41.796875 56.203125 29.59375 
z
M 47.21875 32.234375 
Q 47.125 39.59375 43.09375 43.984375 
Q 39.0625 48.390625 32.421875 48.390625 
Q 24.90625 48.390625 20.390625 44.140625 
Q 15.875 39.890625 15.1875 32.171875 
z
" id="DejaVuSans-101"/>
     </defs>
     <use xlink:href="#DejaVuSans-115"/>
     <use x="52.099609" xlink:href="#DejaVuSans-111"/>
     <use x="113.28125" xlink:href="#DejaVuSans-117"/>
     <use x="176.660156" xlink:href="#DejaVuSans-114"/>
     <use x="215.523438" xlink:href="#DejaVuSans-99"/>
     <use x="270.503906" xlink:href="#DejaVuSans-101"/>
    </g>
   </g>
   <g id="text_2">
    <g id="patch_13">
     <path d="M 165.202009 67.572496 
L 193.389509 67.572496 
Q 196.689509 67.572496 196.689509 64.272496 
L 196.689509 53.626559 
Q 196.689509 50.326559 193.389509 50.326559 
L 165.202009 50.326559 
Q 161.902009 50.326559 161.902009 53.626559 
L 161.902009 64.272496 
Q 161.902009 67.572496 165.202009 67.572496 
z
" style="fill:#fffbe5;stroke:#808080;stroke-linejoin:miter;stroke-width:0.3;"/>
    </g>
    <!-- AXL2 -->
    <g transform="translate(165.202009 61.98484)scale(0.11 -0.11)">
     <defs>
      <path d="M 34.1875 63.1875 
L 20.796875 26.90625 
L 47.609375 26.90625 
z
M 28.609375 72.90625 
L 39.796875 72.90625 
L 67.578125 0 
L 57.328125 0 
L 50.6875 18.703125 
L 17.828125 18.703125 
L 11.1875 0 
L 0.78125 0 
z
" id="DejaVuSans-65"/>
      <path d="M 6.296875 72.90625 
L 16.890625 72.90625 
L 35.015625 45.796875 
L 53.21875 72.90625 
L 63.8125 72.90625 
L 40.375 37.890625 
L 65.375 0 
L 54.78125 0 
L 34.28125 31 
L 13.625 0 
L 2.984375 0 
L 29 38.921875 
z
" id="DejaVuSans-88"/>
      <path d="M 9.8125 72.90625 
L 19.671875 72.90625 
L 19.671875 8.296875 
L 55.171875 8.296875 
L 55.171875 0 
L 9.8125 0 
z
" id="DejaVuSans-76"/>
      <path d="M 19.1875 8.296875 
L 53.609375 8.296875 
L 53.609375 0 
L 7.328125 0 
L 7.328125 8.296875 
Q 12.9375 14.109375 22.625 23.890625 
Q 32.328125 33.6875 34.8125 36.53125 
Q 39.546875 41.84375 41.421875 45.53125 
Q 43.3125 49.21875 43.3125 52.78125 
Q 43.3125 58.59375 39.234375 62.25 
Q 35.15625 65.921875 28.609375 65.921875 
Q 23.96875 65.921875 18.8125 64.3125 
Q 13.671875 62.703125 7.8125 59.421875 
L 7.8125 69.390625 
Q 13.765625 71.78125 18.9375 73 
Q 24.125 74.21875 28.421875 74.21875 
Q 39.75 74.21875 46.484375 68.546875 
Q 53.21875 62.890625 53.21875 53.421875 
Q 53.21875 48.921875 51.53125 44.890625 
Q 49.859375 40.875 45.40625 35.40625 
Q 44.1875 33.984375 37.640625 27.21875 
Q 31.109375 20.453125 19.1875 8.296875 
z
" id="DejaVuSans-50"/>
     </defs>
     <use xlink:href="#DejaVuSans-65"/>
     <use x="68.408203" xlink:href="#DejaVuSans-88"/>
     <use x="136.914062" xlink:href="#DejaVuSans-76"/>
     <use x="192.626953" xlink:href="#DejaVuSans-50"/>
    </g>
   </g>
   <g id="text_3">
    <g id="patch_14">
     <path d="M 171.706267 49.090522 
L 199.893767 49.090522 
Q 203.193767 49.090522 203.193767 45.790522 
L 203.193767 35.144585 
Q 203.193767 31.844585 199.893767 31.844585 
L 171.706267 31.844585 
Q 168.406267 31.844585 168.406267 35.144585 
L 168.406267 45.790522 
Q 168.406267 49.090522 171.706267 49.090522 
z
" style="fill:#ebf6f9;stroke:#808080;stroke-linejoin:miter;stroke-width:0.3;"/>
    </g>
    <!-- AXL2 -->
    <g transform="translate(171.706267 43.502866)scale(0.11 -0.11)">
     <use xlink:href="#DejaVuSans-65"/>
     <use x="68.408203" xlink:href="#DejaVuSans-88"/>
     <use x="136.914062" xlink:href="#DejaVuSans-76"/>
     <use x="192.626953" xlink:href="#DejaVuSans-50"/>
    </g>
   </g>
   <g id="text_4">
    <g id="patch_15">
     <path d="M 178.210524 86.05447 
L 206.398024 86.05447 
Q 209.698024 86.05447 209.698024 82.75447 
L 209.698024 72.108533 
Q 209.698024 68.808533 206.398024 68.808533 
L 178.210524 68.808533 
Q 174.910524 68.808533 174.910524 72.108533 
L 174.910524 82.75447 
Q 174.910524 86.05447 178.210524 86.05447 
z
" style="fill:#fff6e5;stroke:#808080;stroke-linejoin:miter;stroke-width:0.3;"/>
    </g>
    <!-- AXL2 -->
    <g transform="translate(178.210524 80.466814)scale(0.11 -0.11)">
     <use xlink:href="#DejaVuSans-65"/>
     <use x="68.408203" xlink:href="#DejaVuSans-88"/>
     <use x="136.914062" xlink:href="#DejaVuSans-76"/>
     <use x="192.626953" xlink:href="#DejaVuSans-50"/>
    </g>
   </g>
   <g id="text_5">
    <g id="patch_16">
     <path d="M 38.069564 104.536444 
L 67.186907 104.536444 
Q 70.486907 104.536444 70.486907 101.236444 
L 70.486907 90.590507 
Q 70.486907 87.290507 67.186907 87.290507 
L 38.069564 87.290507 
Q 34.769564 87.290507 34.769564 90.590507 
L 34.769564 101.236444 
Q 34.769564 104.536444 38.069564 104.536444 
z
" style="fill:#fffbe5;stroke:#808080;stroke-linejoin:miter;stroke-width:0.3;"/>
    </g>
    <!-- REV7 -->
    <g transform="translate(38.069564 98.948788)scale(0.11 -0.11)">
     <defs>
      <path d="M 44.390625 34.1875 
Q 47.5625 33.109375 50.5625 29.59375 
Q 53.5625 26.078125 56.59375 19.921875 
L 66.609375 0 
L 56 0 
L 46.6875 18.703125 
Q 43.0625 26.03125 39.671875 28.421875 
Q 36.28125 30.8125 30.421875 30.8125 
L 19.671875 30.8125 
L 19.671875 0 
L 9.8125 0 
L 9.8125 72.90625 
L 32.078125 72.90625 
Q 44.578125 72.90625 50.734375 67.671875 
Q 56.890625 62.453125 56.890625 51.90625 
Q 56.890625 45.015625 53.6875 40.46875 
Q 50.484375 35.9375 44.390625 34.1875 
z
M 19.671875 64.796875 
L 19.671875 38.921875 
L 32.078125 38.921875 
Q 39.203125 38.921875 42.84375 42.21875 
Q 46.484375 45.515625 46.484375 51.90625 
Q 46.484375 58.296875 42.84375 61.546875 
Q 39.203125 64.796875 32.078125 64.796875 
z
" id="DejaVuSans-82"/>
      <path d="M 9.8125 72.90625 
L 55.90625 72.90625 
L 55.90625 64.59375 
L 19.671875 64.59375 
L 19.671875 43.015625 
L 54.390625 43.015625 
L 54.390625 34.71875 
L 19.671875 34.71875 
L 19.671875 8.296875 
L 56.78125 8.296875 
L 56.78125 0 
L 9.8125 0 
z
" id="DejaVuSans-69"/>
      <path d="M 28.609375 0 
L 0.78125 72.90625 
L 11.078125 72.90625 
L 34.1875 11.53125 
L 57.328125 72.90625 
L 67.578125 72.90625 
L 39.796875 0 
z
" id="DejaVuSans-86"/>
      <path d="M 8.203125 72.90625 
L 55.078125 72.90625 
L 55.078125 68.703125 
L 28.609375 0 
L 18.3125 0 
L 43.21875 64.59375 
L 8.203125 64.59375 
z
" id="DejaVuSans-55"/>
     </defs>
     <use xlink:href="#DejaVuSans-82"/>
     <use x="69.482422" xlink:href="#DejaVuSans-69"/>
     <use x="132.666016" xlink:href="#DejaVuSans-86"/>
     <use x="201.074219" xlink:href="#DejaVuSans-55"/>
    </g>
   </g>
   <g id="text_6">
    <g id="patch_17">
     <path d="M 23.462567 86.05447 
L 52.579911 86.05447 
Q 55.879911 86.05447 55.879911 82.75447 
L 55.879911 72.108533 
Q 55.879911 68.808533 52.579911 68.808533 
L 23.462567 68.808533 
Q 20.162567 68.808533 20.162567 72.108533 
L 20.162567 82.75447 
Q 20.162567 86.05447 23.462567 86.05447 
z
" style="fill:#ebf6f9;stroke:#808080;stroke-linejoin:miter;stroke-width:0.3;"/>
    </g>
    <!-- REV7 -->
    <g transform="translate(23.462567 80.466814)scale(0.11 -0.11)">
     <use xlink:href="#DejaVuSans-82"/>
     <use x="69.482422" xlink:href="#DejaVuSans-69"/>
     <use x="132.666016" xlink:href="#DejaVuSans-86"/>
     <use x="201.074219" xlink:href="#DejaVuSans-55"/>
    </g>
   </g>
   <g id="text_7">
    <g id="patch_18">
     <path d="M 8.855571 67.572496 
L 37.972915 67.572496 
Q 41.272915 67.572496 41.272915 64.272496 
L 41.272915 53.626559 
Q 41.272915 50.326559 37.972915 50.326559 
L 8.855571 50.326559 
Q 5.555571 50.326559 5.555571 53.626559 
L 5.555571 64.272496 
Q 5.555571 67.572496 8.855571 67.572496 
z
" style="fill:#fff6e5;stroke:#808080;stroke-linejoin:miter;stroke-width:0.3;"/>
    </g>
    <!-- REV7 -->
    <g transform="translate(8.855571 61.98484)scale(0.11 -0.11)">
     <use xlink:href="#DejaVuSans-82"/>
     <use x="69.482422" xlink:href="#DejaVuSans-69"/>
     <use x="132.666016" xlink:href="#DejaVuSans-86"/>
     <use x="201.074219" xlink:href="#DejaVuSans-55"/>
    </g>
   </g>
   <g id="text_8">
    <g id="patch_19">
     <path d="M 147.797401 104.536444 
L 203.955838 104.536444 
Q 207.255838 104.536444 207.255838 101.236444 
L 207.255838 90.590507 
Q 207.255838 87.290507 203.955838 87.290507 
L 147.797401 87.290507 
Q 144.497401 87.290507 144.497401 90.590507 
L 144.497401 101.236444 
Q 144.497401 104.536444 147.797401 104.536444 
z
" style="fill:#ebf6f9;stroke:#808080;stroke-linejoin:miter;stroke-width:0.3;"/>
    </g>
    <!-- TCP1-beta -->
    <g transform="translate(147.797401 98.948788)scale(0.11 -0.11)">
     <defs>
      <path d="M -0.296875 72.90625 
L 61.375 72.90625 
L 61.375 64.59375 
L 35.5 64.59375 
L 35.5 0 
L 25.59375 0 
L 25.59375 64.59375 
L -0.296875 64.59375 
z
" id="DejaVuSans-84"/>
      <path d="M 64.40625 67.28125 
L 64.40625 56.890625 
Q 59.421875 61.53125 53.78125 63.8125 
Q 48.140625 66.109375 41.796875 66.109375 
Q 29.296875 66.109375 22.65625 58.46875 
Q 16.015625 50.828125 16.015625 36.375 
Q 16.015625 21.96875 22.65625 14.328125 
Q 29.296875 6.6875 41.796875 6.6875 
Q 48.140625 6.6875 53.78125 8.984375 
Q 59.421875 11.28125 64.40625 15.921875 
L 64.40625 5.609375 
Q 59.234375 2.09375 53.4375 0.328125 
Q 47.65625 -1.421875 41.21875 -1.421875 
Q 24.65625 -1.421875 15.125 8.703125 
Q 5.609375 18.84375 5.609375 36.375 
Q 5.609375 53.953125 15.125 64.078125 
Q 24.65625 74.21875 41.21875 74.21875 
Q 47.75 74.21875 53.53125 72.484375 
Q 59.328125 70.75 64.40625 67.28125 
z
" id="DejaVuSans-67"/>
      <path d="M 19.671875 64.796875 
L 19.671875 37.40625 
L 32.078125 37.40625 
Q 38.96875 37.40625 42.71875 40.96875 
Q 46.484375 44.53125 46.484375 51.125 
Q 46.484375 57.671875 42.71875 61.234375 
Q 38.96875 64.796875 32.078125 64.796875 
z
M 9.8125 72.90625 
L 32.078125 72.90625 
Q 44.34375 72.90625 50.609375 67.359375 
Q 56.890625 61.8125 56.890625 51.125 
Q 56.890625 40.328125 50.609375 34.8125 
Q 44.34375 29.296875 32.078125 29.296875 
L 19.671875 29.296875 
L 19.671875 0 
L 9.8125 0 
z
" id="DejaVuSans-80"/>
      <path d="M 12.40625 8.296875 
L 28.515625 8.296875 
L 28.515625 63.921875 
L 10.984375 60.40625 
L 10.984375 69.390625 
L 28.421875 72.90625 
L 38.28125 72.90625 
L 38.28125 8.296875 
L 54.390625 8.296875 
L 54.390625 0 
L 12.40625 0 
z
" id="DejaVuSans-49"/>
      <path d="M 4.890625 31.390625 
L 31.203125 31.390625 
L 31.203125 23.390625 
L 4.890625 23.390625 
z
" id="DejaVuSans-45"/>
      <path d="M 48.6875 27.296875 
Q 48.6875 37.203125 44.609375 42.84375 
Q 40.53125 48.484375 33.40625 48.484375 
Q 26.265625 48.484375 22.1875 42.84375 
Q 18.109375 37.203125 18.109375 27.296875 
Q 18.109375 17.390625 22.1875 11.75 
Q 26.265625 6.109375 33.40625 6.109375 
Q 40.53125 6.109375 44.609375 11.75 
Q 48.6875 17.390625 48.6875 27.296875 
z
M 18.109375 46.390625 
Q 20.953125 51.265625 25.265625 53.625 
Q 29.59375 56 35.59375 56 
Q 45.5625 56 51.78125 48.09375 
Q 58.015625 40.1875 58.015625 27.296875 
Q 58.015625 14.40625 51.78125 6.484375 
Q 45.5625 -1.421875 35.59375 -1.421875 
Q 29.59375 -1.421875 25.265625 0.953125 
Q 20.953125 3.328125 18.109375 8.203125 
L 18.109375 0 
L 9.078125 0 
L 9.078125 75.984375 
L 18.109375 75.984375 
z
" id="DejaVuSans-98"/>
      <path d="M 18.3125 70.21875 
L 18.3125 54.6875 
L 36.8125 54.6875 
L 36.8125 47.703125 
L 18.3125 47.703125 
L 18.3125 18.015625 
Q 18.3125 11.328125 20.140625 9.421875 
Q 21.96875 7.515625 27.59375 7.515625 
L 36.8125 7.515625 
L 36.8125 0 
L 27.59375 0 
Q 17.1875 0 13.234375 3.875 
Q 9.28125 7.765625 9.28125 18.015625 
L 9.28125 47.703125 
L 2.6875 47.703125 
L 2.6875 54.6875 
L 9.28125 54.6875 
L 9.28125 70.21875 
z
" id="DejaVuSans-116"/>
      <path d="M 34.28125 27.484375 
Q 23.390625 27.484375 19.1875 25 
Q 14.984375 22.515625 14.984375 16.5 
Q 14.984375 11.71875 18.140625 8.90625 
Q 21.296875 6.109375 26.703125 6.109375 
Q 34.1875 6.109375 38.703125 11.40625 
Q 43.21875 16.703125 43.21875 25.484375 
L 43.21875 27.484375 
z
M 52.203125 31.203125 
L 52.203125 0 
L 43.21875 0 
L 43.21875 8.296875 
Q 40.140625 3.328125 35.546875 0.953125 
Q 30.953125 -1.421875 24.3125 -1.421875 
Q 15.921875 -1.421875 10.953125 3.296875 
Q 6 8.015625 6 15.921875 
Q 6 25.140625 12.171875 29.828125 
Q 18.359375 34.515625 30.609375 34.515625 
L 43.21875 34.515625 
L 43.21875 35.40625 
Q 43.21875 41.609375 39.140625 45 
Q 35.0625 48.390625 27.6875 48.390625 
Q 23 48.390625 18.546875 47.265625 
Q 14.109375 46.140625 10.015625 43.890625 
L 10.015625 52.203125 
Q 14.9375 54.109375 19.578125 55.046875 
Q 24.21875 56 28.609375 56 
Q 40.484375 56 46.34375 49.84375 
Q 52.203125 43.703125 52.203125 31.203125 
z
" id="DejaVuSans-97"/>
     </defs>
     <use xlink:href="#DejaVuSans-84"/>
     <use x="55.208984" xlink:href="#DejaVuSans-67"/>
     <use x="125.033203" xlink:href="#DejaVuSans-80"/>
     <use x="185.335938" xlink:href="#DejaVuSans-49"/>
     <use x="248.958984" xlink:href="#DejaVuSans-45"/>
     <use x="285.042969" xlink:href="#DejaVuSans-98"/>
     <use x="348.519531" xlink:href="#DejaVuSans-101"/>
     <use x="410.042969" xlink:href="#DejaVuSans-116"/>
     <use x="449.251953" xlink:href="#DejaVuSans-97"/>
    </g>
   </g>
   <g id="text_9">
    <!-- TCP1-beta -->
    <g transform="translate(153.731802 140.918689)scale(0.11 -0.11)">
     <use xlink:href="#DejaVuSans-84"/>
     <use x="55.208984" xlink:href="#DejaVuSans-67"/>
     <use x="125.033203" xlink:href="#DejaVuSans-80"/>
     <use x="185.335938" xlink:href="#DejaVuSans-49"/>
     <use x="248.958984" xlink:href="#DejaVuSans-45"/>
     <use x="285.042969" xlink:href="#DejaVuSans-98"/>
     <use x="348.519531" xlink:href="#DejaVuSans-101"/>
     <use x="410.042969" xlink:href="#DejaVuSans-116"/>
     <use x="449.251953" xlink:href="#DejaVuSans-97"/>
    </g>
   </g>
  </g>
 </g>
 <defs>
  <clipPath id="pde1a69d71a">
   <rect height="358.550296" width="266.140426" x="7.2" y="7.2"/>
  </clipPath>
 </defs>
</svg>
