<?xml version="1.0" encoding="utf-8" standalone="no"?>
<!DOCTYPE svg PUBLIC "-//W3C//DTD SVG 1.1//EN"
  "http://www.w3.org/Graphics/SVG/1.1/DTD/svg11.dtd">
<!-- Created with matplotlib (https://matplotlib.org/) -->
<svg height="216pt" version="1.1" viewBox="0 0 864 216" width="864pt" xmlns="http://www.w3.org/2000/svg" xmlns:xlink="http://www.w3.org/1999/xlink">
 <metadata>
  <rdf:RDF xmlns:cc="http://creativecommons.org/ns#" xmlns:dc="http://purl.org/dc/elements/1.1/" xmlns:rdf="http://www.w3.org/1999/02/22-rdf-syntax-ns#">
   <cc:Work>
    <dc:type rdf:resource="http://purl.org/dc/dcmitype/StillImage"/>
    <dc:date>2021-03-20T13:55:35.248726</dc:date>
    <dc:format>image/svg+xml</dc:format>
    <dc:creator>
     <cc:Agent>
      <dc:title>Matplotlib v3.3.3, https://matplotlib.org/</dc:title>
     </cc:Agent>
    </dc:creator>
   </cc:Work>
  </rdf:RDF>
 </metadata>
 <defs>
  <style type="text/css">*{stroke-linecap:butt;stroke-linejoin:round;}</style>
 </defs>
 <g id="figure_1">
  <g id="patch_1">
   <path d="M 0 216 
L 864 216 
L 864 0 
L 0 0 
z
" style="fill:#ffffff;"/>
  </g>
  <g id="axes_1">
   <g id="line2d_1">
    <path clip-path="url(#pd99c29d4da)" d="M 108 137.575385 
L 777.6 137.575385 
" style="fill:none;stroke:#000000;stroke-linecap:square;stroke-width:1.5;"/>
   </g>
   <g id="line2d_2">
    <path clip-path="url(#pd99c29d4da)" d="M 719.322701 63.138462 
L 719.322701 81.747692 
" style="fill:none;stroke:#000000;stroke-linecap:square;stroke-width:0.5;"/>
   </g>
   <g id="line2d_3">
    <path clip-path="url(#pd99c29d4da)" d="M 210.728464 63.138462 
L 210.728464 81.747692 
" style="fill:none;stroke:#000000;stroke-linecap:square;stroke-width:0.5;"/>
   </g>
   <g id="line2d_4">
    <path clip-path="url(#pd99c29d4da)" d="M 236.389546 44.529231 
L 236.389546 81.747692 
" style="fill:none;stroke:#000000;stroke-linecap:square;stroke-width:0.5;"/>
   </g>
   <g id="line2d_5">
    <path clip-path="url(#pd99c29d4da)" d="M 309.86718 63.138462 
L 309.86718 81.747692 
" style="fill:none;stroke:#000000;stroke-linecap:square;stroke-width:0.5;"/>
   </g>
   <g id="line2d_6">
    <path clip-path="url(#pd99c29d4da)" d="M 521.045267 63.138462 
L 521.045267 81.747692 
" style="fill:none;stroke:#000000;stroke-linecap:square;stroke-width:0.5;"/>
   </g>
   <g id="line2d_7">
    <path clip-path="url(#pd99c29d4da)" d="M 417.419367 63.138462 
L 417.419367 81.747692 
" style="fill:none;stroke:#000000;stroke-linecap:square;stroke-width:0.5;"/>
   </g>
   <g id="line2d_8">
    <path clip-path="url(#pd99c29d4da)" d="M 692.680047 44.529231 
L 692.680047 81.747692 
" style="fill:none;stroke:#000000;stroke-linecap:square;stroke-width:0.5;"/>
   </g>
   <g id="line2d_9">
    <path clip-path="url(#pd99c29d4da)" d="M 633.505311 63.138462 
L 633.505311 81.747692 
" style="fill:none;stroke:#000000;stroke-linecap:square;stroke-width:0.5;"/>
   </g>
   <g id="patch_2">
    <path clip-path="url(#pd99c29d4da)" d="M 108.084135 130.575385 
Q 438.600474 130.575385 769.116814 130.575385 
L 769.116814 130.575385 
Q 773.31634 134.075385 777.515865 137.575385 
Q 773.31634 141.075385 769.116814 144.575385 
L 769.116814 144.575385 
Q 438.600474 144.575385 108.084135 144.575385 
L 108.084135 130.575385 
z
" style="fill:#7245dc;stroke:#000000;stroke-linecap:round;"/>
   </g>
   <g id="patch_3">
    <path clip-path="url(#pd99c29d4da)" d="M 178.757279 111.966154 
Q 473.936144 111.966154 769.115009 111.966154 
L 769.115009 111.966154 
Q 773.315437 115.466154 777.515865 118.966154 
Q 773.315437 122.466154 769.115009 125.966154 
L 769.115009 125.966154 
Q 473.936144 125.966154 178.757279 125.966154 
L 178.757279 111.966154 
z
" style="fill:#7245dc;stroke:#000000;stroke-linecap:round;"/>
   </g>
   <g id="patch_4">
    <path clip-path="url(#pd99c29d4da)" d="M 193.060178 93.356923 
Q 462.01818 93.356923 730.976183 93.356923 
L 730.976183 93.356923 
Q 735.175493 96.856923 739.374803 100.356923 
Q 735.175493 103.856923 730.976183 107.356923 
L 730.976183 107.356923 
Q 462.01818 107.356923 193.060178 107.356923 
L 193.060178 93.356923 
z
" style="fill:#7245dc;stroke:#000000;stroke-linecap:round;"/>
   </g>
   <g id="patch_5">
    <path clip-path="url(#pd99c29d4da)" d="M 527.916267 74.747692 
Q 573.495497 74.747692 619.074726 74.747692 
L 619.074726 74.747692 
Q 623.275192 78.247692 627.475658 81.747692 
Q 623.275192 85.247692 619.074726 88.747692 
L 619.074726 88.747692 
Q 573.495497 88.747692 527.916267 88.747692 
L 527.916267 74.747692 
z
" style="fill:#7245dc;stroke:#000000;stroke-linecap:round;"/>
   </g>
   <g id="patch_6">
    <path clip-path="url(#pd99c29d4da)" d="M 317.01863 74.747692 
Q 359.652926 74.747692 402.287223 74.747692 
L 402.287223 74.747692 
Q 406.487907 78.247692 410.688591 81.747692 
Q 406.487907 85.247692 402.287223 88.747692 
L 402.287223 88.747692 
Q 359.652926 88.747692 317.01863 88.747692 
L 317.01863 74.747692 
z
" style="fill:#7245dc;stroke:#000000;stroke-linecap:round;"/>
   </g>
   <g id="patch_7">
    <path clip-path="url(#pd99c29d4da)" d="M 424.150142 74.747692 
Q 464.962929 74.747692 505.775715 74.747692 
L 505.775715 74.747692 
Q 509.974991 78.247692 514.174267 81.747692 
Q 509.974991 85.247692 505.775715 88.747692 
L 505.775715 88.747692 
Q 464.962929 88.747692 424.150142 88.747692 
L 424.150142 74.747692 
z
" style="fill:#7245dc;stroke:#000000;stroke-linecap:round;"/>
   </g>
   <g id="patch_8">
    <path clip-path="url(#pd99c29d4da)" d="M 244.382342 74.747692 
Q 269.34956 74.747692 294.316777 74.747692 
L 294.316777 74.747692 
Q 298.516254 78.247692 302.715731 81.747692 
Q 298.516254 85.247692 294.316777 88.747692 
L 294.316777 88.747692 
Q 269.34956 88.747692 244.382342 88.747692 
L 244.382342 74.747692 
z
" style="fill:#7245dc;stroke:#000000;stroke-linecap:round;"/>
   </g>
   <g id="patch_9">
    <path clip-path="url(#pd99c29d4da)" d="M 639.534964 74.747692 
Q 658.611127 74.747692 677.687289 74.747692 
L 677.687289 74.747692 
Q 681.888393 78.247692 686.089496 81.747692 
Q 681.888393 85.247692 677.687289 88.747692 
L 677.687289 88.747692 
Q 658.611127 88.747692 639.534964 88.747692 
L 639.534964 74.747692 
z
" style="fill:#7245dc;stroke:#000000;stroke-linecap:round;"/>
   </g>
   <g id="patch_10">
    <path clip-path="url(#pd99c29d4da)" d="M 699.270598 74.747692 
Q 715.124781 74.747692 730.978964 74.747692 
L 730.978964 74.747692 
Q 735.176884 78.247692 739.374803 81.747692 
Q 735.176884 85.247692 730.978964 88.747692 
L 730.978964 88.747692 
Q 715.124781 88.747692 699.270598 88.747692 
L 699.270598 74.747692 
z
" style="fill:#7245dc;stroke:#000000;stroke-linecap:round;"/>
   </g>
   <g id="patch_11">
    <path clip-path="url(#pd99c29d4da)" d="M 193.060178 74.747692 
Q 206.529226 74.747692 219.998275 74.747692 
L 219.998275 74.747692 
Q 224.197512 78.247692 228.39675 81.747692 
Q 224.197512 85.247692 219.998275 88.747692 
L 219.998275 88.747692 
Q 206.529226 88.747692 193.060178 88.747692 
L 193.060178 74.747692 
z
" style="fill:#7245dc;stroke:#000000;stroke-linecap:round;"/>
   </g>
   <g id="patch_12">
    <path clip-path="url(#pd99c29d4da)" d="M 228.39675 74.747692 
Q 232.188254 74.747692 235.979759 74.747692 
L 235.979759 74.747692 
Q 240.181051 78.247692 244.382342 81.747692 
Q 240.181051 85.247692 235.979759 88.747692 
L 235.979759 88.747692 
Q 232.188254 88.747692 228.39675 88.747692 
L 228.39675 74.747692 
z
" style="fill:#7245dc;stroke:#000000;stroke-linecap:round;"/>
   </g>
   <g id="patch_13">
    <path clip-path="url(#pd99c29d4da)" d="M 302.715731 74.747692 
Q 305.668148 74.747692 308.620566 74.747692 
L 308.620566 74.747692 
Q 312.819598 78.247692 317.01863 81.747692 
Q 312.819598 85.247692 308.620566 88.747692 
L 308.620566 88.747692 
Q 305.668148 88.747692 302.715731 88.747692 
L 302.715731 74.747692 
z
" style="fill:#7245dc;stroke:#000000;stroke-linecap:round;"/>
   </g>
   <g id="patch_14">
    <path clip-path="url(#pd99c29d4da)" d="M 514.174267 74.747692 
Q 516.846509 74.747692 519.518751 74.747692 
L 519.518751 74.747692 
Q 523.717509 78.247692 527.916267 81.747692 
Q 523.717509 85.247692 519.518751 88.747692 
L 519.518751 88.747692 
Q 516.846509 88.747692 514.174267 88.747692 
L 514.174267 74.747692 
z
" style="fill:#7245dc;stroke:#000000;stroke-linecap:round;"/>
   </g>
   <g id="patch_15">
    <path clip-path="url(#pd99c29d4da)" d="M 410.688591 74.747692 
Q 413.220848 74.747692 415.753105 74.747692 
L 415.753105 74.747692 
Q 419.951624 78.247692 424.150142 81.747692 
Q 419.951624 85.247692 415.753105 88.747692 
L 415.753105 88.747692 
Q 413.220848 88.747692 410.688591 88.747692 
L 410.688591 74.747692 
z
" style="fill:#7245dc;stroke:#000000;stroke-linecap:round;"/>
   </g>
   <g id="patch_16">
    <path clip-path="url(#pd99c29d4da)" d="M 686.089496 74.747692 
Q 688.478892 74.747692 690.868289 74.747692 
L 690.868289 74.747692 
Q 695.069444 78.247692 699.270598 81.747692 
Q 695.069444 85.247692 690.868289 88.747692 
L 690.868289 88.747692 
Q 688.478892 88.747692 686.089496 88.747692 
L 686.089496 74.747692 
z
" style="fill:#7245dc;stroke:#000000;stroke-linecap:round;"/>
   </g>
   <g id="patch_17">
    <path clip-path="url(#pd99c29d4da)" d="M 627.475658 74.747692 
Q 629.317234 74.747692 631.15881 74.747692 
L 631.15881 74.747692 
Q 635.346887 78.247692 639.534964 81.747692 
Q 635.346887 85.247692 631.15881 88.747692 
L 631.15881 88.747692 
Q 629.317234 88.747692 627.475658 88.747692 
L 627.475658 74.747692 
z
" style="fill:#7245dc;stroke:#000000;stroke-linecap:round;"/>
   </g>
   <g id="text_1">
    <!-- source -->
    <g style="fill:#ffffff;" transform="translate(424.538281 140.610697)scale(0.11 -0.11)">
     <defs>
      <path d="M 44.28125 53.078125 
L 44.28125 44.578125 
Q 40.484375 46.53125 36.375 47.5 
Q 32.28125 48.484375 27.875 48.484375 
Q 21.1875 48.484375 17.84375 46.4375 
Q 14.5 44.390625 14.5 40.28125 
Q 14.5 37.15625 16.890625 35.375 
Q 19.28125 33.59375 26.515625 31.984375 
L 29.59375 31.296875 
Q 39.15625 29.25 43.1875 25.515625 
Q 47.21875 21.78125 47.21875 15.09375 
Q 47.21875 7.46875 41.1875 3.015625 
Q 35.15625 -1.421875 24.609375 -1.421875 
Q 20.21875 -1.421875 15.453125 -0.5625 
Q 10.6875 0.296875 5.421875 2 
L 5.421875 11.28125 
Q 10.40625 8.6875 15.234375 7.390625 
Q 20.0625 6.109375 24.8125 6.109375 
Q 31.15625 6.109375 34.5625 8.28125 
Q 37.984375 10.453125 37.984375 14.40625 
Q 37.984375 18.0625 35.515625 20.015625 
Q 33.0625 21.96875 24.703125 23.78125 
L 21.578125 24.515625 
Q 13.234375 26.265625 9.515625 29.90625 
Q 5.8125 33.546875 5.8125 39.890625 
Q 5.8125 47.609375 11.28125 51.796875 
Q 16.75 56 26.8125 56 
Q 31.78125 56 36.171875 55.265625 
Q 40.578125 54.546875 44.28125 53.078125 
z
" id="DejaVuSans-115"/>
      <path d="M 30.609375 48.390625 
Q 23.390625 48.390625 19.1875 42.75 
Q 14.984375 37.109375 14.984375 27.296875 
Q 14.984375 17.484375 19.15625 11.84375 
Q 23.34375 6.203125 30.609375 6.203125 
Q 37.796875 6.203125 41.984375 11.859375 
Q 46.1875 17.53125 46.1875 27.296875 
Q 46.1875 37.015625 41.984375 42.703125 
Q 37.796875 48.390625 30.609375 48.390625 
z
M 30.609375 56 
Q 42.328125 56 49.015625 48.375 
Q 55.71875 40.765625 55.71875 27.296875 
Q 55.71875 13.875 49.015625 6.21875 
Q 42.328125 -1.421875 30.609375 -1.421875 
Q 18.84375 -1.421875 12.171875 6.21875 
Q 5.515625 13.875 5.515625 27.296875 
Q 5.515625 40.765625 12.171875 48.375 
Q 18.84375 56 30.609375 56 
z
" id="DejaVuSans-111"/>
      <path d="M 8.5 21.578125 
L 8.5 54.6875 
L 17.484375 54.6875 
L 17.484375 21.921875 
Q 17.484375 14.15625 20.5 10.265625 
Q 23.53125 6.390625 29.59375 6.390625 
Q 36.859375 6.390625 41.078125 11.03125 
Q 45.3125 15.671875 45.3125 23.6875 
L 45.3125 54.6875 
L 54.296875 54.6875 
L 54.296875 0 
L 45.3125 0 
L 45.3125 8.40625 
Q 42.046875 3.421875 37.71875 1 
Q 33.40625 -1.421875 27.6875 -1.421875 
Q 18.265625 -1.421875 13.375 4.4375 
Q 8.5 10.296875 8.5 21.578125 
z
M 31.109375 56 
z
" id="DejaVuSans-117"/>
      <path d="M 41.109375 46.296875 
Q 39.59375 47.171875 37.8125 47.578125 
Q 36.03125 48 33.890625 48 
Q 26.265625 48 22.1875 43.046875 
Q 18.109375 38.09375 18.109375 28.8125 
L 18.109375 0 
L 9.078125 0 
L 9.078125 54.6875 
L 18.109375 54.6875 
L 18.109375 46.1875 
Q 20.953125 51.171875 25.484375 53.578125 
Q 30.03125 56 36.53125 56 
Q 37.453125 56 38.578125 55.875 
Q 39.703125 55.765625 41.0625 55.515625 
z
" id="DejaVuSans-114"/>
      <path d="M 48.78125 52.59375 
L 48.78125 44.1875 
Q 44.96875 46.296875 41.140625 47.34375 
Q 37.3125 48.390625 33.40625 48.390625 
Q 24.65625 48.390625 19.8125 42.84375 
Q 14.984375 37.3125 14.984375 27.296875 
Q 14.984375 17.28125 19.8125 11.734375 
Q 24.65625 6.203125 33.40625 6.203125 
Q 37.3125 6.203125 41.140625 7.25 
Q 44.96875 8.296875 48.78125 10.40625 
L 48.78125 2.09375 
Q 45.015625 0.34375 40.984375 -0.53125 
Q 36.96875 -1.421875 32.421875 -1.421875 
Q 20.0625 -1.421875 12.78125 6.34375 
Q 5.515625 14.109375 5.515625 27.296875 
Q 5.515625 40.671875 12.859375 48.328125 
Q 20.21875 56 33.015625 56 
Q 37.15625 56 41.109375 55.140625 
Q 45.0625 54.296875 48.78125 52.59375 
z
" id="DejaVuSans-99"/>
      <path d="M 56.203125 29.59375 
L 56.203125 25.203125 
L 14.890625 25.203125 
Q 15.484375 15.921875 20.484375 11.0625 
Q 25.484375 6.203125 34.421875 6.203125 
Q 39.59375 6.203125 44.453125 7.46875 
Q 49.3125 8.734375 54.109375 11.28125 
L 54.109375 2.78125 
Q 49.265625 0.734375 44.1875 -0.34375 
Q 39.109375 -1.421875 33.890625 -1.421875 
Q 20.796875 -1.421875 13.15625 6.1875 
Q 5.515625 13.8125 5.515625 26.8125 
Q 5.515625 40.234375 12.765625 48.109375 
Q 20.015625 56 32.328125 56 
Q 43.359375 56 49.78125 48.890625 
Q 56.203125 41.796875 56.203125 29.59375 
z
M 47.21875 32.234375 
Q 47.125 39.59375 43.09375 43.984375 
Q 39.0625 48.390625 32.421875 48.390625 
Q 24.90625 48.390625 20.390625 44.140625 
Q 15.875 39.890625 15.1875 32.171875 
z
" id="DejaVuSans-101"/>
     </defs>
     <use xlink:href="#DejaVuSans-115"/>
     <use x="52.099609" xlink:href="#DejaVuSans-111"/>
     <use x="113.28125" xlink:href="#DejaVuSans-117"/>
     <use x="176.660156" xlink:href="#DejaVuSans-114"/>
     <use x="215.523438" xlink:href="#DejaVuSans-99"/>
     <use x="270.503906" xlink:href="#DejaVuSans-101"/>
    </g>
   </g>
   <g id="text_2">
    <!-- LUC mRNA -->
    <g style="fill:#ffffff;" transform="translate(448.677197 122.001466)scale(0.11 -0.11)">
     <defs>
      <path d="M 9.8125 72.90625 
L 19.671875 72.90625 
L 19.671875 8.296875 
L 55.171875 8.296875 
L 55.171875 0 
L 9.8125 0 
z
" id="DejaVuSans-76"/>
      <path d="M 8.6875 72.90625 
L 18.609375 72.90625 
L 18.609375 28.609375 
Q 18.609375 16.890625 22.84375 11.734375 
Q 27.09375 6.59375 36.625 6.59375 
Q 46.09375 6.59375 50.34375 11.734375 
Q 54.59375 16.890625 54.59375 28.609375 
L 54.59375 72.90625 
L 64.5 72.90625 
L 64.5 27.390625 
Q 64.5 13.140625 57.4375 5.859375 
Q 50.390625 -1.421875 36.625 -1.421875 
Q 22.796875 -1.421875 15.734375 5.859375 
Q 8.6875 13.140625 8.6875 27.390625 
z
" id="DejaVuSans-85"/>
      <path d="M 64.40625 67.28125 
L 64.40625 56.890625 
Q 59.421875 61.53125 53.78125 63.8125 
Q 48.140625 66.109375 41.796875 66.109375 
Q 29.296875 66.109375 22.65625 58.46875 
Q 16.015625 50.828125 16.015625 36.375 
Q 16.015625 21.96875 22.65625 14.328125 
Q 29.296875 6.6875 41.796875 6.6875 
Q 48.140625 6.6875 53.78125 8.984375 
Q 59.421875 11.28125 64.40625 15.921875 
L 64.40625 5.609375 
Q 59.234375 2.09375 53.4375 0.328125 
Q 47.65625 -1.421875 41.21875 -1.421875 
Q 24.65625 -1.421875 15.125 8.703125 
Q 5.609375 18.84375 5.609375 36.375 
Q 5.609375 53.953125 15.125 64.078125 
Q 24.65625 74.21875 41.21875 74.21875 
Q 47.75 74.21875 53.53125 72.484375 
Q 59.328125 70.75 64.40625 67.28125 
z
" id="DejaVuSans-67"/>
      <path id="DejaVuSans-32"/>
      <path d="M 52 44.1875 
Q 55.375 50.25 60.0625 53.125 
Q 64.75 56 71.09375 56 
Q 79.640625 56 84.28125 50.015625 
Q 88.921875 44.046875 88.921875 33.015625 
L 88.921875 0 
L 79.890625 0 
L 79.890625 32.71875 
Q 79.890625 40.578125 77.09375 44.375 
Q 74.3125 48.1875 68.609375 48.1875 
Q 61.625 48.1875 57.5625 43.546875 
Q 53.515625 38.921875 53.515625 30.90625 
L 53.515625 0 
L 44.484375 0 
L 44.484375 32.71875 
Q 44.484375 40.625 41.703125 44.40625 
Q 38.921875 48.1875 33.109375 48.1875 
Q 26.21875 48.1875 22.15625 43.53125 
Q 18.109375 38.875 18.109375 30.90625 
L 18.109375 0 
L 9.078125 0 
L 9.078125 54.6875 
L 18.109375 54.6875 
L 18.109375 46.1875 
Q 21.1875 51.21875 25.484375 53.609375 
Q 29.78125 56 35.6875 56 
Q 41.65625 56 45.828125 52.96875 
Q 50 49.953125 52 44.1875 
z
" id="DejaVuSans-109"/>
      <path d="M 44.390625 34.1875 
Q 47.5625 33.109375 50.5625 29.59375 
Q 53.5625 26.078125 56.59375 19.921875 
L 66.609375 0 
L 56 0 
L 46.6875 18.703125 
Q 43.0625 26.03125 39.671875 28.421875 
Q 36.28125 30.8125 30.421875 30.8125 
L 19.671875 30.8125 
L 19.671875 0 
L 9.8125 0 
L 9.8125 72.90625 
L 32.078125 72.90625 
Q 44.578125 72.90625 50.734375 67.671875 
Q 56.890625 62.453125 56.890625 51.90625 
Q 56.890625 45.015625 53.6875 40.46875 
Q 50.484375 35.9375 44.390625 34.1875 
z
M 19.671875 64.796875 
L 19.671875 38.921875 
L 32.078125 38.921875 
Q 39.203125 38.921875 42.84375 42.21875 
Q 46.484375 45.515625 46.484375 51.90625 
Q 46.484375 58.296875 42.84375 61.546875 
Q 39.203125 64.796875 32.078125 64.796875 
z
" id="DejaVuSans-82"/>
      <path d="M 9.8125 72.90625 
L 23.09375 72.90625 
L 55.421875 11.921875 
L 55.421875 72.90625 
L 64.984375 72.90625 
L 64.984375 0 
L 51.703125 0 
L 19.390625 60.984375 
L 19.390625 0 
L 9.8125 0 
z
" id="DejaVuSans-78"/>
      <path d="M 34.1875 63.1875 
L 20.796875 26.90625 
L 47.609375 26.90625 
z
M 28.609375 72.90625 
L 39.796875 72.90625 
L 67.578125 0 
L 57.328125 0 
L 50.6875 18.703125 
L 17.828125 18.703125 
L 11.1875 0 
L 0.78125 0 
z
" id="DejaVuSans-65"/>
     </defs>
     <use xlink:href="#DejaVuSans-76"/>
     <use x="50.712891" xlink:href="#DejaVuSans-85"/>
     <use x="123.90625" xlink:href="#DejaVuSans-67"/>
     <use x="193.730469" xlink:href="#DejaVuSans-32"/>
     <use x="225.517578" xlink:href="#DejaVuSans-109"/>
     <use x="322.929688" xlink:href="#DejaVuSans-82"/>
     <use x="392.412109" xlink:href="#DejaVuSans-78"/>
     <use x="467.216797" xlink:href="#DejaVuSans-65"/>
    </g>
   </g>
   <g id="text_3">
    <!-- Luciferase -->
    <g style="fill:#ffffff;" transform="translate(438.010225 103.392236)scale(0.11 -0.11)">
     <defs>
      <path d="M 9.421875 54.6875 
L 18.40625 54.6875 
L 18.40625 0 
L 9.421875 0 
z
M 9.421875 75.984375 
L 18.40625 75.984375 
L 18.40625 64.59375 
L 9.421875 64.59375 
z
" id="DejaVuSans-105"/>
      <path d="M 37.109375 75.984375 
L 37.109375 68.5 
L 28.515625 68.5 
Q 23.6875 68.5 21.796875 66.546875 
Q 19.921875 64.59375 19.921875 59.515625 
L 19.921875 54.6875 
L 34.71875 54.6875 
L 34.71875 47.703125 
L 19.921875 47.703125 
L 19.921875 0 
L 10.890625 0 
L 10.890625 47.703125 
L 2.296875 47.703125 
L 2.296875 54.6875 
L 10.890625 54.6875 
L 10.890625 58.5 
Q 10.890625 67.625 15.140625 71.796875 
Q 19.390625 75.984375 28.609375 75.984375 
z
" id="DejaVuSans-102"/>
      <path d="M 34.28125 27.484375 
Q 23.390625 27.484375 19.1875 25 
Q 14.984375 22.515625 14.984375 16.5 
Q 14.984375 11.71875 18.140625 8.90625 
Q 21.296875 6.109375 26.703125 6.109375 
Q 34.1875 6.109375 38.703125 11.40625 
Q 43.21875 16.703125 43.21875 25.484375 
L 43.21875 27.484375 
z
M 52.203125 31.203125 
L 52.203125 0 
L 43.21875 0 
L 43.21875 8.296875 
Q 40.140625 3.328125 35.546875 0.953125 
Q 30.953125 -1.421875 24.3125 -1.421875 
Q 15.921875 -1.421875 10.953125 3.296875 
Q 6 8.015625 6 15.921875 
Q 6 25.140625 12.171875 29.828125 
Q 18.359375 34.515625 30.609375 34.515625 
L 43.21875 34.515625 
L 43.21875 35.40625 
Q 43.21875 41.609375 39.140625 45 
Q 35.0625 48.390625 27.6875 48.390625 
Q 23 48.390625 18.546875 47.265625 
Q 14.109375 46.140625 10.015625 43.890625 
L 10.015625 52.203125 
Q 14.9375 54.109375 19.578125 55.046875 
Q 24.21875 56 28.609375 56 
Q 40.484375 56 46.34375 49.84375 
Q 52.203125 43.703125 52.203125 31.203125 
z
" id="DejaVuSans-97"/>
     </defs>
     <use xlink:href="#DejaVuSans-76"/>
     <use x="53.962891" xlink:href="#DejaVuSans-117"/>
     <use x="117.341797" xlink:href="#DejaVuSans-99"/>
     <use x="172.322266" xlink:href="#DejaVuSans-105"/>
     <use x="200.105469" xlink:href="#DejaVuSans-102"/>
     <use x="235.310547" xlink:href="#DejaVuSans-101"/>
     <use x="296.833984" xlink:href="#DejaVuSans-114"/>
     <use x="337.947266" xlink:href="#DejaVuSans-97"/>
     <use x="399.226562" xlink:href="#DejaVuSans-115"/>
     <use x="451.326172" xlink:href="#DejaVuSans-101"/>
    </g>
   </g>
   <g id="text_4">
    <!-- exon -->
    <g style="fill:#ffffff;" transform="translate(564.473619 84.783005)scale(0.11 -0.11)">
     <defs>
      <path d="M 54.890625 54.6875 
L 35.109375 28.078125 
L 55.90625 0 
L 45.3125 0 
L 29.390625 21.484375 
L 13.484375 0 
L 2.875 0 
L 24.125 28.609375 
L 4.6875 54.6875 
L 15.28125 54.6875 
L 29.78125 35.203125 
L 44.28125 54.6875 
z
" id="DejaVuSans-120"/>
      <path d="M 54.890625 33.015625 
L 54.890625 0 
L 45.90625 0 
L 45.90625 32.71875 
Q 45.90625 40.484375 42.875 44.328125 
Q 39.84375 48.1875 33.796875 48.1875 
Q 26.515625 48.1875 22.3125 43.546875 
Q 18.109375 38.921875 18.109375 30.90625 
L 18.109375 0 
L 9.078125 0 
L 9.078125 54.6875 
L 18.109375 54.6875 
L 18.109375 46.1875 
Q 21.34375 51.125 25.703125 53.5625 
Q 30.078125 56 35.796875 56 
Q 45.21875 56 50.046875 50.171875 
Q 54.890625 44.34375 54.890625 33.015625 
z
" id="DejaVuSans-110"/>
     </defs>
     <use xlink:href="#DejaVuSans-101"/>
     <use x="59.773438" xlink:href="#DejaVuSans-120"/>
     <use x="115.828125" xlink:href="#DejaVuSans-111"/>
     <use x="177.009766" xlink:href="#DejaVuSans-110"/>
    </g>
   </g>
   <g id="text_5">
    <!-- exon -->
    <g style="fill:#ffffff;" transform="translate(350.631267 84.783005)scale(0.11 -0.11)">
     <use xlink:href="#DejaVuSans-101"/>
     <use x="59.773438" xlink:href="#DejaVuSans-120"/>
     <use x="115.828125" xlink:href="#DejaVuSans-111"/>
     <use x="177.009766" xlink:href="#DejaVuSans-110"/>
    </g>
   </g>
   <g id="text_6">
    <!-- exon -->
    <g style="fill:#ffffff;" transform="translate(455.939861 84.783005)scale(0.11 -0.11)">
     <use xlink:href="#DejaVuSans-101"/>
     <use x="59.773438" xlink:href="#DejaVuSans-120"/>
     <use x="115.828125" xlink:href="#DejaVuSans-111"/>
     <use x="177.009766" xlink:href="#DejaVuSans-110"/>
    </g>
   </g>
   <g id="text_7">
    <!-- exon -->
    <g style="fill:#ffffff;" transform="translate(260.326693 84.783005)scale(0.11 -0.11)">
     <use xlink:href="#DejaVuSans-101"/>
     <use x="59.773438" xlink:href="#DejaVuSans-120"/>
     <use x="115.828125" xlink:href="#DejaVuSans-111"/>
     <use x="177.009766" xlink:href="#DejaVuSans-110"/>
    </g>
   </g>
   <g id="text_8">
    <!-- exon -->
    <g style="fill:#ffffff;" transform="translate(649.589886 84.783005)scale(0.11 -0.11)">
     <use xlink:href="#DejaVuSans-101"/>
     <use x="59.773438" xlink:href="#DejaVuSans-120"/>
     <use x="115.828125" xlink:href="#DejaVuSans-111"/>
     <use x="177.009766" xlink:href="#DejaVuSans-110"/>
    </g>
   </g>
   <g id="text_9">
    <g id="patch_18">
     <path d="M 691.115435 71.76143 
L 747.529966 71.76143 
Q 750.829966 71.76143 750.829966 68.46143 
L 750.829966 57.815493 
Q 750.829966 54.515493 747.529966 54.515493 
L 691.115435 54.515493 
Q 687.815435 54.515493 687.815435 57.815493 
L 687.815435 68.46143 
Q 687.815435 71.76143 691.115435 71.76143 
z
" style="fill:#efeafb;stroke:#808080;stroke-linejoin:miter;stroke-width:0.3;"/>
    </g>
    <!-- Luciferase -->
    <g transform="translate(691.115435 66.173774)scale(0.11 -0.11)">
     <use xlink:href="#DejaVuSans-76"/>
     <use x="53.962891" xlink:href="#DejaVuSans-117"/>
     <use x="117.341797" xlink:href="#DejaVuSans-99"/>
     <use x="172.322266" xlink:href="#DejaVuSans-105"/>
     <use x="200.105469" xlink:href="#DejaVuSans-102"/>
     <use x="235.310547" xlink:href="#DejaVuSans-101"/>
     <use x="296.833984" xlink:href="#DejaVuSans-114"/>
     <use x="337.947266" xlink:href="#DejaVuSans-97"/>
     <use x="399.226562" xlink:href="#DejaVuSans-115"/>
     <use x="451.326172" xlink:href="#DejaVuSans-101"/>
    </g>
   </g>
   <g id="text_10">
    <g id="patch_19">
     <path d="M 182.521198 71.76143 
L 238.935729 71.76143 
Q 242.235729 71.76143 242.235729 68.46143 
L 242.235729 57.815493 
Q 242.235729 54.515493 238.935729 54.515493 
L 182.521198 54.515493 
Q 179.221198 54.515493 179.221198 57.815493 
L 179.221198 68.46143 
Q 179.221198 71.76143 182.521198 71.76143 
z
" style="fill:#efeafb;stroke:#808080;stroke-linejoin:miter;stroke-width:0.3;"/>
    </g>
    <!-- Luciferase -->
    <g transform="translate(182.521198 66.173774)scale(0.11 -0.11)">
     <use xlink:href="#DejaVuSans-76"/>
     <use x="53.962891" xlink:href="#DejaVuSans-117"/>
     <use x="117.341797" xlink:href="#DejaVuSans-99"/>
     <use x="172.322266" xlink:href="#DejaVuSans-105"/>
     <use x="200.105469" xlink:href="#DejaVuSans-102"/>
     <use x="235.310547" xlink:href="#DejaVuSans-101"/>
     <use x="296.833984" xlink:href="#DejaVuSans-114"/>
     <use x="337.947266" xlink:href="#DejaVuSans-97"/>
     <use x="399.226562" xlink:href="#DejaVuSans-115"/>
     <use x="451.326172" xlink:href="#DejaVuSans-101"/>
    </g>
   </g>
   <g id="text_11">
    <g id="patch_20">
     <path d="M 191.188999 53.1522 
L 281.590093 53.1522 
Q 284.890093 53.1522 284.890093 49.8522 
L 284.890093 39.206262 
Q 284.890093 35.906262 281.590093 35.906262 
L 191.188999 35.906262 
Q 187.888999 35.906262 187.888999 39.206262 
L 187.888999 49.8522 
Q 187.888999 53.1522 191.188999 53.1522 
z
" style="fill:#efeafb;stroke:#808080;stroke-linejoin:miter;stroke-width:0.3;"/>
    </g>
    <!-- LUC cds intron A -->
    <g transform="translate(191.188999 47.564543)scale(0.11 -0.11)">
     <defs>
      <path d="M 45.40625 46.390625 
L 45.40625 75.984375 
L 54.390625 75.984375 
L 54.390625 0 
L 45.40625 0 
L 45.40625 8.203125 
Q 42.578125 3.328125 38.25 0.953125 
Q 33.9375 -1.421875 27.875 -1.421875 
Q 17.96875 -1.421875 11.734375 6.484375 
Q 5.515625 14.40625 5.515625 27.296875 
Q 5.515625 40.1875 11.734375 48.09375 
Q 17.96875 56 27.875 56 
Q 33.9375 56 38.25 53.625 
Q 42.578125 51.265625 45.40625 46.390625 
z
M 14.796875 27.296875 
Q 14.796875 17.390625 18.875 11.75 
Q 22.953125 6.109375 30.078125 6.109375 
Q 37.203125 6.109375 41.296875 11.75 
Q 45.40625 17.390625 45.40625 27.296875 
Q 45.40625 37.203125 41.296875 42.84375 
Q 37.203125 48.484375 30.078125 48.484375 
Q 22.953125 48.484375 18.875 42.84375 
Q 14.796875 37.203125 14.796875 27.296875 
z
" id="DejaVuSans-100"/>
      <path d="M 18.3125 70.21875 
L 18.3125 54.6875 
L 36.8125 54.6875 
L 36.8125 47.703125 
L 18.3125 47.703125 
L 18.3125 18.015625 
Q 18.3125 11.328125 20.140625 9.421875 
Q 21.96875 7.515625 27.59375 7.515625 
L 36.8125 7.515625 
L 36.8125 0 
L 27.59375 0 
Q 17.1875 0 13.234375 3.875 
Q 9.28125 7.765625 9.28125 18.015625 
L 9.28125 47.703125 
L 2.6875 47.703125 
L 2.6875 54.6875 
L 9.28125 54.6875 
L 9.28125 70.21875 
z
" id="DejaVuSans-116"/>
     </defs>
     <use xlink:href="#DejaVuSans-76"/>
     <use x="50.712891" xlink:href="#DejaVuSans-85"/>
     <use x="123.90625" xlink:href="#DejaVuSans-67"/>
     <use x="193.730469" xlink:href="#DejaVuSans-32"/>
     <use x="225.517578" xlink:href="#DejaVuSans-99"/>
     <use x="280.498047" xlink:href="#DejaVuSans-100"/>
     <use x="343.974609" xlink:href="#DejaVuSans-115"/>
     <use x="396.074219" xlink:href="#DejaVuSans-32"/>
     <use x="427.861328" xlink:href="#DejaVuSans-105"/>
     <use x="455.644531" xlink:href="#DejaVuSans-110"/>
     <use x="519.023438" xlink:href="#DejaVuSans-116"/>
     <use x="558.232422" xlink:href="#DejaVuSans-114"/>
     <use x="597.095703" xlink:href="#DejaVuSans-111"/>
     <use x="658.277344" xlink:href="#DejaVuSans-110"/>
     <use x="721.65625" xlink:href="#DejaVuSans-32"/>
     <use x="753.443359" xlink:href="#DejaVuSans-65"/>
    </g>
   </g>
   <g id="text_12">
    <g id="patch_21">
     <path d="M 264.655462 71.76143 
L 355.078899 71.76143 
Q 358.378899 71.76143 358.378899 68.46143 
L 358.378899 57.815493 
Q 358.378899 54.515493 355.078899 54.515493 
L 264.655462 54.515493 
Q 261.355462 54.515493 261.355462 57.815493 
L 261.355462 68.46143 
Q 261.355462 71.76143 264.655462 71.76143 
z
" style="fill:#efeafb;stroke:#808080;stroke-linejoin:miter;stroke-width:0.3;"/>
    </g>
    <!-- LUC cds intron B -->
    <g transform="translate(264.655462 66.173774)scale(0.11 -0.11)">
     <defs>
      <path d="M 19.671875 34.8125 
L 19.671875 8.109375 
L 35.5 8.109375 
Q 43.453125 8.109375 47.28125 11.40625 
Q 51.125 14.703125 51.125 21.484375 
Q 51.125 28.328125 47.28125 31.5625 
Q 43.453125 34.8125 35.5 34.8125 
z
M 19.671875 64.796875 
L 19.671875 42.828125 
L 34.28125 42.828125 
Q 41.5 42.828125 45.03125 45.53125 
Q 48.578125 48.25 48.578125 53.8125 
Q 48.578125 59.328125 45.03125 62.0625 
Q 41.5 64.796875 34.28125 64.796875 
z
M 9.8125 72.90625 
L 35.015625 72.90625 
Q 46.296875 72.90625 52.390625 68.21875 
Q 58.5 63.53125 58.5 54.890625 
Q 58.5 48.1875 55.375 44.234375 
Q 52.25 40.28125 46.1875 39.3125 
Q 53.46875 37.75 57.5 32.78125 
Q 61.53125 27.828125 61.53125 20.40625 
Q 61.53125 10.640625 54.890625 5.3125 
Q 48.25 0 35.984375 0 
L 9.8125 0 
z
" id="DejaVuSans-66"/>
     </defs>
     <use xlink:href="#DejaVuSans-76"/>
     <use x="50.712891" xlink:href="#DejaVuSans-85"/>
     <use x="123.90625" xlink:href="#DejaVuSans-67"/>
     <use x="193.730469" xlink:href="#DejaVuSans-32"/>
     <use x="225.517578" xlink:href="#DejaVuSans-99"/>
     <use x="280.498047" xlink:href="#DejaVuSans-100"/>
     <use x="343.974609" xlink:href="#DejaVuSans-115"/>
     <use x="396.074219" xlink:href="#DejaVuSans-32"/>
     <use x="427.861328" xlink:href="#DejaVuSans-105"/>
     <use x="455.644531" xlink:href="#DejaVuSans-110"/>
     <use x="519.023438" xlink:href="#DejaVuSans-116"/>
     <use x="558.232422" xlink:href="#DejaVuSans-114"/>
     <use x="597.095703" xlink:href="#DejaVuSans-111"/>
     <use x="658.277344" xlink:href="#DejaVuSans-110"/>
     <use x="721.65625" xlink:href="#DejaVuSans-32"/>
     <use x="753.443359" xlink:href="#DejaVuSans-66"/>
    </g>
   </g>
   <g id="text_13">
    <g id="patch_22">
     <path d="M 475.372064 71.76143 
L 566.71847 71.76143 
Q 570.01847 71.76143 570.01847 68.46143 
L 570.01847 57.815493 
Q 570.01847 54.515493 566.71847 54.515493 
L 475.372064 54.515493 
Q 472.072064 54.515493 472.072064 57.815493 
L 472.072064 68.46143 
Q 472.072064 71.76143 475.372064 71.76143 
z
" style="fill:#efeafb;stroke:#808080;stroke-linejoin:miter;stroke-width:0.3;"/>
    </g>
    <!-- LUC cds intron D -->
    <g transform="translate(475.372064 66.173774)scale(0.11 -0.11)">
     <defs>
      <path d="M 19.671875 64.796875 
L 19.671875 8.109375 
L 31.59375 8.109375 
Q 46.6875 8.109375 53.6875 14.9375 
Q 60.6875 21.78125 60.6875 36.53125 
Q 60.6875 51.171875 53.6875 57.984375 
Q 46.6875 64.796875 31.59375 64.796875 
z
M 9.8125 72.90625 
L 30.078125 72.90625 
Q 51.265625 72.90625 61.171875 64.09375 
Q 71.09375 55.28125 71.09375 36.53125 
Q 71.09375 17.671875 61.125 8.828125 
Q 51.171875 0 30.078125 0 
L 9.8125 0 
z
" id="DejaVuSans-68"/>
     </defs>
     <use xlink:href="#DejaVuSans-76"/>
     <use x="50.712891" xlink:href="#DejaVuSans-85"/>
     <use x="123.90625" xlink:href="#DejaVuSans-67"/>
     <use x="193.730469" xlink:href="#DejaVuSans-32"/>
     <use x="225.517578" xlink:href="#DejaVuSans-99"/>
     <use x="280.498047" xlink:href="#DejaVuSans-100"/>
     <use x="343.974609" xlink:href="#DejaVuSans-115"/>
     <use x="396.074219" xlink:href="#DejaVuSans-32"/>
     <use x="427.861328" xlink:href="#DejaVuSans-105"/>
     <use x="455.644531" xlink:href="#DejaVuSans-110"/>
     <use x="519.023438" xlink:href="#DejaVuSans-116"/>
     <use x="558.232422" xlink:href="#DejaVuSans-114"/>
     <use x="597.095703" xlink:href="#DejaVuSans-111"/>
     <use x="658.277344" xlink:href="#DejaVuSans-110"/>
     <use x="721.65625" xlink:href="#DejaVuSans-32"/>
     <use x="753.443359" xlink:href="#DejaVuSans-68"/>
    </g>
   </g>
   <g id="text_14">
    <g id="patch_23">
     <path d="M 372.140617 71.76143 
L 462.698117 71.76143 
Q 465.998117 71.76143 465.998117 68.46143 
L 465.998117 57.815493 
Q 465.998117 54.515493 462.698117 54.515493 
L 372.140617 54.515493 
Q 368.840617 54.515493 368.840617 57.815493 
L 368.840617 68.46143 
Q 368.840617 71.76143 372.140617 71.76143 
z
" style="fill:#efeafb;stroke:#808080;stroke-linejoin:miter;stroke-width:0.3;"/>
    </g>
    <!-- LUC cds intron C -->
    <g transform="translate(372.140617 66.173774)scale(0.11 -0.11)">
     <use xlink:href="#DejaVuSans-76"/>
     <use x="50.712891" xlink:href="#DejaVuSans-85"/>
     <use x="123.90625" xlink:href="#DejaVuSans-67"/>
     <use x="193.730469" xlink:href="#DejaVuSans-32"/>
     <use x="225.517578" xlink:href="#DejaVuSans-99"/>
     <use x="280.498047" xlink:href="#DejaVuSans-100"/>
     <use x="343.974609" xlink:href="#DejaVuSans-115"/>
     <use x="396.074219" xlink:href="#DejaVuSans-32"/>
     <use x="427.861328" xlink:href="#DejaVuSans-105"/>
     <use x="455.644531" xlink:href="#DejaVuSans-110"/>
     <use x="519.023438" xlink:href="#DejaVuSans-116"/>
     <use x="558.232422" xlink:href="#DejaVuSans-114"/>
     <use x="597.095703" xlink:href="#DejaVuSans-111"/>
     <use x="658.277344" xlink:href="#DejaVuSans-110"/>
     <use x="721.65625" xlink:href="#DejaVuSans-32"/>
     <use x="753.443359" xlink:href="#DejaVuSans-67"/>
    </g>
   </g>
   <g id="text_15">
    <g id="patch_24">
     <path d="M 648.078484 53.1522 
L 737.281609 53.1522 
Q 740.581609 53.1522 740.581609 49.8522 
L 740.581609 39.206262 
Q 740.581609 35.906262 737.281609 35.906262 
L 648.078484 35.906262 
Q 644.778484 35.906262 644.778484 39.206262 
L 644.778484 49.8522 
Q 644.778484 53.1522 648.078484 53.1522 
z
" style="fill:#efeafb;stroke:#808080;stroke-linejoin:miter;stroke-width:0.3;"/>
    </g>
    <!-- LUC cds intron F -->
    <g transform="translate(648.078484 47.564543)scale(0.11 -0.11)">
     <defs>
      <path d="M 9.8125 72.90625 
L 51.703125 72.90625 
L 51.703125 64.59375 
L 19.671875 64.59375 
L 19.671875 43.109375 
L 48.578125 43.109375 
L 48.578125 34.8125 
L 19.671875 34.8125 
L 19.671875 0 
L 9.8125 0 
z
" id="DejaVuSans-70"/>
     </defs>
     <use xlink:href="#DejaVuSans-76"/>
     <use x="50.712891" xlink:href="#DejaVuSans-85"/>
     <use x="123.90625" xlink:href="#DejaVuSans-67"/>
     <use x="193.730469" xlink:href="#DejaVuSans-32"/>
     <use x="225.517578" xlink:href="#DejaVuSans-99"/>
     <use x="280.498047" xlink:href="#DejaVuSans-100"/>
     <use x="343.974609" xlink:href="#DejaVuSans-115"/>
     <use x="396.074219" xlink:href="#DejaVuSans-32"/>
     <use x="427.861328" xlink:href="#DejaVuSans-105"/>
     <use x="455.644531" xlink:href="#DejaVuSans-110"/>
     <use x="519.023438" xlink:href="#DejaVuSans-116"/>
     <use x="558.232422" xlink:href="#DejaVuSans-114"/>
     <use x="597.095703" xlink:href="#DejaVuSans-111"/>
     <use x="658.277344" xlink:href="#DejaVuSans-110"/>
     <use x="721.65625" xlink:href="#DejaVuSans-32"/>
     <use x="753.443359" xlink:href="#DejaVuSans-70"/>
    </g>
   </g>
   <g id="text_16">
    <g id="patch_25">
     <path d="M 588.591795 71.76143 
L 678.418826 71.76143 
Q 681.718826 71.76143 681.718826 68.46143 
L 681.718826 57.815493 
Q 681.718826 54.515493 678.418826 54.515493 
L 588.591795 54.515493 
Q 585.291795 54.515493 585.291795 57.815493 
L 585.291795 68.46143 
Q 585.291795 71.76143 588.591795 71.76143 
z
" style="fill:#efeafb;stroke:#808080;stroke-linejoin:miter;stroke-width:0.3;"/>
    </g>
    <!-- LUC cds intron E -->
    <g transform="translate(588.591795 66.173774)scale(0.11 -0.11)">
     <defs>
      <path d="M 9.8125 72.90625 
L 55.90625 72.90625 
L 55.90625 64.59375 
L 19.671875 64.59375 
L 19.671875 43.015625 
L 54.390625 43.015625 
L 54.390625 34.71875 
L 19.671875 34.71875 
L 19.671875 8.296875 
L 56.78125 8.296875 
L 56.78125 0 
L 9.8125 0 
z
" id="DejaVuSans-69"/>
     </defs>
     <use xlink:href="#DejaVuSans-76"/>
     <use x="50.712891" xlink:href="#DejaVuSans-85"/>
     <use x="123.90625" xlink:href="#DejaVuSans-67"/>
     <use x="193.730469" xlink:href="#DejaVuSans-32"/>
     <use x="225.517578" xlink:href="#DejaVuSans-99"/>
     <use x="280.498047" xlink:href="#DejaVuSans-100"/>
     <use x="343.974609" xlink:href="#DejaVuSans-115"/>
     <use x="396.074219" xlink:href="#DejaVuSans-32"/>
     <use x="427.861328" xlink:href="#DejaVuSans-105"/>
     <use x="455.644531" xlink:href="#DejaVuSans-110"/>
     <use x="519.023438" xlink:href="#DejaVuSans-116"/>
     <use x="558.232422" xlink:href="#DejaVuSans-114"/>
     <use x="597.095703" xlink:href="#DejaVuSans-111"/>
     <use x="658.277344" xlink:href="#DejaVuSans-110"/>
     <use x="721.65625" xlink:href="#DejaVuSans-32"/>
     <use x="753.443359" xlink:href="#DejaVuSans-69"/>
    </g>
   </g>
  </g>
  <g id="axes_2">
   <g id="patch_26">
    <path d="M 108 192.24 
L 777.6 192.24 
L 777.6 162 
L 108 162 
z
" style="fill:#ffffff;"/>
   </g>
   <g id="matplotlib.axis_1">
    <g id="xtick_1">
     <g id="line2d_10">
      <defs>
       <path d="M 0 0 
L 0 3.5 
" id="mff410b6fbf" style="stroke:#000000;stroke-width:0.8;"/>
      </defs>
      <g>
       <use style="stroke:#000000;stroke-width:0.8;" x="108.224359" xlink:href="#mff410b6fbf" y="192.24"/>
      </g>
     </g>
     <g id="text_17">
      <!-- 0 -->
      <g transform="translate(105.043109 206.838437)scale(0.1 -0.1)">
       <defs>
        <path d="M 31.78125 66.40625 
Q 24.171875 66.40625 20.328125 58.90625 
Q 16.5 51.421875 16.5 36.375 
Q 16.5 21.390625 20.328125 13.890625 
Q 24.171875 6.390625 31.78125 6.390625 
Q 39.453125 6.390625 43.28125 13.890625 
Q 47.125 21.390625 47.125 36.375 
Q 47.125 51.421875 43.28125 58.90625 
Q 39.453125 66.40625 31.78125 66.40625 
z
M 31.78125 74.21875 
Q 44.046875 74.21875 50.515625 64.515625 
Q 56.984375 54.828125 56.984375 36.375 
Q 56.984375 17.96875 50.515625 8.265625 
Q 44.046875 -1.421875 31.78125 -1.421875 
Q 19.53125 -1.421875 13.0625 8.265625 
Q 6.59375 17.96875 6.59375 36.375 
Q 6.59375 54.828125 13.0625 64.515625 
Q 19.53125 74.21875 31.78125 74.21875 
z
" id="DejaVuSans-48"/>
       </defs>
       <use xlink:href="#DejaVuSans-48"/>
      </g>
     </g>
    </g>
    <g id="xtick_2">
     <g id="line2d_11">
      <g>
       <use style="stroke:#000000;stroke-width:0.8;" x="178.336606" xlink:href="#mff410b6fbf" y="192.24"/>
      </g>
     </g>
     <g id="text_18">
      <!-- 250 -->
      <g transform="translate(168.792856 206.838437)scale(0.1 -0.1)">
       <defs>
        <path d="M 19.1875 8.296875 
L 53.609375 8.296875 
L 53.609375 0 
L 7.328125 0 
L 7.328125 8.296875 
Q 12.9375 14.109375 22.625 23.890625 
Q 32.328125 33.6875 34.8125 36.53125 
Q 39.546875 41.84375 41.421875 45.53125 
Q 43.3125 49.21875 43.3125 52.78125 
Q 43.3125 58.59375 39.234375 62.25 
Q 35.15625 65.921875 28.609375 65.921875 
Q 23.96875 65.921875 18.8125 64.3125 
Q 13.671875 62.703125 7.8125 59.421875 
L 7.8125 69.390625 
Q 13.765625 71.78125 18.9375 73 
Q 24.125 74.21875 28.421875 74.21875 
Q 39.75 74.21875 46.484375 68.546875 
Q 53.21875 62.890625 53.21875 53.421875 
Q 53.21875 48.921875 51.53125 44.890625 
Q 49.859375 40.875 45.40625 35.40625 
Q 44.1875 33.984375 37.640625 27.21875 
Q 31.109375 20.453125 19.1875 8.296875 
z
" id="DejaVuSans-50"/>
        <path d="M 10.796875 72.90625 
L 49.515625 72.90625 
L 49.515625 64.59375 
L 19.828125 64.59375 
L 19.828125 46.734375 
Q 21.96875 47.46875 24.109375 47.828125 
Q 26.265625 48.1875 28.421875 48.1875 
Q 40.625 48.1875 47.75 41.5 
Q 54.890625 34.8125 54.890625 23.390625 
Q 54.890625 11.625 47.5625 5.09375 
Q 40.234375 -1.421875 26.90625 -1.421875 
Q 22.3125 -1.421875 17.546875 -0.640625 
Q 12.796875 0.140625 7.71875 1.703125 
L 7.71875 11.625 
Q 12.109375 9.234375 16.796875 8.0625 
Q 21.484375 6.890625 26.703125 6.890625 
Q 35.15625 6.890625 40.078125 11.328125 
Q 45.015625 15.765625 45.015625 23.390625 
Q 45.015625 31 40.078125 35.4375 
Q 35.15625 39.890625 26.703125 39.890625 
Q 22.75 39.890625 18.8125 39.015625 
Q 14.890625 38.140625 10.796875 36.28125 
z
" id="DejaVuSans-53"/>
       </defs>
       <use xlink:href="#DejaVuSans-50"/>
       <use x="63.623047" xlink:href="#DejaVuSans-53"/>
       <use x="127.246094" xlink:href="#DejaVuSans-48"/>
      </g>
     </g>
    </g>
    <g id="xtick_3">
     <g id="line2d_12">
      <g>
       <use style="stroke:#000000;stroke-width:0.8;" x="248.448852" xlink:href="#mff410b6fbf" y="192.24"/>
      </g>
     </g>
     <g id="text_19">
      <!-- 500 -->
      <g transform="translate(238.905102 206.838437)scale(0.1 -0.1)">
       <use xlink:href="#DejaVuSans-53"/>
       <use x="63.623047" xlink:href="#DejaVuSans-48"/>
       <use x="127.246094" xlink:href="#DejaVuSans-48"/>
      </g>
     </g>
    </g>
    <g id="xtick_4">
     <g id="line2d_13">
      <g>
       <use style="stroke:#000000;stroke-width:0.8;" x="318.561099" xlink:href="#mff410b6fbf" y="192.24"/>
      </g>
     </g>
     <g id="text_20">
      <!-- 750 -->
      <g transform="translate(309.017349 206.838437)scale(0.1 -0.1)">
       <defs>
        <path d="M 8.203125 72.90625 
L 55.078125 72.90625 
L 55.078125 68.703125 
L 28.609375 0 
L 18.3125 0 
L 43.21875 64.59375 
L 8.203125 64.59375 
z
" id="DejaVuSans-55"/>
       </defs>
       <use xlink:href="#DejaVuSans-55"/>
       <use x="63.623047" xlink:href="#DejaVuSans-53"/>
       <use x="127.246094" xlink:href="#DejaVuSans-48"/>
      </g>
     </g>
    </g>
    <g id="xtick_5">
     <g id="line2d_14">
      <g>
       <use style="stroke:#000000;stroke-width:0.8;" x="388.673346" xlink:href="#mff410b6fbf" y="192.24"/>
      </g>
     </g>
     <g id="text_21">
      <!-- 1,000 -->
      <g transform="translate(374.359283 206.838437)scale(0.1 -0.1)">
       <defs>
        <path d="M 12.40625 8.296875 
L 28.515625 8.296875 
L 28.515625 63.921875 
L 10.984375 60.40625 
L 10.984375 69.390625 
L 28.421875 72.90625 
L 38.28125 72.90625 
L 38.28125 8.296875 
L 54.390625 8.296875 
L 54.390625 0 
L 12.40625 0 
z
" id="DejaVuSans-49"/>
        <path d="M 11.71875 12.40625 
L 22.015625 12.40625 
L 22.015625 4 
L 14.015625 -11.625 
L 7.71875 -11.625 
L 11.71875 4 
z
" id="DejaVuSans-44"/>
       </defs>
       <use xlink:href="#DejaVuSans-49"/>
       <use x="63.623047" xlink:href="#DejaVuSans-44"/>
       <use x="95.410156" xlink:href="#DejaVuSans-48"/>
       <use x="159.033203" xlink:href="#DejaVuSans-48"/>
       <use x="222.65625" xlink:href="#DejaVuSans-48"/>
      </g>
     </g>
    </g>
    <g id="xtick_6">
     <g id="line2d_15">
      <g>
       <use style="stroke:#000000;stroke-width:0.8;" x="458.785592" xlink:href="#mff410b6fbf" y="192.24"/>
      </g>
     </g>
     <g id="text_22">
      <!-- 1,250 -->
      <g transform="translate(444.47153 206.838437)scale(0.1 -0.1)">
       <use xlink:href="#DejaVuSans-49"/>
       <use x="63.623047" xlink:href="#DejaVuSans-44"/>
       <use x="95.410156" xlink:href="#DejaVuSans-50"/>
       <use x="159.033203" xlink:href="#DejaVuSans-53"/>
       <use x="222.65625" xlink:href="#DejaVuSans-48"/>
      </g>
     </g>
    </g>
    <g id="xtick_7">
     <g id="line2d_16">
      <g>
       <use style="stroke:#000000;stroke-width:0.8;" x="528.897839" xlink:href="#mff410b6fbf" y="192.24"/>
      </g>
     </g>
     <g id="text_23">
      <!-- 1,500 -->
      <g transform="translate(514.583776 206.838437)scale(0.1 -0.1)">
       <use xlink:href="#DejaVuSans-49"/>
       <use x="63.623047" xlink:href="#DejaVuSans-44"/>
       <use x="95.410156" xlink:href="#DejaVuSans-53"/>
       <use x="159.033203" xlink:href="#DejaVuSans-48"/>
       <use x="222.65625" xlink:href="#DejaVuSans-48"/>
      </g>
     </g>
    </g>
    <g id="xtick_8">
     <g id="line2d_17">
      <g>
       <use style="stroke:#000000;stroke-width:0.8;" x="599.010085" xlink:href="#mff410b6fbf" y="192.24"/>
      </g>
     </g>
     <g id="text_24">
      <!-- 1,750 -->
      <g transform="translate(584.696023 206.838437)scale(0.1 -0.1)">
       <use xlink:href="#DejaVuSans-49"/>
       <use x="63.623047" xlink:href="#DejaVuSans-44"/>
       <use x="95.410156" xlink:href="#DejaVuSans-55"/>
       <use x="159.033203" xlink:href="#DejaVuSans-53"/>
       <use x="222.65625" xlink:href="#DejaVuSans-48"/>
      </g>
     </g>
    </g>
    <g id="xtick_9">
     <g id="line2d_18">
      <g>
       <use style="stroke:#000000;stroke-width:0.8;" x="669.122332" xlink:href="#mff410b6fbf" y="192.24"/>
      </g>
     </g>
     <g id="text_25">
      <!-- 2,000 -->
      <g transform="translate(654.80827 206.838437)scale(0.1 -0.1)">
       <use xlink:href="#DejaVuSans-50"/>
       <use x="63.623047" xlink:href="#DejaVuSans-44"/>
       <use x="95.410156" xlink:href="#DejaVuSans-48"/>
       <use x="159.033203" xlink:href="#DejaVuSans-48"/>
       <use x="222.65625" xlink:href="#DejaVuSans-48"/>
      </g>
     </g>
    </g>
    <g id="xtick_10">
     <g id="line2d_19">
      <g>
       <use style="stroke:#000000;stroke-width:0.8;" x="739.234579" xlink:href="#mff410b6fbf" y="192.24"/>
      </g>
     </g>
     <g id="text_26">
      <!-- 2,250 -->
      <g transform="translate(724.920516 206.838437)scale(0.1 -0.1)">
       <use xlink:href="#DejaVuSans-50"/>
       <use x="63.623047" xlink:href="#DejaVuSans-44"/>
       <use x="95.410156" xlink:href="#DejaVuSans-50"/>
       <use x="159.033203" xlink:href="#DejaVuSans-53"/>
       <use x="222.65625" xlink:href="#DejaVuSans-48"/>
      </g>
     </g>
    </g>
   </g>
   <g id="matplotlib.axis_2">
    <g id="ytick_1">
     <g id="line2d_20">
      <defs>
       <path d="M 0 0 
L -3.5 0 
" id="m434ee77cd3" style="stroke:#000000;stroke-width:0.8;"/>
      </defs>
      <g>
       <use style="stroke:#000000;stroke-width:0.8;" x="108" xlink:href="#m434ee77cd3" y="192.24"/>
      </g>
     </g>
     <g id="text_27">
      <!-- 0 -->
      <g transform="translate(94.6375 196.039219)scale(0.1 -0.1)">
       <use xlink:href="#DejaVuSans-48"/>
      </g>
     </g>
    </g>
    <g id="ytick_2">
     <g id="line2d_21">
      <g>
       <use style="stroke:#000000;stroke-width:0.8;" x="108" xlink:href="#m434ee77cd3" y="162"/>
      </g>
     </g>
     <g id="text_28">
      <!-- 1 -->
      <g transform="translate(94.6375 165.799219)scale(0.1 -0.1)">
       <use xlink:href="#DejaVuSans-49"/>
      </g>
     </g>
    </g>
   </g>
   <g id="patch_27">
    <path d="M 108 192.24 
L 108 162 
" style="fill:none;stroke:#000000;stroke-linecap:square;stroke-linejoin:miter;stroke-width:0.8;"/>
   </g>
   <g id="patch_28">
    <path d="M 777.6 192.24 
L 777.6 162 
" style="fill:none;stroke:#000000;stroke-linecap:square;stroke-linejoin:miter;stroke-width:0.8;"/>
   </g>
   <g id="patch_29">
    <path d="M 108 192.24 
L 777.6 192.24 
" style="fill:none;stroke:#000000;stroke-linecap:square;stroke-linejoin:miter;stroke-width:0.8;"/>
   </g>
   <g id="patch_30">
    <path d="M 108 162 
L 777.6 162 
" style="fill:none;stroke:#000000;stroke-linecap:square;stroke-linejoin:miter;stroke-width:0.8;"/>
   </g>
  </g>
 </g>
 <defs>
  <clipPath id="pd99c29d4da">
   <rect height="120.96" width="669.6" x="108" y="25.92"/>
  </clipPath>
 </defs>
</svg>
